ply
format ascii 1.0
element vertex 960
property float x
property float y
property float z
end_header
1336 2272 183
1281 2336 120
1227 2399 54
1151 2443 -19
1294 2317 183
1237 2382 121
1186 2455 55
1118 2525 -17
1253 2367 184
1197 2440 122
1136 2499 57
1070 2577 -15
1210 2415 184
1150 2485 123
1092 2557 59
1025 2643 -12
1168 2468 185
1103 2535 124
1044 2612 61
972 2697 -10
1122 2515 185
1058 2590 126
999 2678 63
918 2747 -7
1078 2573 186
1007 2636 127
947 2729 65
869 2819 -4
1029 2619 186
963 2706 129
896 2789 67
814 2874 -2
984 2678 186
915 2766 130
843 2847 69
757 2937 0
938 2741 187
863 2822 132
789 2907 71
700 3005 3
886 2795 188
810 2882 133
732 2972 74
641 3077 7
832 2848 188
755 2947 136
675 3047 77
579 3151 10
782 2921 190
698 3012 137
614 3111 79
501 3136 13
726 2979 190
640 3079 139
553 3186 82
416 3060 16
668 3044 191
582 3156 142
471 3133 81
338 2995 18
613 3122 193
509 3166 141
388 3059 80
261 2934 21
552 3189 194
425 3091 137
309 2992 80
189 2880 24
466 3127 187
344 3028 133
233 2930 79
118 2830 27
385 3064 180
268 2958 129
161 2870 79
51 2765 29
307 2992 173
195 2896 126
93 2811 78
-12 2720 32
233 2929 167
126 2850 123
27 2750 78
-73 2663 34
163 2872 161
60 2787 120
-34 2696 77
-133 2623 36
96 2813 155
-3 2730 117
-95 2655 77
-191 2574 38
31 2756 149
-64 2677 114
-154 2600 77
-247 2529 41
-32 2708 145
-125 2629 112
-210 2554 77
-302 2488 43
-93 2654 140
-181 2573 109
-266 2514 77
-353 2443 45
-151 2608 135
-238 2536 107
-319 2466 77
-404 2397 47
-208 2563 131
-291 2493 105
-369 2417 76
-452 2358 49
-262 2520 126
-342 2442 102
-419 2380 76
-501 2316 51
-314 2470 122
-393 2401 101
-466 2330 76
-544 2265 53
-367 2430 118
-442 2358 99
-514 2294 76
-590 2230 55
-417 2387 114
-490 2319 97
-559 2248 76
-635 2192 57
-466 2349 110
-537 2275 95
-605 2214 76
-677 2150 59
-511 2294 106
-582 2234 93
-648 2173 76
-722 2122 61
-560 2262 103
-625 2189 91
-692 2139 77
-763 2082 63
-603 2216 99
-669 2154 90
-735 2100 77
-819 2082 67
-649 2176 96
-715 2123 89
-780 2072 78
-917 2181 74
-694 2145 93
-756 2083 87
-855 2123 81
-2122 4743 168
-736 2104 90
-807 2072 87
-940 2186 85
-2347 4939 183
-779 2070 87
-903 2169 91
-2216 4842 194
-2844 5647 220
-855 2122 88
-2101 4731 201
-2436 5013 205
-3084 5800 235
-936 2177 89
-2335 4954 210
-2888 5622 234
-3464 6171 261
-2230 4867 196
-2839 5678 242
-3325 6117 261
-4347 7346 325
-2435 5002 198
-3065 5786 248
-3987 6950 304
-5248 8422 389
-2896 5611 219
-3450 6163 265
-4548 7519 337
-5513 8415 406
-3351 6131 236
-4358 7378 320
-5392 8467 389
-6872 9982 504
-4084 7072 268
-5174 8307 363
-5632 8411 396
-2176 3011 158
-4900 8043 300
-5516 8415 370
-2139 3039 147
-2237 2952 162
-5453 8490 312
-6716 9744 432
-2204 2984 148
-858 1081 62
-6592 9748 352
-2177 3005 134
-847 1093 55
0 0 0
-2156 3030 107
-2242 2947 133
-853 1050 55
0 0 0
-2221 2970 104
-842 1055 48
0 0 0
0 0 0
-835 1064 36
0 0 0
0 0 0
0 0 0
0 0 0
0 0 0
0 0 0
0 0 0
0 0 0
0 0 0
0 0 0
0 0 0
0 0 0
0 0 0
0 0 0
0 0 0
0 0 0
0 0 0
0 0 0
0 0 0
0 0 0
-107 101 5
0 0 0
0 0 0
-106 101 3
0 0 0
-106 90 6
0 0 0
0 0 0
0 0 0
0 0 0
0 0 0
0 0 0
0 0 0
0 0 0
0 0 0
0 0 0
0 0 0
0 0 0
0 0 0
0 0 0
0 0 0
0 0 0
0 0 0
0 0 0
0 0 0
0 0 0
0 0 0
0 0 0
0 0 0
0 0 0
0 0 0
0 0 0
0 0 0
0 0 0
0 0 0
0 0 0
0 0 0
0 0 0
0 0 0
0 0 0
0 0 0
0 0 0
0 0 0
0 0 0
0 0 0
0 0 0
0 0 0
0 0 0
0 0 0
0 0 0
0 0 0
0 0 0
0 0 0
0 0 0
-532 226 39
0 0 0
0 0 0
0 0 0
0 0 0
0 0 0
0 0 0
0 0 0
-505 188 37
0 0 0
0 0 0
0 0 0
0 0 0
0 0 0
0 0 0
0 0 0
-479 155 36
0 0 0
0 0 0
0 0 0
0 0 0
0 0 0
0 0 0
-441 131 23
-443 121 33
0 0 0
0 0 0
0 0 0
0 0 0
0 0 0
0 0 0
-434 107 23
-428 97 33
0 0 0
-429 104 13
0 0 0
0 0 0
-408 95 2
0 0 0
-411 81 21
-409 73 32
0 0 0
-403 77 12
0 0 0
0 0 0
-395 72 1
0 0 0
-393 59 21
-387 52 30
0 0 0
-386 55 11
0 0 0
0 0 0
-374 50 1
0 0 0
-375 39 20
-377 33 30
0 0 0
-367 35 10
0 0 0
0 0 0
-354 29 0
0 0 0
-358 20 19
-359 16 29
0 0 0
-359 17 10
0 0 0
0 0 0
-345 12 0
0 0 0
-346 4 19
-350 0 29
0 0 0
-339 0 9
0 0 0
0 0 0
-322 -4 0
0 0 0
-329 -11 18
-339 -15 28
0 0 0
-322 -15 9
0 0 0
0 0 0
-308 -19 0
0 0 0
-323 -26 18
-324 -29 28
0 0 0
-312 -29 9
0 0 0
0 0 0
-294 -33 0
0 0 0
-306 -38 17
-310 -41 27
0 0 0
-300 -42 8
0 0 0
0 0 0
-283 -45 0
0 0 0
-294 -51 17
-302 -54 27
0 0 0
-287 -55 8
0 0 0
0 0 0
-270 -57 0
0 0 0
-288 -64 17
-297 -67 27
0 0 0
-279 -67 8
0 0 0
0 0 0
-267 -70 0
0 0 0
-283 -76 17
-289 -79 27
0 0 0
-269 -78 8
0 0 0
0 0 0
-262 -83 0
0 0 0
-265 -85 16
-271 -87 26
0 0 0
-263 -90 8
0 0 0
0 0 0
-252 -94 0
0 0 0
-258 -96 16
-260 -97 25
0 0 0
-250 -99 8
0 0 0
0 0 0
-248 -106 0
0 0 0
-252 -107 16
-255 -108 25
0 0 0
-244 -111 8
0 0 0
0 0 0
-228 -111 0
0 0 0
-242 -117 16
-246 -117 25
0 0 0
-235 -121 8
0 0 0
0 0 0
-222 -122 0
0 0 0
-236 -127 16
-240 -128 25
0 0 0
-229 -132 8
0 0 0
0 0 0
-216 -133 0
0 0 0
-231 -139 16
-232 -138 25
0 0 0
-222 -142 8
0 0 0
0 0 0
-201 -138 0
0 0 0
-220 -147 16
-224 -147 25
0 0 0
-214 -152 8
0 0 0
0 0 0
-194 -147 0
0 0 0
-213 -157 16
-217 -156 25
0 0 0
-205 -160 8
0 0 0
0 0 0
-187 -157 0
0 0 0
-208 -168 17
-209 -165 25
0 0 0
-197 -170 9
0 0 0
0 0 0
-179 -166 1
0 0 0
-198 -176 17
-202 -175 25
0 0 0
-189 -179 9
0 0 0
0 0 0
-169 -173 1
0 0 0
-190 -185 17
-193 -183 25
0 0 0
-180 -188 9
0 0 0
0 0 0
-162 -183 1
0 0 0
-183 -196 17
-186 -193 26
0 0 0
-173 -199 9
0 0 0
0 0 0
-158 -198 2
0 0 0
-172 -202 17
-177 -201 26
0 0 0
-164 -207 10
0 0 0
0 0 0
-154 -213 2
0 0 0
-165 -213 18
-170 -212 26
0 0 0
-155 -216 10
0 0 0
0 0 0
-144 -220 2
0 0 0
-154 -219 18
-159 -218 26
0 0 0
-145 -225 10
0 0 0
0 0 0
-136 -232 3
0 0 0
-146 -230 18
-150 -227 26
0 0 0
-135 -232 11
0 0 0
0 0 0
-126 -240 4
0 0 0
-136 -238 19
-141 -236 26
0 0 0
-129 -249 12
0 0 0
0 0 0
-116 -251 4
0 0 0
-127 -247 19
-131 -244 26
0 0 0
-118 -256 12
0 0 0
0 0 0
-104 -256 5
0 0 0
-120 -263 20
-122 -254 27
0 0 0
-107 -263 12
0 0 0
0 0 0
-96 -275 6
0 0 0
-109 -272 20
-113 -265 27
0 0 0
-99 -281 14
0 0 0
0 0 0
-85 -286 6
0 0 0
-97 -280 21
-105 -280 28
0 0 0
-87 -290 14
0 0 0
0 0 0
-75 -304 8
0 0 0
-87 -293 21
-95 -294 29
0 0 0
-76 -306 15
0 0 0
0 0 0
-63 -323 9
0 0 0
-77 -311 23
-85 -310 30
0 0 0
-64 -325 17
0 0 0
0 0 0
-46 -314 9
0 0 0
-63 -318 23
-72 -322 31
0 0 0
-51 -337 18
0 0 0
0 0 0
-35 -352 11
0 0 0
-51 -341 25
-51 -286 27
0 0 0
-37 -356 19
0 0 0
0 0 0
-19 -373 13
0 0 0
-36 -345 25
-46 -350 32
0 0 0
-20 -367 20
0 0 0
0 0 0
-1 -389 15
0 0 0
-21 -374 28
-30 -353 32
0 0 0
-3 -394 22
0 0 0
0 0 0
17 -410 17
0 0 0
-4 -393 29
-15 -383 35
0 0 0
15 -417 24
0 0 0
0 0 0
39 -444 19
0 0 0
14 -418 31
2 -399 36
0 0 0
37 -443 27
0 0 0
0 0 0
65 -476 22
0 0 0
36 -444 34
22 -430 38
0 0 0
61 -471 29
0 0 0
0 0 0
93 -507 26
0 0 0
60 -475 36
45 -459 41
0 0 0
90 -504 33
0 0 0
0 0 0
0 0 0
0 0 0
87 -500 39
72 -494 44
0 0 0
121 -536 36
0 0 0
0 0 0
0 0 0
0 0 0
121 -540 43
101 -524 46
0 0 0
0 0 0
0 0 0
0 0 0
0 0 0
0 0 0
0 0 0
0 0 0
0 0 0
0 0 0
0 0 0
0 0 0
0 0 0
0 0 0
0 0 0
0 0 0
0 0 0
0 0 0
0 0 0
0 0 0
0 0 0
0 0 0
0 0 0
0 0 0
0 0 0
0 0 0
0 0 0
0 0 0
0 0 0
0 0 0
0 0 0
0 0 0
0 0 0
0 0 0
0 0 0
0 0 0
0 0 0
0 0 0
0 0 0
0 0 0
0 0 0
0 0 0
0 0 0
0 0 0
0 0 0
0 0 0
0 0 0
0 0 0
0 0 0
0 0 0
0 0 0
0 0 0
92 -136 13
0 0 0
0 0 0
0 0 0
0 0 0
94 -139 13
0 0 0
0 0 0
102 -137 14
0 0 0
94 -141 14
0 0 0
0 0 0
102 -138 14
0 0 0
0 0 0
0 0 0
0 0 0
101 -136 14
92 -131 12
1381 -1607 188
0 0 0
0 0 0
0 0 0
1427 -1586 193
1378 -1612 184
0 0 0
0 0 0
1461 -1552 196
1414 -1579 186
1385 -1624 181
0 0 0
1495 -1518 200
1460 -1557 189
1418 -1585 181
1376 -1619 168
1528 -1484 203
1497 -1525 192
1455 -1554 182
1417 -1589 168
1568 -1456 208
1531 -1491 194
1492 -1521 183
1454 -1555 167
1609 -1428 213
1567 -1458 196
1537 -1495 185
1490 -1520 166
1643 -1394 217
1606 -1427 199
1571 -1460 185
1531 -1489 166
1681 -1362 221
1645 -1395 202
1608 -1426 187
1571 -1458 166
1720 -1332 226
1681 -1361 205
1646 -1393 188
1610 -1425 166
1760 -1300 231
1720 -1330 208
1690 -1364 190
1651 -1393 166
1793 -1265 235
1761 -1298 211
1727 -1330 191
1686 -1356 166
1834 -1233 240
1793 -1260 214
1769 -1297 193
1728 -1324 166
1822 -1167 239
1831 -1226 217
1802 -1258 195
1768 -1289 166
1909 -1164 250
1822 -1161 215
1837 -1221 196
1804 -1250 166
1948 -1129 256
1922 -1164 226
1862 -1176 197
1841 -1213 166
1986 -1093 261
1952 -1122 228
1919 -1150 200
1884 -1178 167
0 0 0
0 0 0
0 0 0
1932 -1145 168
916 -453 121
931 -480 108
926 -498 95
0 0 0
912 -426 120
926 -452 107
926 -471 94
910 -483 76
918 -404 122
936 -430 108
923 -443 93
921 -460 76
885 -367 118
917 -397 106
951 -429 95
939 -442 76
855 -332 114
872 -354 101
883 -374 88
986 -435 79
828 -301 111
840 -319 97
854 -339 84
867 -358 69
793 -269 106
816 -289 94
832 -308 82
848 -327 66
776 -244 105
789 -259 91
795 -273 78
827 -297 64
755 -219 102
772 -235 89
781 -249 76
781 -259 60
733 -196 100
742 -208 86
752 -220 73
760 -232 58
734 -179 100
747 -191 87
750 -201 73
758 -212 57
0 0 0
656 -152 76
748 -182 72
758 -193 57
633 -125 87
627 -130 73
620 -135 60
612 -140 45
0 0 0
0 0 0
611 -119 59
597 -122 44
632 -96 88
618 -100 72
0 0 0
0 0 0
0 0 0
0 0 0
607 -89 59
596 -92 43
659 -71 93
644 -74 76
0 0 0
0 0 0
810 -70 115
0 0 0
647 -65 63
616 -65 44
1192 -77 171
874 -61 104
0 0 0
0 0 0
1142 -49 165
1147 -55 138
1155 -62 113
1109 -64 80
1120 -23 163
1117 -28 135
1111 -33 109
1116 -38 81
1096 0 161
1091 -3 133
1077 -8 106
1074 -11 77
1064 23 157
1059 20 130
1052 16 104
1047 13 76
1033 45 154
1031 42 127
1022 39 101
1018 38 74
1007 65 152
1010 64 125
1006 62 100
999 61 72
980 85 149
974 84 122
967 82 97
971 83 71
963 105 147
956 104 121
947 103 96
933 102 68
943 123 146
930 123 118
926 122 94
920 123 67
921 141 144
913 141 117
903 140 93
885 140 65
909 159 143
899 160 117
891 160 92
2167 396 161
2156 426 344
2140 430 280
2137 434 223
2121 440 159
2110 465 340
2108 473 279
2093 477 221
2093 487 158
2071 504 337
2065 513 277
2060 520 220
2045 528 156
2035 542 335
2033 554 276
2029 562 219
2016 573 156
2005 581 334
2003 594 274
1995 603 218
1986 616 155
1963 615 331
1969 631 273
1957 640 216
1947 655 154
1946 656 331
1938 670 272
1928 680 215
1912 694 153
