ply
format ascii 1.0
element vertex 1440
property float x
property float y
property float z
end_header
0 0 0
0 0 0
0 0 0
0 0 0
0 0 0
0 0 0
0 0 0
0 0 0
0 0 0
0 0 0
0 0 0
0 0 0
0 0 0
0 0 0
0 0 0
0 0 0
0 0 0
0 0 0
0 0 0
0 0 0
0 0 0
0 0 0
0 0 0
0 0 0
0 0 0
0 0 0
0 0 0
0 0 0
0 0 0
0 0 0
0 0 0
0 0 0
0 0 0
0 0 0
0 0 0
0 0 0
0 0 0
0 0 0
0 0 0
0 0 0
0 0 0
0 0 0
0 0 0
0 0 0
0 0 0
0 0 0
0 0 0
0 0 0
0 0 0
0 0 0
0 0 0
0 0 0
0 0 0
0 0 0
0 0 0
0 0 0
0 0 0
0 0 0
0 0 0
0 0 0
0 0 0
0 0 0
0 0 0
0 0 0
0 0 0
0 0 0
0 0 0
0 0 0
0 0 0
0 0 0
0 0 0
0 0 0
0 0 0
0 0 0
0 0 0
0 0 0
0 0 0
0 0 0
0 0 0
0 0 0
0 0 0
0 0 0
0 0 0
0 0 0
0 0 0
0 0 0
0 0 0
0 0 0
0 0 0
0 0 0
0 0 0
0 0 0
0 0 0
0 0 0
0 0 0
0 0 0
0 0 0
0 0 0
0 0 0
0 0 0
0 0 0
0 0 0
0 0 0
0 0 0
0 0 0
0 0 0
0 0 0
0 0 0
0 0 0
0 0 0
0 0 0
0 0 0
0 0 0
0 0 0
0 0 0
0 0 0
0 0 0
0 0 0
0 0 0
0 0 0
0 0 0
0 0 0
0 0 0
0 0 0
0 0 0
0 0 0
0 0 0
0 0 0
0 0 0
0 0 0
0 0 0
0 0 0
0 0 0
0 0 0
0 0 0
0 0 0
0 0 0
0 0 0
0 0 0
0 0 0
0 0 0
0 0 0
0 0 0
0 0 0
0 0 0
0 0 0
0 0 0
0 0 0
0 0 0
0 0 0
0 0 0
0 0 0
0 0 0
0 0 0
0 0 0
0 0 0
0 0 0
0 0 0
0 0 0
0 0 0
0 0 0
0 0 0
0 0 0
0 0 0
0 0 0
0 0 0
0 0 0
0 0 0
0 0 0
0 0 0
0 0 0
0 0 0
0 0 0
0 0 0
0 0 0
0 0 0
0 0 0
0 0 0
0 0 0
0 0 0
0 0 0
0 0 0
0 0 0
0 0 0
0 0 0
0 0 0
0 0 0
0 0 0
0 0 0
0 0 0
0 0 0
0 0 0
0 0 0
0 0 0
0 0 0
0 0 0
0 0 0
0 0 0
0 0 0
0 0 0
0 0 0
0 0 0
0 0 0
0 0 0
0 0 0
0 0 0
0 0 0
0 0 0
0 0 0
0 0 0
0 0 0
0 0 0
0 0 0
0 0 0
0 0 0
0 0 0
0 0 0
0 0 0
0 0 0
0 0 0
0 0 0
0 0 0
0 0 0
0 0 0
0 0 0
0 0 0
0 0 0
0 0 0
0 0 0
0 0 0
0 0 0
0 0 0
0 0 0
0 0 0
0 0 0
0 0 0
0 0 0
0 0 0
0 0 0
0 0 0
0 0 0
0 0 0
0 0 0
0 0 0
0 0 0
0 0 0
0 0 0
0 0 0
0 0 0
0 0 0
0 0 0
0 0 0
0 0 0
0 0 0
0 0 0
0 0 0
0 0 0
0 0 0
0 0 0
0 0 0
0 0 0
0 0 0
0 0 0
0 0 0
0 0 0
0 0 0
0 0 0
0 0 0
0 0 0
0 0 0
0 0 0
0 0 0
0 0 0
0 0 0
0 0 0
0 0 0
0 0 0
0 0 0
0 0 0
0 0 0
0 0 0
0 0 0
0 0 0
0 0 0
0 0 0
0 0 0
0 0 0
0 0 0
0 0 0
0 0 0
0 0 0
0 0 0
0 0 0
0 0 0
0 0 0
0 0 0
0 0 0
0 0 0
0 0 0
0 0 0
0 0 0
0 0 0
0 0 0
0 0 0
0 0 0
0 0 0
0 0 0
0 0 0
0 0 0
0 0 0
0 0 0
0 0 0
0 0 0
0 0 0
0 0 0
0 0 0
0 0 0
0 0 0
0 0 0
0 0 0
0 0 0
0 0 0
0 0 0
0 0 0
0 0 0
0 0 0
0 0 0
0 0 0
2017 -1068 -22
0 0 0
0 0 0
0 0 0
2062 -1035 -20
0 0 0
0 0 0
0 0 0
2100 -995 -17
0 0 0
0 0 0
0 0 0
2141 -956 -15
0 0 0
0 0 0
0 0 0
2194 -922 -13
0 0 0
0 0 0
0 0 0
0 0 0
0 0 0
0 0 0
0 0 0
0 0 0
0 0 0
0 0 0
0 0 0
0 0 0
0 0 0
0 0 0
0 0 0
0 0 0
0 0 0
0 0 0
0 0 0
0 0 0
0 0 0
0 0 0
0 0 0
0 0 0
0 0 0
0 0 0
0 0 0
0 0 0
0 0 0
0 0 0
0 0 0
0 0 0
0 0 0
0 0 0
0 0 0
0 0 0
0 0 0
0 0 0
0 0 0
0 0 0
0 0 0
0 0 0
0 0 0
0 0 0
0 0 0
0 0 0
0 0 0
0 0 0
0 0 0
0 0 0
0 0 0
0 0 0
0 0 0
0 0 0
0 0 0
0 0 0
0 0 0
0 0 0
0 0 0
0 0 0
0 0 0
0 0 0
964 -53 -89
1080 -46 8
0 0 0
1093 -39 -62
1076 -34 -100
1112 -23 9
1092 -17 -27
1073 -13 -60
1062 -7 -98
1086 1 9
1074 7 -26
1069 11 -60
1046 17 -97
1064 25 9
1063 31 -25
1043 35 -58
1025 41 -95
1058 48 10
1052 55 -24
1030 59 -57
1011 65 -94
1040 71 10
1030 77 -24
1012 81 -56
1002 88 -93
1035 93 11
1013 99 -23
998 104 -55
976 110 -91
1024 115 11
1002 121 -22
978 125 -54
972 133 -90
998 135 11
987 142 -22
2222 338 -124
2204 356 -206
2200 347 26
2195 368 -48
2166 381 -120
2158 402 -202
2168 392 26
2146 410 -47
2133 427 -119
2121 448 -199
2131 434 26
2118 454 -46
2100 471 -117
2085 493 -196
2086 473 26
2077 495 -45
2069 515 -115
2050 537 -194
2060 515 26
2049 538 -44
2031 556 -113
2011 578 -191
2025 554 26
2016 579 -43
1992 596 -111
1975 620 -188
1996 595 27
1981 618 -42
1963 637 -110
1944 662 -186
1968 634 27
1942 655 -41
1925 676 -108
1908 701 -183
1932 670 26
1919 696 -41
1893 714 -107
1876 741 -181
1907 709 26
1886 733 -40
1853 749 -105
1842 778 -179
1880 747 26
1846 766 -39
1825 788 -104
0 0 0
1837 778 26
1817 804 -39
0 0 0
0 0 0
0 0 0
0 0 0
0 0 0
2254 1150 -223
0 0 0
0 0 0
2266 1173 -132
2079 1125 -208
2238 1129 32
2252 1186 -49
2076 1137 -122
2020 1156 -203
2239 1193 32
2096 1165 -46
2058 1190 -122
2027 1225 -206
2139 1201 30
2075 1217 -46
2037 1242 -121
1971 1256 -202
2138 1265 30
2065 1275 -46
2008 1289 -121
1937 1300 -200
2121 1319 30
2039 1325 -46
1970 1331 -120
1910 1350 -199
2091 1366 29
1987 1356 -45
1924 1366 -118
1860 1382 -196
2047 1404 28
1943 1392 -45
1869 1395 -116
1961 1531 -209
1988 1430 27
1889 1420 -45
1958 1533 -123
1927 1581 -208
1916 1444 26
1955 1540 -47
1919 1576 -123
1889 1625 -207
1954 1542 26
1915 1580 -47
1885 1623 -122
1849 1669 -205
1915 1582 25
1883 1627 -47
1845 1665 -121
1811 1715 -204
1883 1628 24
1845 1670 -47
1812 1713 -121
1758 1747 -201
1846 1669 23
1810 1716 -48
1771 1755 -120
1699 1771 -197
1811 1713 21
1770 1756 -48
1736 1802 -120
1542 1684 -182
1778 1758 20
1731 1798 -48
1700 1849 -120
1497 1716 -180
1738 1798 19
1699 1848 -49
1661 1893 -120
1475 1775 -180
1702 1842 17
1659 1890 -49
1620 1935 -119
1447 1827 -180
1667 1888 16
1624 1936 -50
1584 1985 -119
1418 1882 -181
1627 1927 14
1586 1982 -50
1545 2032 -119
1348 1878 -175
1591 1974 13
1544 2023 -51
1454 2007 -115
1309 1919 -174
1553 2017 11
1505 2068 -52
1327 1924 -108
1274 1966 -174
1512 2059 9
1439 2077 -52
1288 1965 -108
1223 1989 -171
1476 2108 8
1300 1972 -49
1235 1983 -106
1183 2031 -170
1435 2152 6
1250 1993 -49
1187 2011 -106
1129 2048 -168
1367 2154 4
1209 2030 -50
1158 2069 -107
1089 2091 -167
1244 2062 2
1169 2069 -51
1130 2135 -108
1062 2162 -168
1202 2097 0
1119 2091 -51
1088 2175 -108
1021 2209 -168
1168 2150 -1
1100 2173 -53
1064 2257 -110
997 2300 -171
1164 2264 -4
1073 2248 -55
1038 2341 -113
974 2398 -174
1180 2429 -6
1055 2347 -58
1007 2424 -115
953 2516 -178
1139 2488 -9
1084 2568 -63
1022 2630 -122
956 2714 -188
1098 2549 -12
1034 2616 -65
974 2693 -123
902 2770 -188
1052 2604 -14
988 2679 -67
925 2753 -124
848 2825 -187
1005 2662 -17
938 2735 -68
873 2815 -126
796 2895 -188
954 2711 -20
886 2792 -70
819 2878 -127
737 2957 -187
902 2767 -23
831 2847 -72
763 2938 -128
662 2945 -183
851 2827 -27
780 2921 -75
705 3002 -129
615 3073 -187
799 2893 -30
724 2983 -77
647 3073 -130
536 3044 -181
745 2956 -34
665 3044 -79
587 3148 -132
413 2721 -158
687 3018 -38
607 3124 -82
502 3085 -128
344 2685 -153
629 3091 -42
534 3129 -83
419 3017 -124
278 2652 -148
568 3162 -46
447 3053 -82
340 2951 -120
230 2846 -155
482 3094 -49
368 2987 -81
264 2890 -116
162 2827 -151
400 3018 -51
291 2925 -80
193 2835 -113
94 2750 -144
322 2953 -53
219 2858 -80
125 2769 -110
29 2686 -138
248 2887 -55
149 2796 -79
59 2713 -107
-32 2631 -132
179 2841 -57
83 2741 -79
-3 2658 -104
-91 2588 -127
110 2771 -59
19 2686 -78
-64 2618 -101
-150 2539 -122
43 2714 -61
-42 2641 -78
-123 2562 -99
-205 2495 -118
-18 2659 -63
-102 2587 -77
-179 2518 -96
-260 2453 -113
-78 2613 -65
-159 2539 -77
-234 2476 -94
-311 2408 -109
-136 2559 -66
-214 2495 -77
-287 2430 -92
-362 2367 -105
-192 2513 -68
-268 2447 -77
-336 2372 -90
-419 2371 -103
-248 2476 -71
-319 2403 -77
-388 2346 -88
-469 2340 -100
-300 2425 -72
-370 2364 -77
-444 2344 -88
-516 2295 -96
-350 2380 -74
-429 2376 -79
-494 2312 -87
-561 2255 -92
-405 2371 -77
-476 2334 -79
-539 2271 -85
-606 2213 -88
-458 2350 -80
-522 2282 -79
-584 2230 -83
-649 2176 -85
-504 2298 -81
-569 2246 -79
-629 2191 -82
-692 2139 -82
-551 2260 -83
-612 2200 -79
-674 2159 -81
-735 2102 -79
-597 2218 -85
-658 2169 -80
-715 2117 -79
-777 2071 -76
-641 2175 -87
-703 2135 -80
-758 2083 -78
-851 2114 -76
-687 2142 -89
-742 2089 -80
-813 2080 -78
-937 2184 -76
-731 2107 -91
-787 2060 -81
-907 2171 -81
-2175 4761 -163
-772 2068 -93
-881 2154 -86
-2125 4772 -180
0 0 0
-847 2116 -98
-946 2168 -89
-2330 4923 -186
-2895 5637 -184
-930 2173 -105
-2265 4872 -205
-2833 5644 -215
-3154 5809 -185
-2171 4756 -240
-2853 5782 -249
-3036 5713 -218
-3941 6880 -214
0 0 0
-3019 5771 -255
-3783 6739 -259
-4633 7674 -233
0 0 0
-3616 6537 -296
-4379 7390 -286
-5476 8618 -255
-3440 6307 -356
-4169 7138 -331
-5251 8413 -328
-5597 8377 -241
-4001 6940 -407
-4991 8101 -386
-5523 8410 -330
-6489 9248 -259
-4792 7872 -479
-5474 8438 -413
-6492 9400 -372
-2200 2988 -81
-5458 8505 -538
-6453 9450 -475
-2178 3004 -120
-842 1091 -28
-6442 9532 -626
-2163 3013 -156
-2246 2950 -119
-847 1047 -26
-2151 3024 -206
-2237 2968 -158
0 0 0
0 0 0
-2219 2968 -210
-835 1055 -57
0 0 0
0 0 0
-833 1061 -78
0 0 0
0 0 0
0 0 0
0 0 0
0 0 0
0 0 0
0 0 0
0 0 0
0 0 0
0 0 0
0 0 0
0 0 0
0 0 0
0 0 0
0 0 0
0 0 0
0 0 0
0 0 0
0 0 0
0 0 0
0 0 0
0 0 0
0 0 0
0 0 0
0 0 0
0 0 0
0 0 0
0 0 0
0 0 0
0 0 0
0 0 0
0 0 0
0 0 0
0 0 0
0 0 0
0 0 0
0 0 0
0 0 0
0 0 0
0 0 0
0 0 0
0 0 0
0 0 0
0 0 0
0 0 0
0 0 0
0 0 0
0 0 0
0 0 0
0 0 0
0 0 0
0 0 0
0 0 0
0 0 0
0 0 0
0 0 0
0 0 0
0 0 0
0 0 0
0 0 0
0 0 0
0 0 0
0 0 0
0 0 0
0 0 0
0 0 0
0 0 0
0 0 0
0 0 0
0 0 0
0 0 0
0 0 0
0 0 0
0 0 0
0 0 0
0 0 0
0 0 0
0 0 0
0 0 0
0 0 0
0 0 0
0 0 0
0 0 0
0 0 0
0 0 0
0 0 0
0 0 0
0 0 0
0 0 0
0 0 0
0 0 0
0 0 0
0 0 0
0 0 0
0 0 0
0 0 0
0 0 0
0 0 0
0 0 0
0 0 0
0 0 0
0 0 0
0 0 0
0 0 0
0 0 0
0 0 0
0 0 0
0 0 0
-413 101 -22
0 0 0
-404 86 1
0 0 0
0 0 0
0 0 0
0 0 0
0 0 0
-397 77 -21
0 0 0
0 0 0
0 0 0
0 0 0
-389 61 -9
0 0 0
0 0 0
-378 55 -20
0 0 0
0 0 0
0 0 0
0 0 0
-370 40 -9
0 0 0
0 0 0
-362 35 -19
0 0 0
0 0 0
0 0 0
0 0 0
-358 22 -8
0 0 0
0 0 0
0 0 0
0 0 0
0 0 0
-306 10 -27
0 0 0
0 0 0
0 0 0
0 0 0
0 0 0
0 0 0
-323 -4 3
0 0 0
0 0 0
-324 -9 -7
0 0 0
0 0 0
-318 -14 -17
0 0 0
-305 -17 3
0 0 0
0 0 0
-315 -23 -7
0 0 0
0 0 0
-311 -28 -17
0 0 0
0 0 0
-270 -30 -24
0 0 0
-302 -36 -7
0 0 0
0 0 0
-293 -41 -16
0 0 0
-278 -41 3
-254 -41 -23
0 0 0
0 0 0
0 0 0
0 0 0
-287 -54 -16
0 0 0
-272 -53 3
-282 -60 -26
0 0 0
0 0 0
0 0 0
0 0 0
-271 -65 -15
0 0 0
0 0 0
0 0 0
0 0 0
-274 -73 -6
0 0 0
0 0 0
-264 -76 -15
0 0 0
-246 -71 3
-267 -85 -25
0 0 0
-262 -82 -6
0 0 0
0 0 0
-258 -88 -15
0 0 0
-243 -82 3
-261 -97 -25
0 0 0
0 0 0
0 0 0
0 0 0
-244 -97 -14
0 0 0
-239 -93 3
0 0 0
0 0 0
-245 -103 -5
0 0 0
0 0 0
-240 -108 -14
0 0 0
-232 -103 3
-238 -116 -23
0 0 0
-238 -113 -5
0 0 0
0 0 0
0 0 0
0 0 0
-224 -112 3
-231 -127 -23
0 0 0
-230 -123 -5
0 0 0
0 0 0
-222 -127 -13
0 0 0
-214 -119 3
-226 -139 -23
0 0 0
-224 -133 -5
0 0 0
0 0 0
-218 -139 -13
0 0 0
-205 -126 3
-217 -149 -23
0 0 0
-217 -144 -5
0 0 0
0 0 0
-210 -148 -13
0 0 0
-199 -135 3
-210 -159 -22
0 0 0
-209 -152 -5
0 0 0
0 0 0
-201 -157 -13
0 0 0
-198 -148 3
-202 -169 -22
0 0 0
-203 -163 -5
0 0 0
0 0 0
-194 -167 -13
0 0 0
-191 -157 3
-193 -179 -22
0 0 0
-195 -172 -5
0 0 0
0 0 0
-187 -177 -12
0 0 0
-183 -165 3
-184 -188 -21
0 0 0
-184 -178 -4
0 0 0
0 0 0
-177 -185 -12
0 0 0
-177 -174 3
-175 -197 -21
0 0 0
-180 -192 -4
0 0 0
0 0 0
-170 -195 -12
0 0 0
-171 -185 3
-167 -207 -21
0 0 0
-171 -200 -4
0 0 0
0 0 0
-161 -203 -12
0 0 0
-162 -192 3
-158 -216 -20
0 0 0
-162 -208 -4
0 0 0
0 0 0
-154 -214 -12
0 0 0
-153 -199 2
-152 -231 -20
0 0 0
-154 -217 -4
0 0 0
0 0 0
-143 -221 -12
0 0 0
-144 -206 2
-137 -231 -19
0 0 0
-143 -224 -4
0 0 0
0 0 0
-137 -235 -12
0 0 0
-134 -212 2
-129 -245 -19
0 0 0
-134 -233 -4
0 0 0
0 0 0
-126 -242 -11
0 0 0
-129 -226 2
-121 -258 -19
0 0 0
-126 -244 -4
0 0 0
0 0 0
-116 -250 -11
0 0 0
-118 -232 2
-107 -260 -18
0 0 0
-118 -258 -4
0 0 0
0 0 0
-106 -261 -11
0 0 0
-112 -246 2
-100 -282 -19
0 0 0
-107 -266 -4
0 0 0
0 0 0
-95 -270 -11
0 0 0
-102 -256 1
-89 -295 -19
0 0 0
-98 -282 -4
0 0 0
0 0 0
-88 -292 -11
0 0 0
-92 -266 1
-74 -294 -17
0 0 0
-84 -281 -4
0 0 0
0 0 0
-76 -304 -11
0 0 0
-83 -281 1
-66 -324 -18
0 0 0
-75 -304 -4
0 0 0
0 0 0
-62 -310 -11
0 0 0
-74 -300 1
-51 -336 -18
0 0 0
-58 -292 -4
0 0 0
0 0 0
-51 -332 -11
0 0 0
-62 -313 1
-37 -353 -18
0 0 0
-50 -329 -4
0 0 0
0 0 0
-37 -350 -11
0 0 0
-50 -330 0
-22 -375 -17
0 0 0
-36 -351 -5
0 0 0
0 0 0
-21 -367 -11
0 0 0
-36 -350 0
-4 -393 -17
0 0 0
-21 -368 -5
0 0 0
0 0 0
-5 -387 -11
0 0 0
-21 -360 0
14 -413 -17
0 0 0
-4 -391 -5
0 0 0
0 0 0
13 -409 -11
0 0 0
-4 -381 0
36 -447 -17
0 0 0
14 -412 -5
0 0 0
0 0 0
35 -434 -11
0 0 0
13 -407 0
60 -472 -16
0 0 0
35 -438 -5
0 0 0
0 0 0
59 -466 -11
0 0 0
34 -435 -1
88 -502 -16
0 0 0
59 -464 -5
0 0 0
0 0 0
87 -499 -11
0 0 0
59 -466 -2
118 -530 -15
0 0 0
87 -499 -6
0 0 0
0 0 0
118 -530 -10
0 0 0
86 -494 -2
0 0 0
0 0 0
119 -534 -6
0 0 0
0 0 0
0 0 0
0 0 0
118 -530 -3
0 0 0
0 0 0
0 0 0
0 0 0
0 0 0
0 0 0
0 0 0
0 0 0
0 0 0
0 0 0
0 0 0
0 0 0
0 0 0
0 0 0
0 0 0
0 0 0
0 0 0
0 0 0
0 0 0
0 0 0
0 0 0
0 0 0
0 0 0
0 0 0
0 0 0
0 0 0
0 0 0
0 0 0
0 0 0
0 0 0
0 0 0
0 0 0
0 0 0
0 0 0
0 0 0
0 0 0
0 0 0
0 0 0
0 0 0
0 0 0
0 0 0
0 0 0
0 0 0
0 0 0
0 0 0
0 0 0
0 0 0
0 0 0
90 -135 0
0 0 0
0 0 0
0 0 0
0 0 0
90 -135 0
0 0 0
0 0 0
95 -130 0
0 0 0
92 -136 -1
0 0 0
0 0 0
99 -135 0
0 0 0
88 -130 -2
0 0 0
0 0 0
101 -136 -1
0 0 0
0 0 0
88 -109 0
0 0 0
101 -135 -2
326 -370 4
0 0 0
0 0 0
0 0 0
0 0 0
325 -365 0
0 0 0
0 0 0
336 -348 5
0 0 0
310 -344 -3
0 0 0
1488 -1473 28
326 -334 1
0 0 0
313 -344 -8
1550 -1467 32
0 0 0
324 -327 -3
0 0 0
1585 -1432 36
350 -327 2
0 0 0
328 -328 -9
1621 -1400 39
1595 -1424 11
346 -319 -2
0 0 0
1664 -1373 43
1639 -1397 13
0 0 0
343 -312 -9
1700 -1340 46
1677 -1365 15
362 -304 -2
0 0 0
1734 -1306 50
1710 -1328 17
1689 -1353 -11
368 -304 -10
0 0 0
0 0 0
1726 -1317 -11
0 0 0
700 -479 22
701 -495 8
0 0 0
386 -289 -10
706 -461 23
707 -475 9
708 -489 -3
0 0 0
729 -453 25
732 -468 9
716 -471 -3
400 -271 -11
766 -453 27
755 -459 10
737 -461 -3
0 0 0
786 -441 29
788 -454 12
760 -451 -3
417 -254 -11
819 -436 31
812 -444 13
781 -439 -3
0 0 0
835 -421 32
845 -437 14
2017 -1072 -7
420 -229 -11
2104 -1003 85
2092 -1024 36
2057 -1033 -6
0 0 0
2143 -964 89
2123 -979 39
2108 -998 -6
432 -210 -12
0 0 0
2165 -939 41
2149 -957 -5
0 0 0
818 -325 35
0 0 0
2191 -916 -5
442 -189 -12
814 -303 36
823 -314 16
0 0 0
0 0 0
806 -280 36
821 -291 17
458 -167 0
456 -169 -12
