ply
format ascii 1.0
element vertex 1920
property float x
property float y
property float z
end_header
1899 1419 4
1963 1540 -45
1924 1578 -97
1889 1624 -152
1966 1538 1
1921 1578 -46
1891 1625 -98
1856 1673 -151
1925 1576 -2
1886 1623 -48
1849 1664 -98
1816 1718 -150
1895 1623 -5
1849 1666 -50
1811 1709 -98
1776 1763 -148
1856 1665 -8
1808 1707 -52
1776 1757 -99
1734 1805 -147
1818 1706 -12
1775 1754 -54
1740 1803 -99
1623 1772 -140
1782 1750 -15
1736 1796 -56
1704 1850 -100
1564 1791 -137
1749 1796 -19
1702 1843 -58
1668 1896 -100
1555 1865 -138
1714 1839 -22
1668 1890 -60
1624 1935 -101
1570 1978 -142
1676 1881 -26
1626 1928 -62
1585 1980 -101
1537 2034 -142
1635 1920 -30
1586 1974 -64
1546 2028 -102
1366 1902 -129
1594 1961 -34
1550 2021 -66
1497 2062 -103
1308 1914 -126
1561 2013 -38
1511 2066 -69
1334 1929 -95
1268 1953 -125
1519 2053 -42
1385 1989 -67
1290 1962 -95
1229 1995 -125
1485 2101 -46
1310 1973 -67
1238 1979 -95
1175 2010 -122
1337 1987 -46
1251 1981 -68
1191 2007 -95
1171 2116 -125
1272 1985 -49
1210 2018 -71
1153 2050 -96
1119 2141 -124
1224 2010 -53
1158 2037 -72
1139 2142 -99
1073 2176 -123
1180 2041 -57
1120 2081 -75
1094 2179 -100
1040 2241 -123
1135 2071 -61
1096 2152 -79
1069 2258 -103
1025 2352 -126
1106 2131 -65
1078 2242 -83
1038 2328 -105
999 2445 -128
1082 2205 -71
1051 2321 -87
1008 2410 -108
1011 2649 -136
1068 2307 -77
1015 2385 -91
1029 2631 -118
962 2712 -136
1031 2366 -83
1038 2608 -101
981 2695 -120
910 2772 -136
1058 2592 -95
995 2676 -105
928 2745 -121
854 2826 -136
1015 2657 -101
942 2725 -109
880 2815 -124
801 2892 -136
964 2709 -107
893 2788 -113
823 2867 -126
745 2954 -136
913 2763 -113
840 2845 -117
768 2929 -128
688 3026 -136
862 2821 -119
785 2904 -121
713 2999 -131
629 3097 -137
808 2883 -126
732 2976 -126
654 3067 -133
562 3140 -136
754 2946 -133
673 3040 -131
594 3141 -136
475 3066 -130
697 3009 -140
614 3109 -136
511 3092 -134
393 2996 -124
639 3081 -148
548 3154 -140
427 3020 -131
315 2931 -119
577 3145 -156
462 3083 -139
348 2952 -128
241 2871 -115
490 3067 -157
379 2997 -138
273 2893 -125
171 2816 -110
366 2683 -141
297 2900 -136
200 2834 -123
102 2756 -106
299 2657 -144
226 2864 -136
132 2773 -121
37 2698 -102
233 2610 -145
157 2805 -136
66 2721 -119
-24 2649 -98
169 2574 -147
90 2754 -136
3 2662 -116
-85 2601 -95
113 2651 -156
26 2697 -135
-57 2617 -115
-142 2557 -92
50 2612 -158
-35 2644 -135
-115 2565 -113
-197 2505 -88
-9 2615 -163
-94 2597 -135
-172 2523 -112
-251 2462 -85
-68 2584 -165
-152 2549 -135
-226 2479 -110
-304 2424 -83
-127 2539 -166
-207 2503 -135
-279 2431 -109
-353 2375 -80
-183 2497 -168
-262 2462 -135
-329 2379 -107
-409 2367 -78
-237 2452 -169
-314 2418 -135
-380 2343 -106
-461 2348 -77
-284 2362 -168
-364 2371 -135
-440 2364 -108
-511 2315 -74
-301 2088 -152
-422 2380 -138
-487 2319 -107
-554 2261 -72
-344 2045 -153
-471 2338 -138
-533 2273 -105
-599 2224 -69
-387 2016 -154
-512 2267 -137
-579 2238 -105
-644 2188 -67
-431 1990 -156
-539 2152 -132
-624 2197 -104
-686 2148 -65
-469 1941 -157
-583 2116 -133
-669 2164 -103
-727 2108 -63
-518 1944 -161
-621 2065 -132
-709 2121 -102
-771 2078 -62
0 0 0
-665 2038 -133
-754 2091 -102
-832 2095 -62
0 0 0
-740 2098 -140
-800 2067 -102
-926 2184 -64
0 0 0
-782 2066 -141
-901 2176 -109
-2154 4774 -138
0 0 0
-867 2138 -149
-2113 4789 -244
0 0 0
0 0 0
-943 2177 -155
0 0 0
-2871 5655 -161
0 0 0
0 0 0
-2809 5642 -295
-3088 5755 -163
0 0 0
0 0 0
0 0 0
-3880 6848 -193
0 0 0
-3042 5855 -449
0 0 0
-4477 7498 -210
0 0 0
-3526 6417 -504
-4272 7269 -400
-5381 8564 -238
0 0 0
-4178 7196 -579
-5123 8273 -463
-5542 8387 -232
0 0 0
-5050 8249 -680
-5494 8427 -480
-6490 9352 -258
0 0 0
-5475 8490 -718
-6501 9487 -551
-2189 3005 -83
0 0 0
0 0 0
-2168 3013 -178
-2249 2945 -81
0 0 0
0 0 0
-2234 2957 -179
0 0 0
0 0 0
0 0 0
-845 1066 -65
0 0 0
0 0 0
-851 1082 -102
0 0 0
0 0 0
0 0 0
0 0 0
0 0 0
0 0 0
0 0 0
0 0 0
0 0 0
0 0 0
0 0 0
0 0 0
0 0 0
0 0 0
0 0 0
0 0 0
0 0 0
0 0 0
0 0 0
0 0 0
0 0 0
0 0 0
0 0 0
0 0 0
0 0 0
0 0 0
0 0 0
0 0 0
0 0 0
0 0 0
0 0 0
0 0 0
0 0 0
0 0 0
0 0 0
0 0 0
0 0 0
0 0 0
0 0 0
0 0 0
0 0 0
0 0 0
0 0 0
0 0 0
0 0 0
0 0 0
0 0 0
0 0 0
0 0 0
0 0 0
0 0 0
0 0 0
0 0 0
0 0 0
0 0 0
0 0 0
0 0 0
0 0 0
0 0 0
0 0 0
0 0 0
0 0 0
0 0 0
0 0 0
0 0 0
0 0 0
0 0 0
0 0 0
0 0 0
0 0 0
0 0 0
0 0 0
0 0 0
0 0 0
0 0 0
0 0 0
0 0 0
0 0 0
0 0 0
0 0 0
0 0 0
0 0 0
0 0 0
0 0 0
0 0 0
0 0 0
0 0 0
0 0 0
0 0 0
0 0 0
0 0 0
0 0 0
0 0 0
0 0 0
0 0 0
0 0 0
0 0 0
0 0 0
0 0 0
0 0 0
0 0 0
0 0 0
0 0 0
0 0 0
0 0 0
0 0 0
0 0 0
0 0 0
0 0 0
0 0 0
0 0 0
0 0 0
0 0 0
0 0 0
0 0 0
0 0 0
0 0 0
0 0 0
0 0 0
0 0 0
0 0 0
0 0 0
0 0 0
0 0 0
0 0 0
0 0 0
0 0 0
0 0 0
0 0 0
0 0 0
0 0 0
0 0 0
0 0 0
0 0 0
0 0 0
0 0 0
0 0 0
0 0 0
0 0 0
0 0 0
0 0 0
0 0 0
0 0 0
0 0 0
0 0 0
0 0 0
0 0 0
0 0 0
0 0 0
0 0 0
0 0 0
0 0 0
0 0 0
0 0 0
0 0 0
0 0 0
0 0 0
0 0 0
0 0 0
0 0 0
0 0 0
0 0 0
0 0 0
0 0 0
0 0 0
0 0 0
0 0 0
0 0 0
0 0 0
0 0 0
0 0 0
0 0 0
0 0 0
0 0 0
0 0 0
0 0 0
0 0 0
0 0 0
0 0 0
0 0 0
0 0 0
0 0 0
0 0 0
0 0 0
0 0 0
0 0 0
0 0 0
0 0 0
0 0 0
0 0 0
0 0 0
0 0 0
0 0 0
0 0 0
0 0 0
0 0 0
0 0 0
0 0 0
0 0 0
0 0 0
0 0 0
0 0 0
0 0 0
0 0 0
0 0 0
0 0 0
0 0 0
0 0 0
0 0 0
0 0 0
0 0 0
0 0 0
0 0 0
0 0 0
0 0 0
0 0 0
0 0 0
0 0 0
0 0 0
0 0 0
0 0 0
0 0 0
0 0 0
0 0 0
0 0 0
0 0 0
0 0 0
0 0 0
0 0 0
0 0 0
0 0 0
0 0 0
0 0 0
0 0 0
0 0 0
0 0 0
0 0 0
0 0 0
0 0 0
0 0 0
0 0 0
0 0 0
0 0 0
0 0 0
0 0 0
0 0 0
0 0 0
0 0 0
0 0 0
0 0 0
0 0 0
0 0 0
0 0 0
0 0 0
0 0 0
0 0 0
0 0 0
0 0 0
0 0 0
0 0 0
0 0 0
0 0 0
0 0 0
0 0 0
0 0 0
0 0 0
0 0 0
0 0 0
0 0 0
0 0 0
0 0 0
0 0 0
0 0 0
0 0 0
0 0 0
0 0 0
0 0 0
0 0 0
0 0 0
0 0 0
0 0 0
0 0 0
0 0 0
0 0 0
0 0 0
0 0 0
0 0 0
0 0 0
0 0 0
0 0 0
0 0 0
0 0 0
0 0 0
0 0 0
0 0 0
0 0 0
0 0 0
0 0 0
0 0 0
0 0 0
0 0 0
0 0 0
0 0 0
0 0 0
0 0 0
0 0 0
0 0 0
0 0 0
0 0 0
0 0 0
0 0 0
0 0 0
0 0 0
0 0 0
0 0 0
0 0 0
0 0 0
0 0 0
0 0 0
0 0 0
0 0 0
0 0 0
0 0 0
0 0 0
0 0 0
0 0 0
0 0 0
0 0 0
0 0 0
0 0 0
0 0 0
0 0 0
0 0 0
0 0 0
0 0 0
0 0 0
0 0 0
0 0 0
0 0 0
0 0 0
0 0 0
0 0 0
0 0 0
0 0 0
0 0 0
0 0 0
0 0 0
0 0 0
0 0 0
0 0 0
0 0 0
0 0 0
0 0 0
0 0 0
0 0 0
0 0 0
0 0 0
0 0 0
0 0 0
0 0 0
0 0 0
0 0 0
0 0 0
0 0 0
0 0 0
0 0 0
0 0 0
0 0 0
0 0 0
0 0 0
0 0 0
0 0 0
0 0 0
0 0 0
0 0 0
0 0 0
0 0 0
0 0 0
0 0 0
0 0 0
0 0 0
0 0 0
0 0 0
0 0 0
0 0 0
0 0 0
0 0 0
0 0 0
0 0 0
0 0 0
0 0 0
0 0 0
0 0 0
0 0 0
0 0 0
0 0 0
0 0 0
0 0 0
0 0 0
0 0 0
0 0 0
0 0 0
0 0 0
0 0 0
0 0 0
0 0 0
0 0 0
0 0 0
0 0 0
0 0 0
0 0 0
0 0 0
0 0 0
0 0 0
0 0 0
0 0 0
0 0 0
0 0 0
0 0 0
0 0 0
0 0 0
0 0 0
0 0 0
0 0 0
0 0 0
0 0 0
0 0 0
0 0 0
0 0 0
0 0 0
0 0 0
0 0 0
0 0 0
0 0 0
0 0 0
0 0 0
0 0 0
0 0 0
0 0 0
0 0 0
0 0 0
0 0 0
0 0 0
0 0 0
0 0 0
0 0 0
0 0 0
0 0 0
0 0 0
0 0 0
0 0 0
0 0 0
0 0 0
0 0 0
0 0 0
0 0 0
0 0 0
0 0 0
0 0 0
0 0 0
0 0 0
0 0 0
0 0 0
0 0 0
0 0 0
0 0 0
0 0 0
0 0 0
0 0 0
0 0 0
0 0 0
0 0 0
0 0 0
0 0 0
0 0 0
0 0 0
0 0 0
0 0 0
0 0 0
0 0 0
0 0 0
0 0 0
0 0 0
0 0 0
0 0 0
0 0 0
0 0 0
0 0 0
0 0 0
0 0 0
0 0 0
0 0 0
0 0 0
0 0 0
0 0 0
0 0 0
0 0 0
0 0 0
0 0 0
0 0 0
0 0 0
0 0 0
0 0 0
0 0 0
0 0 0
0 0 0
0 0 0
0 0 0
0 0 0
0 0 0
0 0 0
0 0 0
0 0 0
0 0 0
0 0 0
0 0 0
0 0 0
0 0 0
0 0 0
0 0 0
0 0 0
0 0 0
0 0 0
0 0 0
0 0 0
0 0 0
0 0 0
0 0 0
0 0 0
0 0 0
0 0 0
0 0 0
0 0 0
0 0 0
0 0 0
0 0 0
0 0 0
0 0 0
0 0 0
0 0 0
0 0 0
0 0 0
0 0 0
0 0 0
0 0 0
0 0 0
0 0 0
0 0 0
0 0 0
0 0 0
0 0 0
0 0 0
0 0 0
0 0 0
0 0 0
0 0 0
0 0 0
0 0 0
0 0 0
0 0 0
0 0 0
0 0 0
0 0 0
0 0 0
0 0 0
0 0 0
0 0 0
0 0 0
0 0 0
0 0 0
0 0 0
0 0 0
0 0 0
0 0 0
0 0 0
0 0 0
0 0 0
0 0 0
0 0 0
0 0 0
0 0 0
0 0 0
0 0 0
0 0 0
0 0 0
0 0 0
0 0 0
0 0 0
0 0 0
0 0 0
0 0 0
0 0 0
0 0 0
0 0 0
0 0 0
0 0 0
0 0 0
0 0 0
0 0 0
0 0 0
0 0 0
0 0 0
2000 -1078 -23
0 0 0
0 0 0
0 0 0
2044 -1043 -21
0 0 0
0 0 0
0 0 0
2091 -1008 -20
0 0 0
0 0 0
0 0 0
2126 -967 -19
0 0 0
0 0 0
0 0 0
0 0 0
0 0 0
0 0 0
0 0 0
0 0 0
0 0 0
0 0 0
0 0 0
0 0 0
0 0 0
0 0 0
0 0 0
0 0 0
0 0 0
0 0 0
0 0 0
0 0 0
0 0 0
0 0 0
0 0 0
0 0 0
0 0 0
0 0 0
0 0 0
0 0 0
0 0 0
0 0 0
0 0 0
0 0 0
0 0 0
0 0 0
0 0 0
0 0 0
0 0 0
0 0 0
0 0 0
0 0 0
0 0 0
0 0 0
0 0 0
0 0 0
0 0 0
0 0 0
0 0 0
0 0 0
0 0 0
0 0 0
0 0 0
0 0 0
0 0 0
0 0 0
0 0 0
0 0 0
0 0 0
0 0 0
0 0 0
0 0 0
0 0 0
0 0 0
0 0 0
0 0 0
0 0 0
0 0 0
0 0 0
0 0 0
0 0 0
0 0 0
0 0 0
0 0 0
0 0 0
0 0 0
0 0 0
0 0 0
0 0 0
0 0 0
0 0 0
0 0 0
0 0 0
0 0 0
0 0 0
0 0 0
0 0 0
0 0 0
0 0 0
0 0 0
0 0 0
0 0 0
0 0 0
0 0 0
0 0 0
0 0 0
0 0 0
0 0 0
0 0 0
0 0 0
0 0 0
0 0 0
0 0 0
0 0 0
0 0 0
0 0 0
0 0 0
0 0 0
2162 395 -237
0 0 0
0 0 0
2136 420 -153
2132 442 -234
0 0 0
2123 448 -80
2101 464 -151
2093 487 -230
2097 467 -9
2085 490 -79
2069 508 -149
2049 529 -226
2074 511 -9
2054 533 -79
2033 551 -148
2022 574 -224
2038 550 -10
2023 574 -78
2008 594 -147
1983 614 -221
2000 588 -11
1989 614 -78
1964 631 -144
1952 657 -218
1972 628 -12
1962 655 -78
1934 672 -143
1916 696 -215
1944 667 -12
1921 690 -77
1906 712 -142
1882 735 -213
1912 704 -13
1890 729 -77
1864 748 -140
1850 775 -210
1885 743 -14
1854 764 -77
1834 786 -139
1808 809 -207
1844 774 -15
1819 799 -76
0 0 0
0 0 0
1809 807 -16
0 0 0
0 0 0
0 0 0
0 0 0
0 0 0
2257 1159 -177
2152 1153 -252
0 0 0
2257 1180 -100
2079 1130 -164
1839 1043 -217
2253 1191 -26
2081 1149 -94
2053 1178 -164
1839 1103 -219
2101 1173 -26
2068 1206 -95
2027 1229 -164
1741 1102 -209
2091 1230 -28
2049 1258 -96
2006 1280 -165
1731 1154 -210
2072 1282 -30
2023 1307 -97
1968 1321 -164
1756 1231 -216
2045 1328 -32
1983 1345 -98
1927 1360 -163
1864 1374 -232
2006 1367 -34
1931 1375 -97
1869 1385 -161
1971 1526 -248
1951 1395 -35
1875 1401 -97
1963 1527 -172
1934 1573 -246
1885 1413 -37
1959 1537 -104
1927 1574 -172
1896 1620 -245
1960 1540 -41
1920 1578 -105
1890 1619 -171
1857 1664 -243
1925 1584 -43
1883 1622 -106
1855 1665 -172
1816 1708 -242
1887 1624 -46
1853 1669 -107
1818 1708 -172
1781 1754 -241
1854 1669 -48
1814 1710 -109
1781 1754 -172
1592 1645 -219
1815 1709 -51
1776 1754 -110
1742 1798 -172
1564 1695 -219
1779 1752 -53
1742 1801 -111
1574 1702 -159
1497 1701 -214
1745 1800 -56
1702 1843 -113
1506 1709 -156
1468 1754 -214
1707 1842 -59
1664 1888 -114
1509 1795 -160
1425 1787 -212
1668 1884 -62
1623 1929 -116
1470 1834 -161
1398 1837 -213
1630 1923 -65
1591 1978 -118
1493 1950 -168
1362 1880 -212
1589 1963 -68
1552 2023 -120
1380 1893 -160
1319 1915 -211
1558 2016 -71
1506 2059 -121
1322 1904 -158
1340 2047 -220
1518 2059 -74
1330 1909 -111
1285 1950 -159
1241 2002 -210
1437 2048 -76
1292 1952 -113
1237 1975 -158
1184 2015 -206
1316 1970 -75
1241 1971 -114
1195 2012 -159
1130 2030 -203
1256 1974 -77
1200 2002 -116
1152 2042 -159
1088 2063 -202
1219 2012 -80
1169 2057 -119
1109 2076 -160
1049 2111 -203
1170 2034 -83
1150 2136 -123
1071 2124 -161
1034 2208 -207
1130 2072 -86
1095 2151 -124
1040 2188 -164
939 2136 -197
1105 2145 -91
1052 2196 -127
1016 2277 -169
909 2212 -199
1085 2227 -97
1024 2268 -131
981 2343 -171
882 2298 -203
1059 2307 -103
1003 2368 -137
975 2490 -180
934 2608 -226
1021 2359 -108
1003 2520 -146
985 2692 -193
917 2763 -236
1055 2599 -121
995 2677 -156
931 2740 -195
862 2820 -236
1010 2661 -127
944 2730 -159
882 2808 -198
807 2876 -237
958 2711 -132
893 2790 -163
825 2864 -200
672 2641 -213
907 2773 -139
837 2847 -167
769 2924 -203
590 2570 -204
857 2837 -145
784 2914 -172
690 2897 -200
523 2550 -199
800 2890 -151
729 2968 -177
566 2638 -181
461 2534 -195
748 2952 -158
656 2968 -178
499 2616 -178
399 2528 -191
688 3002 -164
610 3095 -187
434 2610 -177
340 2537 -189
632 3085 -172
466 2695 -164
372 2603 -176
277 2516 -185
564 3123 -178
393 2645 -162
306 2584 -174
214 2495 -181
446 2849 -166
329 2631 -162
243 2566 -172
155 2472 -176
353 2655 -158
263 2595 -161
179 2509 -168
96 2458 -173
288 2624 -160
200 2561 -161
119 2489 -166
39 2448 -170
223 2588 -161
139 2519 -160
61 2472 -164
-18 2571 -176
159 2530 -161
80 2522 -161
4 2606 -173
-79 2587 -175
99 2515 -164
22 2564 -166
-56 2608 -173
-136 2546 -170
41 2478 -165
-38 2611 -171
-114 2557 -170
-193 2504 -165
-16 2567 -175
-94 2574 -170
-168 2515 -167
-249 2505 -164
-73 2575 -180
-151 2523 -169
-224 2487 -165
-303 2471 -160
-131 2528 -180
-206 2478 -168
-278 2446 -163
-352 2402 -153
-187 2486 -181
-260 2441 -168
-334 2435 -163
-404 2373 -150
-242 2451 -183
-310 2382 -166
-386 2399 -161
-456 2349 -147
-260 2121 -162
-361 2345 -165
-437 2354 -158
-503 2301 -143
-305 2073 -162
-424 2375 -170
-468 2233 -151
-549 2259 -139
-349 2042 -163
-429 2115 -154
-510 2180 -148
-595 2221 -135
-392 2009 -164
-473 2085 -154
-548 2118 -144
-638 2180 -132
-433 1970 -165
-521 2070 -155
-591 2085 -143
-683 2150 -129
-473 1934 -166
-569 2057 -157
-634 2053 -141
-724 2109 -125
-521 1931 -170
-616 2038 -158
-687 2055 -143
-767 2077 -123
0 0 0
-663 2022 -159
-753 2089 -146
-831 2100 -123
0 0 0
-741 2096 -168
-803 2076 -146
-925 2187 -128
0 0 0
0 0 0
-899 2174 -155
-2148 4771 -278
0 0 0
0 0 0
0 0 0
0 0 0
0 0 0
0 0 0
0 0 0
0 0 0
0 0 0
0 0 0
-2735 5493 -403
0 0 0
0 0 0
0 0 0
-3156 5985 -445
0 0 0
0 0 0
0 0 0
-3654 6557 -493
-4436 7438 -425
0 0 0
0 0 0
-4269 7257 -553
-5335 8499 -485
0 0 0
0 0 0
-5119 8258 -638
-5539 8388 -478
0 0 0
0 0 0
-5492 8419 -660
-6514 9391 -536
0 0 0
0 0 0
-6470 9431 -750
-2184 3001 -171
0 0 0
0 0 0
-2170 3012 -243
-2244 2939 -168
0 0 0
0 0 0
-2237 2956 -243
0 0 0
0 0 0
0 0 0
0 0 0
0 0 0
0 0 0
0 0 0
0 0 0
0 0 0
0 0 0
0 0 0
0 0 0
0 0 0
0 0 0
0 0 0
0 0 0
0 0 0
0 0 0
0 0 0
0 0 0
0 0 0
0 0 0
0 0 0
0 0 0
0 0 0
0 0 0
0 0 0
0 0 0
0 0 0
0 0 0
0 0 0
0 0 0
0 0 0
0 0 0
0 0 0
0 0 0
0 0 0
0 0 0
0 0 0
0 0 0
0 0 0
0 0 0
0 0 0
0 0 0
0 0 0
0 0 0
0 0 0
0 0 0
0 0 0
0 0 0
0 0 0
0 0 0
0 0 0
0 0 0
0 0 0
0 0 0
0 0 0
0 0 0
0 0 0
0 0 0
0 0 0
0 0 0
0 0 0
0 0 0
0 0 0
0 0 0
0 0 0
0 0 0
0 0 0
0 0 0
0 0 0
0 0 0
0 0 0
0 0 0
0 0 0
0 0 0
0 0 0
0 0 0
0 0 0
0 0 0
0 0 0
0 0 0
0 0 0
0 0 0
0 0 0
0 0 0
0 0 0
0 0 0
0 0 0
0 0 0
0 0 0
0 0 0
0 0 0
0 0 0
0 0 0
0 0 0
0 0 0
0 0 0
0 0 0
0 0 0
0 0 0
0 0 0
0 0 0
0 0 0
0 0 0
0 0 0
0 0 0
0 0 0
0 0 0
0 0 0
0 0 0
0 0 0
0 0 0
0 0 0
0 0 0
0 0 0
0 0 0
0 0 0
0 0 0
0 0 0
0 0 0
0 0 0
0 0 0
0 0 0
0 0 0
0 0 0
0 0 0
0 0 0
0 0 0
0 0 0
0 0 0
0 0 0
0 0 0
0 0 0
0 0 0
0 0 0
0 0 0
0 0 0
0 0 0
0 0 0
0 0 0
0 0 0
0 0 0
0 0 0
0 0 0
0 0 0
0 0 0
0 0 0
0 0 0
0 0 0
0 0 0
0 0 0
0 0 0
0 0 0
0 0 0
0 0 0
0 0 0
0 0 0
0 0 0
0 0 0
0 0 0
0 0 0
0 0 0
0 0 0
0 0 0
0 0 0
0 0 0
0 0 0
0 0 0
0 0 0
0 0 0
0 0 0
0 0 0
0 0 0
0 0 0
0 0 0
0 0 0
0 0 0
0 0 0
0 0 0
0 0 0
0 0 0
0 0 0
0 0 0
0 0 0
0 0 0
0 0 0
0 0 0
0 0 0
0 0 0
0 0 0
0 0 0
0 0 0
0 0 0
0 0 0
0 0 0
0 0 0
0 0 0
0 0 0
0 0 0
0 0 0
0 0 0
0 0 0
0 0 0
0 0 0
0 0 0
0 0 0
0 0 0
0 0 0
0 0 0
0 0 0
0 0 0
0 0 0
0 0 0
0 0 0
0 0 0
0 0 0
0 0 0
0 0 0
0 0 0
0 0 0
0 0 0
0 0 0
0 0 0
0 0 0
0 0 0
0 0 0
0 0 0
0 0 0
0 0 0
0 0 0
0 0 0
0 0 0
0 0 0
0 0 0
0 0 0
0 0 0
0 0 0
0 0 0
0 0 0
0 0 0
0 0 0
0 0 0
0 0 0
0 0 0
0 0 0
0 0 0
0 0 0
0 0 0
0 0 0
0 0 0
0 0 0
0 0 0
0 0 0
0 0 0
0 0 0
0 0 0
0 0 0
0 0 0
0 0 0
0 0 0
0 0 0
0 0 0
0 0 0
0 0 0
0 0 0
0 0 0
0 0 0
0 0 0
0 0 0
0 0 0
0 0 0
0 0 0
0 0 0
0 0 0
0 0 0
0 0 0
0 0 0
0 0 0
0 0 0
0 0 0
0 0 0
0 0 0
0 0 0
0 0 0
0 0 0
0 0 0
0 0 0
0 0 0
0 0 0
0 0 0
0 0 0
0 0 0
0 0 0
0 0 0
0 0 0
0 0 0
0 0 0
0 0 0
0 0 0
0 0 0
0 0 0
0 0 0
0 0 0
0 0 0
0 0 0
0 0 0
0 0 0
0 0 0
0 0 0
0 0 0
0 0 0
0 0 0
0 0 0
0 0 0
0 0 0
0 0 0
0 0 0
0 0 0
0 0 0
0 0 0
0 0 0
0 0 0
0 0 0
0 0 0
0 0 0
0 0 0
0 0 0
0 0 0
0 0 0
0 0 0
0 0 0
0 0 0
0 0 0
0 0 0
0 0 0
0 0 0
0 0 0
0 0 0
0 0 0
0 0 0
0 0 0
0 0 0
0 0 0
0 0 0
0 0 0
0 0 0
0 0 0
0 0 0
0 0 0
0 0 0
0 0 0
0 0 0
0 0 0
0 0 0
0 0 0
0 0 0
0 0 0
0 0 0
0 0 0
0 0 0
0 0 0
0 0 0
0 0 0
0 0 0
0 0 0
0 0 0
0 0 0
0 0 0
0 0 0
0 0 0
0 0 0
0 0 0
0 0 0
0 0 0
0 0 0
0 0 0
0 0 0
0 0 0
0 0 0
0 0 0
0 0 0
0 0 0
0 0 0
0 0 0
0 0 0
0 0 0
0 0 0
0 0 0
0 0 0
0 0 0
0 0 0
0 0 0
0 0 0
0 0 0
0 0 0
0 0 0
0 0 0
0 0 0
0 0 0
0 0 0
0 0 0
0 0 0
0 0 0
0 0 0
0 0 0
0 0 0
0 0 0
0 0 0
0 0 0
0 0 0
0 0 0
0 0 0
0 0 0
0 0 0
0 0 0
0 0 0
0 0 0
0 0 0
0 0 0
0 0 0
0 0 0
0 0 0
0 0 0
0 0 0
0 0 0
0 0 0
0 0 0
0 0 0
0 0 0
0 0 0
0 0 0
0 0 0
0 0 0
0 0 0
0 0 0
0 0 0
0 0 0
0 0 0
0 0 0
0 0 0
0 0 0
0 0 0
0 0 0
0 0 0
0 0 0
0 0 0
0 0 0
0 0 0
0 0 0
0 0 0
0 0 0
0 0 0
0 0 0
0 0 0
0 0 0
0 0 0
0 0 0
0 0 0
0 0 0
0 0 0
0 0 0
0 0 0
0 0 0
0 0 0
0 0 0
0 0 0
0 0 0
0 0 0
0 0 0
0 0 0
0 0 0
0 0 0
0 0 0
0 0 0
0 0 0
0 0 0
0 0 0
0 0 0
0 0 0
0 0 0
0 0 0
0 0 0
0 0 0
0 0 0
0 0 0
0 0 0
0 0 0
0 0 0
0 0 0
0 0 0
0 0 0
0 0 0
0 0 0
0 0 0
0 0 0
0 0 0
0 0 0
0 0 0
0 0 0
0 0 0
0 0 0
0 0 0
0 0 0
0 0 0
0 0 0
0 0 0
0 0 0
0 0 0
0 0 0
0 0 0
0 0 0
0 0 0
0 0 0
0 0 0
0 0 0
0 0 0
0 0 0
0 0 0
0 0 0
0 0 0
0 0 0
0 0 0
0 0 0
0 0 0
0 0 0
0 0 0
0 0 0
0 0 0
0 0 0
0 0 0
0 0 0
0 0 0
0 0 0
0 0 0
0 0 0
0 0 0
0 0 0
0 0 0
0 0 0
0 0 0
0 0 0
0 0 0
0 0 0
0 0 0
0 0 0
0 0 0
0 0 0
0 0 0
0 0 0
0 0 0
0 0 0
0 0 0
0 0 0
0 0 0
0 0 0
0 0 0
0 0 0
0 0 0
0 0 0
0 0 0
0 0 0
0 0 0
0 0 0
0 0 0
0 0 0
0 0 0
0 0 0
0 0 0
0 0 0
0 0 0
0 0 0
0 0 0
