ply
format ascii 1.0
element vertex 2400
property float x
property float y
property float z
end_header
2070 48 1810
2218 161 1807
2373 270 1811
2527 393 1805
2074 92 1811
2218 210 1808
2367 323 1810
2514 451 1802
2072 136 1808
2217 258 1809
2359 376 1810
2502 509 1802
2077 180 1811
2215 307 1810
2351 429 1809
2490 566 1802
2081 225 1815
2205 355 1806
2343 482 1809
2476 624 1802
2075 269 1810
2207 405 1811
2334 535 1810
2461 681 1802
2074 313 1811
2201 453 1811
2320 587 1808
2445 737 1802
2071 358 1809
2192 501 1810
2310 640 1809
2427 793 1802
2074 404 1815
2185 550 1811
2294 691 1807
2406 848 1801
2066 449 1812
2172 598 1809
2278 742 1806
2388 903 1803
2061 494 1812
2158 645 1805
2262 794 1806
2368 958 1804
2054 539 1810
2153 695 1810
2246 845 1806
2339 1010 1800
2049 585 1812
2140 744 1809
2227 895 1805
2315 1063 1800
2038 630 1809
2123 790 1806
2208 946 1805
2289 1115 1800
2025 674 1805
2111 839 1809
2187 996 1805
2253 1162 1793
2015 720 1805
2096 887 1809
2163 1044 1803
2225 1212 1793
2003 765 1804
2075 932 1805
2144 1094 1805
2183 1255 1783
2002 814 1812
2058 979 1805
2118 1142 1803
2146 1300 1777
1996 863 1818
2038 1027 1804
2094 1190 1804
2112 1346 1774
1975 906 1811
2018 1073 1804
2067 1237 1803
2073 1389 1769
1963 954 1813
2002 1122 1808
2040 1284 1802
2034 1431 1764
1947 999 1812
1978 1167 1805
2011 1329 1801
2001 1476 1765
1930 1044 1811
1953 1211 1804
1987 1377 1805
1967 1521 1765
1909 1088 1808
1937 1261 1811
1957 1423 1806
1925 1559 1761
1895 1137 1812
1911 1305 1809
1919 1462 1799
1895 1608 1767
1872 1181 1809
1881 1348 1805
1893 1512 1805
1858 1650 1768
1849 1224 1806
1857 1394 1807
1859 1553 1803
1820 1691 1768
1830 1271 1808
1827 1436 1806
1824 1595 1802
1785 1735 1773
1807 1316 1808
1796 1478 1803
1792 1638 1805
1746 1775 1775
1784 1360 1808
1770 1523 1807
1753 1676 1801
1711 1819 1782
1758 1404 1807
1739 1565 1806
1718 1718 1803
1675 1863 1789
1732 1448 1806
1704 1605 1803
1680 1758 1803
1635 1905 1793
1702 1490 1803
1674 1649 1806
1642 1798 1804
1596 1945 1798
1675 1535 1804
1638 1687 1804
1601 1833 1802
1554 1983 1803
1650 1582 1808
1604 1728 1804
1562 1871 1803
1507 2015 1802
1618 1622 1806
1567 1766 1804
1522 1907 1804
1459 2043 1799
1584 1662 1803
1532 1806 1805
1478 1940 1802
1417 2081 1807
1555 1708 1807
1495 1845 1806
1437 1977 1804
1365 2105 1801
1516 1745 1800
1454 1881 1803
1393 2010 1803
1315 2130 1798
1484 1790 1803
1415 1917 1803
1347 2040 1801
1268 2159 1801
1450 1832 1805
1373 1952 1802
1301 2069 1799
1217 2184 1799
1409 1867 1801
1335 1992 1806
1256 2100 1801
1167 2206 1798
1374 1910 1804
1291 2023 1804
1209 2128 1800
1121 2237 1805
1337 1951 1806
1246 2053 1801
1165 2160 1803
1070 2258 1803
1293 1984 1802
1205 2090 1804
1116 2186 1802
1015 2271 1797
1253 2023 1802
1159 2120 1803
1067 2211 1801
967 2298 1802
1208 2056 1799
1111 2147 1800
1018 2236 1801
913 2313 1799
1166 2094 1801
1068 2184 1805
968 2258 1799
861 2329 1799
1124 2135 1805
1018 2207 1801
917 2280 1798
812 2354 1805
1077 2166 1802
970 2235 1801
868 2307 1801
758 2369 1804
1027 2195 1797
922 2267 1803
817 2328 1801
703 2376 1798
981 2231 1800
871 2292 1802
764 2344 1798
651 2390 1799
932 2264 1801
822 2320 1805
713 2366 1801
598 2403 1800
883 2295 1801
771 2344 1805
660 2382 1800
545 2412 1799
833 2325 1802
720 2372 1808
606 2394 1797
492 2425 1802
782 2356 1804
666 2385 1803
555 2415 1802
439 2432 1802
729 2382 1802
614 2410 1806
501 2425 1799
386 2440 1803
676 2410 1804
559 2426 1804
447 2441 1801
332 2447 1804
621 2438 1805
504 2440 1801
393 2457 1804
279 2451 1803
565 2457 1801
451 2467 1808
339 2465 1803
225 2451 1800
509 2484 1805
394 2480 1806
284 2472 1802
172 2456 1803
452 2505 1804
338 2492 1804
229 2486 1806
118 2458 1804
394 2527 1805
282 2512 1809
173 2487 1801
65 2456 1801
336 2550 1808
224 2521 1806
117 2489 1799
12 2460 1805
275 2564 1805
166 2533 1807
62 2498 1802
-40 2457 1804
215 2579 1804
108 2543 1807
6 2500 1801
-94 2451 1803
154 2599 1807
50 2552 1808
-49 2505 1804
-146 2448 1804
92 2609 1805
-8 2555 1805
-105 2504 1802
-199 2443 1804
29 2621 1805
-67 2565 1809
-161 2504 1803
-251 2436 1803
-32 2632 1805
-127 2570 1809
-217 2501 1802
-304 2430 1805
-96 2642 1806
-186 2555 1797
-273 2492 1798
-356 2419 1803
-157 2597 1770
-242 2520 1771
-324 2454 1774
-404 2391 1790
-216 2549 1733
-296 2477 1741
-374 2413 1748
-450 2352 1768
-272 2494 1693
-347 2428 1708
-422 2374 1724
-494 2312 1746
-328 2453 1664
-399 2390 1683
-469 2334 1701
-538 2278 1730
-380 2406 1632
-448 2347 1656
-514 2290 1675
-581 2244 1714
-433 2364 1603
-495 2304 1629
-561 2263 1662
-622 2205 1695
-483 2321 1575
-544 2272 1611
-602 2213 1633
-663 2173 1682
-531 2274 1546
-588 2226 1584
-646 2181 1619
-701 2132 1662
-579 2235 1523
-632 2185 1561
-688 2145 1601
-741 2101 1651
-626 2193 1498
-676 2150 1543
-729 2110 1585
-777 2062 1633
-673 2158 1480
-720 2116 1527
-769 2075 1570
-848 2114 1689
-717 2118 1458
-760 2075 1506
-830 2094 1596
-926 2171 1750
-763 2086 1444
-821 2088 1525
-919 2174 1670
-997 2207 1796
-822 2089 1454
-911 2168 1595
-1040 2314 1794
-1044 2185 1797
-918 2176 1524
-1090 2432 1804
-1093 2294 1795
-1089 2160 1795
-1147 2543 1794
-1146 2407 1800
-1144 2269 1793
-1135 2136 1795
-1213 2524 1795
-1203 2381 1797
-1194 2242 1791
-1181 2112 1797
-1277 2500 1793
-1260 2356 1796
-1249 2224 1796
-1226 2087 1797
-1342 2476 1792
-1318 2331 1796
-1296 2191 1790
-1268 2057 1794
-1407 2452 1794
-1374 2303 1795
-1348 2167 1792
-1314 2033 1797
-1471 2424 1793
-1428 2272 1792
-1399 2141 1794
-1357 2005 1797
-1531 2391 1790
-1490 2251 1798
-1445 2107 1791
-1396 1970 1793
-1594 2361 1790
-1543 2217 1796
-1495 2077 1792
-1441 1945 1797
-1657 2328 1790
-1595 2181 1792
-1543 2046 1792
-1482 1914 1797
-1714 2289 1786
-1650 2148 1793
-857 1085 966
-852 1053 1006
-849 1078 855
-853 1058 898
-858 1038 940
-889 1052 1022
-857 1035 834
-895 1059 914
-949 1096 1010
-994 1127 1115
-960 1103 905
-1020 1151 1012
-1112 1229 1154
-1168 1269 1279
-1149 1257 1051
-1226 1321 1184
-1274 1345 1289
-1334 1389 1428
-1335 1391 1187
-1415 1454 1330
-1501 1515 1481
-1590 1587 1665
-1060 1052 917
-1017 997 932
-1642 1585 1583
-1644 1572 1685
-998 943 841
-1038 971 928
-1043 963 984
-1530 1402 1537
-1023 920 840
-1041 929 909
-1041 918 961
-1241 1090 1223
-1046 896 839
-1049 894 896
-1096 924 991
-1138 957 1100
-1032 841 809
-1010 819 844
-1002 807 888
-1006 810 955
-758 588 582
-1042 806 854
-992 763 863
-982 757 917
-696 513 523
0 0 0
0 0 0
-925 682 848
-673 472 496
-815 571 642
-680 476 571
-687 484 620
-702 467 508
-689 459 534
-706 471 583
-698 470 621
-738 465 524
-683 432 520
-654 415 532
-675 434 591
-689 411 481
-702 422 526
-639 385 511
-630 386 544
-651 367 447
-655 373 483
-663 380 523
-609 356 519
-618 329 418
-624 336 454
-635 345 494
-621 345 522
-587 294 391
-596 304 428
-604 311 464
-615 325 511
-567 267 373
-569 273 403
-574 280 436
-590 295 484
-545 241 354
-549 248 384
0 0 0
-561 266 455
-526 217 337
-526 223 363
-539 233 399
-546 245 438
-505 194 320
0 0 0
-518 210 380
0 0 0
0 0 0
-496 183 335
-505 192 367
-512 204 402
-477 157 296
0 0 0
0 0 0
0 0 0
0 0 0
-463 147 307
-480 158 342
-481 168 371
-450 124 274
0 0 0
0 0 0
-473 154 362
0 0 0
-433 115 283
-453 127 317
0 0 0
-424 96 255
0 0 0
0 0 0
-447 124 337
0 0 0
-417 90 269
-429 100 297
0 0 0
-402 70 239
0 0 0
0 0 0
-423 98 314
0 0 0
-396 66 252
-414 76 283
0 0 0
-384 48 226
0 0 0
0 0 0
-401 75 294
0 0 0
-376 45 237
-397 55 268
0 0 0
-358 27 210
0 0 0
0 0 0
-389 55 282
0 0 0
-366 27 230
-380 35 254
0 0 0
-345 10 201
0 0 0
0 0 0
-372 36 267
0 0 0
-345 9 215
-368 17 245
0 0 0
-335 -6 195
0 0 0
0 0 0
-355 19 254
0 0 0
-333 -6 207
-353 1 234
0 0 0
-323 -21 188
0 0 0
0 0 0
-346 4 246
0 0 0
-320 -21 199
-340 -14 225
0 0 0
-315 -35 184
0 0 0
0 0 0
-331 -10 235
0 0 0
-309 -34 192
-330 -28 219
0 0 0
-295 -48 174
0 0 0
0 0 0
-319 -24 225
0 0 0
-303 -48 190
-314 -41 209
0 0 0
-282 -59 167
0 0 0
0 0 0
-307 -36 217
0 0 0
-291 -60 184
-303 -54 202
0 0 0
-272 -71 163
0 0 0
0 0 0
-298 -49 211
0 0 0
-277 -71 177
-296 -66 198
0 0 0
-263 -82 161
0 0 0
0 0 0
-288 -60 205
0 0 0
-270 -82 174
-280 -76 189
0 0 0
-255 -93 158
0 0 0
0 0 0
-281 -72 201
0 0 0
-258 -92 169
-274 -88 187
0 0 0
-246 -103 156
0 0 0
0 0 0
-263 -79 189
0 0 0
-254 -104 169
-267 -99 185
0 0 0
-233 -111 150
0 0 0
0 0 0
-259 -91 189
0 0 0
-243 -113 165
-260 -110 183
0 0 0
-224 -120 148
0 0 0
0 0 0
-255 -103 188
0 0 0
-231 -121 160
-247 -119 177
0 0 0
-218 -130 149
0 0 0
0 0 0
-244 -111 182
0 0 0
-228 -133 162
-239 -128 175
0 0 0
-212 -140 149
0 0 0
0 0 0
-236 -121 179
0 0 0
-218 -141 159
-232 -138 174
0 0 0
-205 -150 149
0 0 0
0 0 0
-230 -131 178
0 0 0
-208 -149 157
-226 -149 173
0 0 0
-196 -158 148
0 0 0
0 0 0
-221 -139 175
0 0 0
-201 -158 157
-216 -157 171
0 0 0
-187 -165 147
0 0 0
0 0 0
-215 -149 174
0 0 0
-194 -167 157
-208 -166 169
0 0 0
-182 -176 150
0 0 0
0 0 0
-203 -155 169
0 0 0
-187 -176 157
-199 -175 168
0 0 0
-173 -184 150
0 0 0
0 0 0
-196 -164 168
0 0 0
-180 -186 158
-192 -184 169
0 0 0
-165 -192 150
0 0 0
0 0 0
-190 -175 169
0 0 0
-171 -194 158
-184 -193 168
0 0 0
-157 -200 152
0 0 0
0 0 0
-181 -182 167
0 0 0
-167 -207 163
-177 -204 170
0 0 0
-151 -212 156
0 0 0
0 0 0
-174 -192 168
0 0 0
-156 -213 162
-168 -212 170
0 0 0
-144 -223 159
0 0 0
0 0 0
-168 -204 170
0 0 0
-150 -225 166
-159 -221 171
0 0 0
-135 -232 162
0 0 0
0 0 0
-158 -210 167
0 0 0
-141 -234 167
-152 -232 173
0 0 0
-127 -243 166
0 0 0
0 0 0
-149 -219 168
0 0 0
-131 -242 169
-141 -238 173
0 0 0
-119 -255 171
0 0 0
0 0 0
-142 -230 170
0 0 0
-124 -256 174
-133 -251 176
0 0 0
-110 -265 174
0 0 0
0 0 0
-133 -240 172
0 0 0
-114 -266 177
-126 -267 183
0 0 0
-100 -276 179
0 0 0
0 0 0
-126 -255 177
0 0 0
-103 -274 180
-115 -275 184
0 0 0
0 0 0
0 0 0
0 0 0
-115 -262 177
0 0 0
0 0 0
-104 -284 186
0 0 0
0 0 0
0 0 0
0 0 0
-107 -278 183
0 0 0
0 0 0
0 0 0
0 0 0
0 0 0
0 0 0
0 0 0
-92 -279 180
0 0 0
0 0 0
0 0 0
0 0 0
0 0 0
0 0 0
0 0 0
0 0 0
0 0 0
0 0 0
0 0 0
0 0 0
0 0 0
0 0 0
0 0 0
0 0 0
0 0 0
0 0 0
0 0 0
0 0 0
0 0 0
0 0 0
0 0 0
0 0 0
0 0 0
0 0 0
0 0 0
0 0 0
0 0 0
0 0 0
0 0 0
0 0 0
0 0 0
0 0 0
0 0 0
0 0 0
0 0 0
0 0 0
0 0 0
0 0 0
0 0 0
0 0 0
0 0 0
0 0 0
0 0 0
0 0 0
0 0 0
0 0 0
0 0 0
0 0 0
0 0 0
0 0 0
0 0 0
0 0 0
0 0 0
0 0 0
0 0 0
0 0 0
0 0 0
0 0 0
0 0 0
0 0 0
0 0 0
0 0 0
0 0 0
0 0 0
0 0 0
0 0 0
0 0 0
0 0 0
0 0 0
0 0 0
0 0 0
0 0 0
0 0 0
0 0 0
0 0 0
0 0 0
0 0 0
0 0 0
0 0 0
0 0 0
0 0 0
0 0 0
0 0 0
0 0 0
0 0 0
0 0 0
0 0 0
0 0 0
0 0 0
0 0 0
0 0 0
0 0 0
0 0 0
0 0 0
0 0 0
0 0 0
0 0 0
0 0 0
80 -225 154
0 0 0
0 0 0
0 0 0
0 0 0
92 -254 166
87 -254 159
0 0 0
0 0 0
0 0 0
0 0 0
0 0 0
0 0 0
0 0 0
0 0 0
0 0 0
0 0 0
0 0 0
0 0 0
0 0 0
0 0 0
0 0 0
0 0 0
0 0 0
0 0 0
0 0 0
0 0 0
0 0 0
0 0 0
0 0 0
0 0 0
0 0 0
0 0 0
0 0 0
0 0 0
0 0 0
0 0 0
0 0 0
0 0 0
0 0 0
0 0 0
0 0 0
0 0 0
0 0 0
0 0 0
0 0 0
0 0 0
0 0 0
0 0 0
0 0 0
0 0 0
0 0 0
0 0 0
0 0 0
0 0 0
0 0 0
0 0 0
0 0 0
0 0 0
0 0 0
0 0 0
0 0 0
0 0 0
0 0 0
0 0 0
0 0 0
0 0 0
0 0 0
0 0 0
0 0 0
0 0 0
0 0 0
1224 -1399 1214
1287 -1468 1201
1356 -1553 1199
0 0 0
1250 -1369 1211
1325 -1446 1206
1363 -1491 1173
1349 -1475 1088
1276 -1342 1210
1356 -1416 1205
1374 -1435 1153
1370 -1428 1075
1304 -1315 1211
1386 -1387 1205
1395 -1393 1143
1390 -1381 1063
1329 -1286 1210
1416 -1356 1204
1415 -1350 1132
1415 -1341 1055
1358 -1261 1212
1448 -1328 1207
1434 -1307 1122
1439 -1300 1048
1384 -1232 1212
1476 -1295 1205
1452 -1263 1111
1460 -1257 1039
1409 -1203 1212
1502 -1261 1203
1467 -1219 1100
1485 -1218 1034
1434 -1174 1212
1524 -1224 1198
1491 -1183 1097
1508 -1178 1028
1461 -1147 1214
1538 -1181 1188
1512 -1145 1091
1525 -1135 1020
1489 -1120 1218
1550 -1138 1177
1530 -1105 1085
1548 -1095 1016
1515 -1091 1220
1567 -1098 1171
1548 -1065 1079
1567 -1054 1010
1538 -1060 1221
1576 -1054 1159
1580 -1034 1083
1590 -1015 1007
1568 -1033 1227
1588 -1013 1151
1591 -991 1074
1916 -1160 1194
1597 -1006 1232
1636 -994 1169
1818 -1075 1209
1953 -1120 1198
1632 -981 1242
1720 -995 1212
1844 -1035 1209
1988 -1078 1202
1666 -955 1252
1744 -959 1213
1868 -994 1208
2021 -1035 1206
1696 -926 1260
1765 -921 1213
1897 -954 1211
2037 -983 1199
1732 -900 1271
1790 -885 1215
1922 -913 1213
1544 -700 898
1760 -868 1278
1809 -845 1213
1939 -867 1209
1927 -819 1107
1799 -841 1292
1836 -810 1219
1978 -830 1219
2128 -846 1209
1830 -810 1300
1872 -777 1230
1996 -786 1218
2148 -795 1208
1878 -786 1322
1921 -749 1250
2012 -739 1216
2170 -746 1209
1912 -754 1333
1956 -714 1261
2035 -696 1219
2188 -695 1209
1952 -723 1349
1999 -681 1278
2053 -651 1219
2204 -643 1208
1986 -689 1361
2037 -645 1291
2093 -611 1233
2227 -592 1210
2024 -655 1374
2077 -607 1306
2130 -569 1245
2245 -541 1212
2060 -619 1388
2121 -570 1324
2174 -529 1262
2254 -486 1209
2107 -586 1410
2170 -533 1346
2222 -487 1282
2286 -437 1219
2143 -548 1423
2212 -493 1363
2276 -445 1306
2266 -379 1203
2174 -509 1435
2238 -448 1372
2230 -384 1273
2241 -320 1184
2233 -474 1465
2214 -393 1349
2227 -332 1265
2336 -278 1230
2283 -434 1489
2242 -347 1359
2360 -296 1335
2510 -238 1316
2324 -391 1507
2361 -312 1425
2494 -255 1405
2570 -183 1345
2385 -350 1539
2465 -272 1482
2551 -203 1433
2644 -125 1380
2438 -306 1566
2525 -222 1512
2619 -149 1468
2708 -65 1412
2486 -260 1590
2585 -171 1544
2685 -92 1501
2707 -2 1410
2542 -212 1620
2649 -118 1578
2751 -32 1536
2437 55 1269
2603 -162 1653
2710 -61 1611
2826 31 1576
2404 111 1252
2663 -108 1685
2786 -1 1653
2907 98 1620
2361 165 1231
2724 -54 1719
2857 61 1693
2980 168 1661
2322 216 1213
2789 4 1756
2928 126 1733
2412 191 1345
2276 266 1191
2860 64 1797
3024 197 1789
2294 234 1280
0 0 0
2879 125 1806
3030 265 1793
0 0 0
754 124 397
2883 187 1806
2283 250 1351
763 113 428
771 145 407
2880 248 1803
0 0 0
755 129 424
752 160 399
2885 311 1805
763 118 453
765 149 431
2079 494 1109
2881 373 1802
769 136 457
795 173 449
2047 537 1098
0 0 0
755 151 450
2076 503 1178
2017 580 1089
783 135 491
804 179 480
2033 541 1160
1983 620 1079
762 149 477
2072 510 1242
2005 583 1150
1947 658 1067
2128 464 1337
2031 548 1222
1976 623 1139
1917 698 1059
2572 619 1619
2002 587 1210
1930 657 1120
1879 735 1047
2033 536 1283
1969 625 1196
1901 696 1111
1844 771 1037
2000 574 1265
1939 663 1184
1881 737 1108
1824 812 1036
1968 611 1250
1908 700 1172
1838 769 1092
0 0 0
1950 652 1243
1869 733 1155
1815 808 1087
0 0 0
1911 685 1223
1841 770 1146
0 0 0
2239 1190 1317
1883 722 1211
1813 806 1137
0 0 0
2213 1242 1318
1855 758 1200
0 0 0
2242 1187 1384
2168 1283 1309
1819 790 1183
2090 1043 1333
2212 1236 1381
2133 1330 1306
0 0 0
2235 1178 1438
2170 1278 1371
2085 1367 1296
2061 1005 1359
2207 1227 1434
2139 1326 1368
2048 1412 1293
2212 1140 1470
2175 1274 1429
2086 1359 1352
2012 1456 1291
2225 1209 1491
2136 1315 1419
2051 1404 1349
1978 1502 1292
2188 1252 1479
2102 1360 1412
2018 1449 1347
1943 1546 1292
2152 1296 1468
2066 1402 1406
1983 1492 1344
1905 1589 1291
2116 1339 1459
2028 1445 1399
1945 1534 1340
1870 1633 1293
2081 1383 1449
1991 1486 1392
1913 1580 1341
1832 1676 1293
2041 1423 1438
1958 1532 1390
1876 1623 1339
1793 1717 1294
2007 1467 1432
1924 1576 1387
1839 1665 1337
1756 1760 1296
1973 1511 1426
1873 1605 1373
1804 1708 1338
1720 1803 1300
1935 1551 1418
1850 1659 1379
1765 1749 1337
1691 1856 1310
1902 1596 1414
1817 1705 1380
1729 1793 1339
1652 1898 1314
1866 1639 1408
1778 1744 1376
1693 1836 1341
1613 1940 1318
1830 1682 1404
1743 1789 1376
1650 1874 1339
1575 1985 1324
1795 1726 1401
1706 1832 1376
1624 1930 1351
1534 2026 1329
1758 1768 1397
1670 1877 1377
1584 1970 1353
1498 2073 1338
1719 1809 1393
1634 1921 1379
1549 2017 1360
1458 2116 1346
1684 1855 1393
1592 1960 1378
1507 2058 1362
1421 2166 1357
1647 1900 1392
1553 2003 1379
1471 2107 1371
1378 2207 1364
1605 1939 1388
1517 2050 1384
1429 2150 1376
1336 2252 1373
1570 1988 1390
1477 2095 1387
1390 2197 1384
1297 2302 1386
1531 2032 1391
1434 2135 1389
1350 2243 1392
1255 2350 1399
1489 2074 1390
1398 2186 1397
1306 2286 1398
1212 2396 1411
1452 2124 1395
1352 2225 1398
1267 2339 1411
1171 2451 1428
1411 2170 1398
1313 2275 1407
1226 2390 1424
1128 2504 1444
1369 2216 1400
1272 2325 1416
1181 2438 1434
1080 2549 1457
1329 2266 1406
1230 2376 1425
1137 2487 1446
1038 2608 1477
1285 2313 1410
1186 2424 1434
1094 2544 1463
994 2666 1499
1244 2364 1418
1146 2483 1450
1050 2599 1479
943 2714 1515
1199 2414 1425
1099 2531 1459
1002 2651 1494
895 2773 1537
1156 2469 1435
1052 2584 1471
956 2711 1514
844 2831 1559
1111 2526 1446
1007 2645 1489
906 2768 1532
791 2883 1579
1062 2577 1454
959 2703 1504
854 2824 1550
740 2953 1608
1014 2635 1466
906 2755 1517
802 2887 1572
684 3016 1635
966 2696 1481
856 2820 1537
748 2948 1594
626 3074 1659
913 2752 1493
803 2880 1555
691 3010 1617
569 3149 1693
861 2814 1509
748 2944 1576
635 3081 1645
500 3165 1696
805 2873 1523
692 3012 1598
574 3146 1670
419 3093 1653
750 2943 1543
634 3082 1623
503 3156 1667
343 3034 1617
693 3013 1564
571 3142 1643
423 3100 1630
269 2966 1578
632 3083 1585
0 0 0
343 3027 1585
200 2911 1547
565 3129 1595
412 3067 1583
269 2962 1546
133 2859 1518
0 0 0
335 3019 1550
197 2902 1510
69 2806 1489
400 3040 1524
259 2957 1510
129 2848 1478
7 2744 1457
324 3008 1498
186 2890 1469
64 2789 1444
-52 2698 1433
246 2939 1454
117 2833 1435
0 2734 1414
-109 2648 1408
171 2885 1418
50 2777 1402
-59 2686 1387
-164 2604 1386
100 2824 1381
-13 2721 1369
-117 2637 1362
-218 2559 1365
31 2762 1344
-75 2670 1341
-174 2593 1339
-269 2515 1345
-33 2702 1309
-134 2626 1316
-229 2550 1317
-319 2469 1324
-96 2659 1284
-192 2576 1289
-281 2492 1289
-368 2427 1306
-157 2607 1255
-248 2531 1266
-333 2456 1272
-415 2385 1288
-216 2557 1228
-301 2478 1240
-382 2407 1250
-461 2346 1272
-271 2497 1197
-354 2435 1218
-431 2370 1233
-506 2308 1258
-328 2459 1177
-404 2390 1197
-479 2333 1218
-550 2270 1243
-381 2415 1155
-453 2344 1176
-525 2294 1202
-593 2234 1230
-433 2370 1134
-503 2311 1162
-570 2254 1186
-637 2207 1223
-485 2330 1116
-548 2264 1142
-615 2221 1174
-677 2166 1208
-533 2286 1096
-597 2235 1131
-656 2178 1157
-718 2134 1199
-582 2248 1080
-640 2190 1112
-698 2140 1144
-756 2095 1186
-629 2207 1063
-684 2153 1099
-744 2119 1139
-797 2067 1180
-675 2168 1048
-732 2130 1092
-782 2075 1124
-877 2135 1228
-721 2131 1034
-771 2084 1075
-849 2109 1151
-949 2175 1263
-768 2101 1024
-830 2092 1086
-935 2178 1197
-1409 3048 1788
-820 2084 1022
-921 2171 1135
-1466 3212 1782
-1472 3012 1784
-917 2173 1072
-1537 3400 1791
-1542 3185 1783
-1538 2982 1785
-1620 3591 1784
-1617 3366 1788
-1614 3152 1782
-1605 2952 1787
-1711 3560 1783
-1695 3325 1783
-1687 3118 1782
-1667 2915 1785
-1803 3527 1781
-1779 3296 1785
-1756 3078 1779
-1733 2884 1788
-1897 3497 1783
-1860 3261 1784
-1833 3051 1784
-1795 2846 1788
-1987 3460 1782
-1945 3231 1789
-1754 2775 1643
-1852 2801 1783
-2085 3435 1789
-2025 3191 1788
-1965 2959 1775
-1916 2766 1787
-2190 3415 1800
-2101 3146 1786
-2044 2932 1784
-1979 2728 1788
-2283 3376 1802
-2180 3103 1785
-2109 2884 1781
-2034 2680 1784
-2300 3227 1746
-2212 2997 1750
-2179 2843 1783
-853 1075 727
-2231 2974 1633
-2282 2945 1746
-861 1073 684
-862 1040 715
-854 1082 604
-851 1046 630
-879 1045 677
-946 1092 764
-864 1042 591
-927 1087 666
-988 1123 741
-1064 1176 839
-973 1116 644
-1048 1171 731
-1119 1215 817
-1290 1365 993
-1114 1216 716
-1209 1289 821
-1341 1391 955
-1088 1103 818
-1235 1283 770
-1063 1081 703
-1045 1036 726
-1052 1022 774
-1044 1033 633
-1053 1021 678
-1058 1003 718
-1025 953 738
-1044 984 617
-1029 952 647
-1026 930 681
-1024 912 723
-1030 924 594
-1030 909 633
-1038 898 674
-1042 889 721
-988 843 556
-1020 858 613
-1032 853 657
-1042 851 708
-1078 876 593
-1086 871 638
-1029 812 642
-847 661 565
0 0 0
0 0 0
0 0 0
0 0 0
-910 668 479
-892 649 504
-877 630 527
-870 621 560
-837 583 432
-834 577 463
-818 560 483
-816 556 517
-777 514 394
-764 503 416
-766 499 445
-773 502 482
-727 455 362
-722 450 386
-723 448 413
-722 448 444
-692 410 339
-687 406 362
-690 406 389
-686 405 415
-651 365 313
-653 366 338
-652 364 362
-656 368 392
-619 327 294
-619 328 317
-624 330 341
-628 335 370
-592 294 276
-595 297 300
-598 300 323
-595 301 346
-565 264 261
-568 267 282
-575 272 307
-581 278 334
-541 237 246
0 0 0
0 0 0
-557 252 316
0 0 0
-529 219 257
-538 225 280
-535 228 301
-510 194 227
0 0 0
0 0 0
0 0 0
0 0 0
-492 177 234
-501 183 255
-507 191 279
-477 155 208
0 0 0
0 0 0
0 0 0
0 0 0
-466 143 217
-476 150 238
-480 157 260
-453 123 194
0 0 0
0 0 0
0 0 0
0 0 0
-437 112 200
-455 121 224
-454 127 241
-435 96 184
0 0 0
0 0 0
0 0 0
0 0 0
-415 86 188
-433 94 210
-438 102 229
-405 69 169
0 0 0
0 0 0
0 0 0
0 0 0
-395 63 177
-411 70 197
-412 77 213
-384 46 159
0 0 0
0 0 0
0 0 0
0 0 0
-379 42 168
-394 49 187
-398 57 203
-370 26 152
0 0 0
0 0 0
0 0 0
0 0 0
-361 23 159
-380 30 179
-381 38 193
-355 8 145
0 0 0
0 0 0
0 0 0
0 0 0
-347 5 152
-367 12 172
-368 20 185
-343 -8 140
0 0 0
0 0 0
0 0 0
0 0 0
-332 -10 145
-345 -4 161
-353 4 176
-331 -24 136
0 0 0
0 0 0
0 0 0
0 0 0
-320 -24 140
-336 -19 157
-341 -10 169
-315 -38 129
0 0 0
0 0 0
0 0 0
0 0 0
-308 -38 135
-324 -33 151
-328 -25 163
-298 -51 123
0 0 0
0 0 0
0 0 0
0 0 0
-299 -51 132
-315 -47 147
-317 -38 157
-290 -64 121
0 0 0
0 0 0
0 0 0
0 0 0
-290 -64 129
-307 -60 144
-310 -51 153
-284 -77 120
0 0 0
0 0 0
0 0 0
0 0 0
-276 -74 124
-289 -70 136
-302 -63 150
-270 -87 116
0 0 0
0 0 0
0 0 0
0 0 0
-266 -85 121
-281 -82 134
-282 -72 141
-264 -100 116
0 0 0
0 0 0
0 0 0
0 0 0
-255 -95 118
-271 -93 131
-273 -83 137
-249 -108 111
0 0 0
0 0 0
0 0 0
0 0 0
-243 -104 114
-264 -104 129
-269 -95 136
-245 -120 112
0 0 0
0 0 0
0 0 0
0 0 0
-236 -114 113
-253 -113 125
-259 -105 133
-234 -129 110
0 0 0
0 0 0
0 0 0
0 0 0
-230 -125 113
-248 -125 125
-247 -113 128
-228 -140 110
0 0 0
0 0 0
0 0 0
0 0 0
-223 -134 112
-237 -133 122
-238 -123 126
-220 -150 110
0 0 0
0 0 0
0 0 0
0 0 0
-216 -145 112
-230 -144 122
-236 -135 127
-211 -158 109
0 0 0
0 0 0
0 0 0
0 0 0
-207 -153 111
-223 -154 121
-226 -143 124
-203 -168 109
0 0 0
0 0 0
0 0 0
0 0 0
-202 -164 112
-214 -163 120
-220 -154 124
-195 -177 109
0 0 0
0 0 0
0 0 0
0 0 0
-193 -172 111
-201 -168 116
-213 -164 123
-186 -186 110
0 0 0
0 0 0
0 0 0
0 0 0
-186 -182 112
-198 -181 119
-200 -169 119
-178 -195 110
0 0 0
0 0 0
0 0 0
0 0 0
-177 -191 112
-185 -186 116
-192 -178 118
-170 -205 112
0 0 0
0 0 0
0 0 0
0 0 0
-167 -196 110
-181 -199 118
-185 -188 118
-162 -214 113
0 0 0
0 0 0
0 0 0
0 0 0
-160 -208 112
-172 -208 118
-177 -197 118
-151 -221 113
0 0 0
0 0 0
0 0 0
0 0 0
-152 -217 113
-164 -218 119
-172 -210 120
-143 -232 115
0 0 0
0 0 0
0 0 0
0 0 0
-144 -227 115
-159 -233 122
-162 -217 119
-136 -245 119
0 0 0
0 0 0
0 0 0
0 0 0
-138 -241 119
-149 -241 122
-154 -228 120
-125 -251 119
0 0 0
0 0 0
0 0 0
0 0 0
-127 -247 119
-139 -250 123
-144 -237 120
-117 -264 123
0 0 0
0 0 0
0 0 0
0 0 0
-119 -262 123
-129 -260 125
-134 -245 120
-106 -273 126
0 0 0
0 0 0
0 0 0
0 0 0
-110 -274 126
-120 -271 127
-125 -255 121
-97 -287 130
0 0 0
0 0 0
0 0 0
0 0 0
-99 -282 128
-110 -284 130
-116 -269 124
0 0 0
0 0 0
0 0 0
0 0 0
0 0 0
0 0 0
-99 -293 132
-108 -285 129
0 0 0
0 0 0
0 0 0
0 0 0
0 0 0
0 0 0
0 0 0
-90 -276 122
0 0 0
0 0 0
0 0 0
0 0 0
0 0 0
0 0 0
0 0 0
0 0 0
0 0 0
0 0 0
0 0 0
0 0 0
0 0 0
0 0 0
0 0 0
0 0 0
0 0 0
0 0 0
0 0 0
0 0 0
0 0 0
0 0 0
0 0 0
0 0 0
0 0 0
0 0 0
0 0 0
0 0 0
0 0 0
-24 -367 157
0 0 0
0 0 0
-5 -398 175
0 0 0
0 0 0
0 0 0
0 0 0
-7 -384 164
-19 -386 161
-30 -368 149
12 -418 185
0 0 0
0 0 0
0 0 0
0 0 0
10 -411 176
-1 -411 171
-13 -392 157
32 -443 196
0 0 0
0 0 0
0 0 0
0 0 0
30 -437 187
17 -427 177
4 -405 162
55 -472 211
0 0 0
0 0 0
0 0 0
0 0 0
52 -460 198
39 -451 187
25 -435 172
79 -490 221
0 0 0
0 0 0
0 0 0
0 0 0
78 -488 211
64 -478 198
49 -467 185
105 -508 232
0 0 0
0 0 0
0 0 0
0 0 0
106 -515 225
92 -510 213
75 -484 191
0 0 0
0 0 0
0 0 0
0 0 0
0 0 0
0 0 0
0 0 0
105 -517 205
0 0 0
0 0 0
0 0 0
0 0 0
0 0 0
0 0 0
0 0 0
0 0 0
84 -243 116
0 0 0
0 0 0
0 0 0
0 0 0
85 -243 110
0 0 0
0 0 0
0 0 0
0 0 0
0 0 0
0 0 0
0 0 0
0 0 0
0 0 0
0 0 0
0 0 0
0 0 0
0 0 0
0 0 0
0 0 0
0 0 0
0 0 0
0 0 0
0 0 0
0 0 0
0 0 0
0 0 0
0 0 0
0 0 0
0 0 0
0 0 0
0 0 0
0 0 0
0 0 0
0 0 0
0 0 0
0 0 0
0 0 0
0 0 0
0 0 0
0 0 0
0 0 0
0 0 0
0 0 0
0 0 0
0 0 0
0 0 0
0 0 0
0 0 0
0 0 0
0 0 0
0 0 0
0 0 0
0 0 0
0 0 0
0 0 0
0 0 0
0 0 0
0 0 0
0 0 0
0 0 0
0 0 0
0 0 0
0 0 0
0 0 0
0 0 0
0 0 0
0 0 0
0 0 0
0 0 0
0 0 0
1333 -1523 917
1317 -1519 851
0 0 0
0 0 0
1351 -1478 907
1351 -1490 851
1346 -1502 798
1341 -1514 740
1375 -1442 903
1370 -1445 842
1369 -1459 790
1360 -1463 729
1391 -1398 894
1392 -1405 835
1389 -1414 781
1382 -1417 721
1413 -1361 889
1416 -1367 831
1414 -1374 776
1407 -1376 715
1434 -1325 884
1435 -1325 823
1434 -1332 770
1432 -1334 710
1452 -1285 877
1458 -1288 820
1449 -1286 761
1449 -1287 701
1474 -1250 874
1477 -1249 814
1472 -1247 756
1470 -1245 696
1493 -1213 870
1487 -1202 804
1492 -1206 751
1493 -1204 691
1511 -1176 865
1511 -1167 802
1514 -1167 747
1516 -1164 687
1532 -1140 862
1532 -1130 798
1530 -1124 741
1533 -1119 681
1542 -1098 854
1548 -1090 793
1551 -1086 738
1556 -1080 678
1562 -1063 851
1569 -1054 791
1572 -1048 735
1580 -1042 677
1589 -1035 854
1579 -1011 784
1586 -1006 730
1594 -998 671
1601 -995 848
1600 -976 783
1909 -1150 865
1939 -1150 803
1935 -1147 1011
1954 -1133 943
1956 -1118 873
1980 -1112 808
1969 -1111 1015
1979 -1090 942
2007 -1086 883
2029 -1075 815
1481 -794 753
2023 -1057 950
1310 -670 568
1144 -572 453
1250 -637 628
1196 -591 554
1151 -556 493
1127 -530 441
1212 -586 602
1171 -548 537
1141 -520 483
1145 -506 442
1200 -550 590
1177 -519 533
1164 -499 487
1269 -525 485
1220 -528 593
1240 -515 556
1288 -517 533
1300 -502 491
1287 -525 619
1304 -508 578
1307 -490 535
1346 -483 504
1332 -511 634
1342 -489 589
1382 -482 560
1417 -470 525
1393 -501 657
1510 -512 657
1511 -489 607
1521 -465 558
2336 -785 1091
2385 -751 1029
2423 -723 965
2469 -692 899
2387 -747 1106
2427 -707 1039
2473 -678 978
2547 -649 921
2433 -705 1118
2488 -666 1057
2539 -634 997
2491 -572 895
2496 -667 1138
2549 -622 1075
2480 -559 967
2432 -498 868
2544 -623 1151
2475 -547 1036
2419 -486 937
2367 -425 840
2480 -551 1114
2416 -478 1005
2366 -420 911
2364 -367 834
2422 -484 1081
2359 -412 975
2374 -365 909
2429 -318 854
2365 -421 1048
2367 -361 974
2405 -315 917
2398 -258 840
2367 -371 1044
2342 -305 959
2373 -256 901
2390 -199 835
2321 -314 1018
2350 -253 958
2375 -202 899
2608 -156 909
2336 -265 1019
2455 -210 997
2610 -161 985
2582 -93 898
2497 -229 1083
2592 -163 1048
2597 -100 977
2527 -30 878
2586 -182 1117
2644 -108 1065
2536 -39 952
2484 29 862
2643 -130 1137
2540 -47 1020
2488 17 933
2440 85 847
2551 -72 1095
2502 6 1004
2443 72 915
2388 139 830
2510 -18 1074
2460 60 985
2401 125 899
2352 193 818
2472 34 1054
2408 113 963
2350 176 880
2301 244 802
2426 85 1032
2371 163 947
2317 228 868
2256 294 788
2399 136 1018
2327 213 929
2261 275 848
0 0 0
2343 184 992
2288 260 913
0 0 0
936 167 329
2306 230 975
0 0 0
866 145 326
757 153 267
2269 275 959
826 130 330
842 161 318
748 169 265
0 0 0
822 149 329
749 161 284
2072 522 739
788 130 333
763 155 306
2079 497 791
2027 561 728
781 146 330
757 172 304
2049 540 783
1999 605 722
741 155 313
2059 517 830
2011 579 772
1959 643 713
2075 482 878
2028 557 820
1976 618 762
1922 681 705
2063 525 875
1992 594 810
1944 657 755
1895 722 702
2022 562 859
1965 634 802
1913 695 748
1861 759 695
1994 601 849
1929 670 791
1877 731 739
1821 793 687
1961 638 838
1904 710 785
1846 768 732
0 0 0
1933 676 828
1865 743 773
1826 809 730
0 0 0
1899 711 817
1832 778 765
1986 935 802
2252 1175 879
1870 746 808
1815 819 763
2219 1106 905
2221 1224 878
1842 781 800
2044 976 866
2247 1185 926
2180 1269 873
1820 819 795
2246 1135 959
2208 1230 919
2140 1313 870
0 0 0
2242 1196 966
2173 1276 916
2102 1359 867
0 0 0
2198 1237 956
2137 1322 912
2070 1407 867
2239 1191 996
2163 1282 950
2101 1367 908
2030 1450 865
2207 1237 990
2129 1328 945
2059 1407 902
1993 1495 864
2168 1277 980
2092 1369 940
2027 1453 901
1958 1539 864
2135 1322 974
2059 1415 936
1989 1495 898
1915 1579 861
2096 1363 965
2021 1456 931
1955 1540 897
1878 1622 862
2061 1406 959
1981 1495 925
1919 1584 896
1697 1536 795
2025 1448 952
1944 1538 921
1879 1625 893
1683 1596 806
1989 1490 946
1913 1584 919
1840 1666 891
1715 1703 840
1954 1534 941
1874 1624 915
1790 1695 884
1641 1705 824
1920 1576 937
1839 1667 914
1723 1708 868
1619 1761 833
1887 1621 933
1783 1691 902
1658 1719 854
1577 1797 833
1853 1664 930
1725 1711 889
1628 1767 857
1516 1810 823
1782 1674 908
1660 1723 872
1586 1804 856
1475 1847 824
1747 1717 905
1625 1765 871
1524 1814 843
1444 1894 831
1667 1715 879
1599 1817 877
1488 1857 845
1409 1939 837
1630 1752 875
1528 1817 857
1454 1900 849
1381 1994 847
1604 1804 879
1491 1857 857
1416 1939 851
1340 2032 851
1539 1813 861
1451 1893 856
1381 1984 855
1302 2077 857
1497 1847 856
1414 1934 857
1347 2033 861
1268 2128 867
1464 1891 857
1380 1981 861
1306 2072 864
1301 2302 925
1424 1928 854
1342 2023 862
1276 2130 874
1264 2360 938
1390 1975 856
1310 2076 869
1306 2298 930
1219 2405 945
1354 2020 857
1272 2121 873
1265 2348 937
1175 2456 955
1318 2067 860
1299 2282 923
1228 2408 948
1114 2472 951
1278 2109 861
1264 2342 933
1178 2447 951
1064 2511 957
