ply
format ascii 1.0
element vertex 2880
property float x
property float y
property float z
end_header
0 0 0
0 0 0
-189 -178 158
0 0 0
-185 -179 138
-191 -186 152
0 0 0
-184 -183 168
0 0 0
0 0 0
-181 -187 158
0 0 0
-176 -188 138
-181 -193 151
0 0 0
-177 -193 170
0 0 0
0 0 0
-172 -194 158
0 0 0
-168 -197 140
-174 -204 154
0 0 0
-170 -201 171
0 0 0
0 0 0
-168 -207 163
0 0 0
-159 -206 141
-164 -212 154
0 0 0
-161 -208 171
0 0 0
0 0 0
-158 -214 163
0 0 0
-148 -214 142
-157 -223 158
0 0 0
-155 -219 174
0 0 0
0 0 0
-151 -225 166
0 0 0
-144 -230 149
-149 -236 162
0 0 0
-145 -224 173
0 0 0
0 0 0
-141 -233 168
0 0 0
-136 -244 154
-140 -246 165
0 0 0
-139 -237 178
0 0 0
0 0 0
-132 -242 170
0 0 0
-126 -253 157
-133 -261 171
0 0 0
-131 -248 182
0 0 0
0 0 0
-125 -256 175
0 0 0
-114 -262 160
-123 -273 176
0 0 0
-125 -263 189
0 0 0
0 0 0
-115 -266 179
0 0 0
-105 -276 166
-110 -279 177
0 0 0
-114 -269 190
0 0 0
0 0 0
-106 -278 184
0 0 0
0 0 0
-99 -291 182
0 0 0
-103 -277 192
0 0 0
0 0 0
-91 -276 180
0 0 0
0 0 0
0 0 0
0 0 0
-86 -266 181
0 0 0
0 0 0
0 0 0
0 0 0
0 0 0
0 0 0
0 0 0
0 0 0
0 0 0
0 0 0
0 0 0
0 0 0
0 0 0
0 0 0
0 0 0
0 0 0
0 0 0
0 0 0
0 0 0
0 0 0
0 0 0
0 0 0
0 0 0
0 0 0
0 0 0
0 0 0
0 0 0
0 0 0
0 0 0
0 0 0
0 0 0
0 0 0
0 0 0
0 0 0
0 0 0
0 0 0
0 0 0
0 0 0
0 0 0
0 0 0
0 0 0
0 0 0
0 0 0
0 0 0
0 0 0
0 0 0
0 0 0
0 0 0
0 0 0
0 0 0
0 0 0
0 0 0
0 0 0
0 0 0
0 0 0
0 0 0
0 0 0
0 0 0
0 0 0
0 0 0
0 0 0
0 0 0
0 0 0
0 0 0
0 0 0
0 0 0
0 0 0
0 0 0
0 0 0
0 0 0
0 0 0
0 0 0
0 0 0
0 0 0
0 0 0
0 0 0
0 0 0
0 0 0
0 0 0
0 0 0
0 0 0
0 0 0
0 0 0
0 0 0
0 0 0
0 0 0
0 0 0
0 0 0
0 0 0
0 0 0
0 0 0
0 0 0
0 0 0
0 0 0
0 0 0
0 0 0
0 0 0
0 0 0
0 0 0
0 0 0
0 0 0
0 0 0
0 0 0
0 0 0
0 0 0
0 0 0
0 0 0
0 0 0
0 0 0
0 0 0
0 0 0
0 0 0
0 0 0
0 0 0
0 0 0
0 0 0
0 0 0
0 0 0
0 0 0
85 -239 162
0 0 0
0 0 0
0 0 0
0 0 0
0 0 0
0 0 0
0 0 0
0 0 0
0 0 0
0 0 0
0 0 0
0 0 0
0 0 0
0 0 0
0 0 0
0 0 0
0 0 0
0 0 0
0 0 0
0 0 0
0 0 0
0 0 0
0 0 0
0 0 0
0 0 0
0 0 0
0 0 0
0 0 0
0 0 0
0 0 0
0 0 0
0 0 0
0 0 0
0 0 0
0 0 0
0 0 0
0 0 0
0 0 0
0 0 0
0 0 0
1186 -1368 1219
0 0 0
0 0 0
0 0 0
1218 -1340 1224
0 0 0
0 0 0
0 0 0
1250 -1312 1230
1198 -1378 1209
0 0 0
0 0 0
1281 -1285 1236
1225 -1345 1207
0 0 0
0 0 0
1309 -1254 1241
1256 -1318 1212
1233 -1401 1214
0 0 0
1342 -1228 1250
1288 -1290 1216
1259 -1367 1210
0 0 0
1378 -1203 1261
1314 -1259 1217
1292 -1341 1214
1263 -1424 1204
1408 -1173 1269
1346 -1231 1223
1316 -1305 1210
1294 -1394 1202
1440 -1146 1279
1379 -1204 1231
1345 -1274 1210
1330 -1368 1206
1474 -1118 1291
1412 -1178 1239
1373 -1243 1211
1360 -1337 1205
1505 -1089 1301
1441 -1147 1244
1401 -1211 1212
1388 -1304 1202
1542 -1063 1316
1478 -1123 1257
1427 -1179 1213
1421 -1275 1204
1577 -1035 1332
1506 -1092 1262
1459 -1150 1219
1454 -1245 1207
1606 -1003 1341
1541 -1064 1274
1487 -1118 1222
1477 -1208 1203
1645 -976 1360
1575 -1036 1286
1515 -1086 1226
1510 -1178 1207
1679 -946 1376
1606 -1005 1294
1549 -1058 1234
1536 -1143 1206
1715 -916 1392
1644 -978 1311
1582 -1029 1243
1561 -1107 1205
1743 -882 1404
1679 -948 1324
1616 -999 1253
1593 -1075 1210
1772 -847 1417
1716 -919 1340
1651 -970 1264
1617 -1038 1210
1824 -822 1449
1745 -884 1349
1689 -942 1278
1639 -1000 1208
1868 -792 1474
1794 -858 1375
1719 -908 1286
1669 -966 1214
1907 -759 1496
0 0 0
0 0 0
1700 -933 1220
1942 -723 1516
1866 -792 1408
668 -314 489
0 0 0
1985 -690 1542
1898 -756 1422
656 -291 476
668 -327 467
2024 -654 1566
1943 -723 1446
656 -273 472
675 -312 467
2067 -618 1594
1988 -690 1471
672 -262 480
670 -290 459
2112 -581 1623
2032 -654 1495
1963 -715 1391
684 -278 464
2154 -542 1651
2070 -616 1516
1997 -676 1405
675 -256 454
2207 -504 1688
2115 -578 1543
2029 -636 1419
688 -243 459
2255 -464 1722
2166 -541 1573
2087 -603 1451
2031 -665 1344
2300 -421 1753
2211 -500 1601
2137 -565 1478
2073 -626 1362
2344 -376 1786
2265 -459 1635
2182 -524 1502
2117 -586 1382
2372 -328 1807
2316 -416 1668
2231 -482 1529
2159 -544 1401
2370 -276 1805
2359 -370 1696
2283 -439 1559
2205 -501 1423
2364 -223 1801
2416 -324 1735
2334 -395 1589
2269 -460 1457
2364 -172 1803
2473 -276 1775
2388 -349 1622
2316 -414 1481
2364 -121 1805
2502 -223 1795
2446 -300 1658
2382 -369 1518
2360 -70 1804
2510 -168 1800
2497 -249 1690
2432 -318 1545
2352 -19 1802
2506 -112 1798
2567 -197 1736
2495 -268 1581
2347 30 1803
2501 -56 1797
2630 -142 1778
2560 -214 1620
2337 80 1801
2500 -1 1799
2660 -83 1799
2617 -157 1653
2332 130 1803
2496 53 1800
2660 -23 1800
2699 -98 1704
2321 178 1801
2483 107 1794
2659 37 1801
2760 -36 1742
2311 227 1800
2477 162 1795
2653 97 1800
2826 28 1785
2304 275 1802
2469 216 1795
2642 156 1796
2835 95 1793
2287 323 1797
2458 270 1794
2635 217 1796
2829 161 1792
2276 370 1798
2445 323 1793
2627 276 1797
2823 228 1792
2266 418 1801
2436 376 1794
2617 335 1797
2811 293 1790
2255 465 1802
2424 429 1794
2608 394 1798
2802 359 1790
2238 511 1800
2414 482 1797
2596 453 1799
2788 424 1789
2225 557 1801
2397 533 1795
2579 511 1797
2776 490 1790
2211 603 1803
2379 584 1794
2565 569 1797
2761 554 1789
2189 646 1798
2367 636 1797
2546 625 1795
2725 614 1777
2174 691 1800
2346 686 1794
2528 682 1795
2683 671 1760
2153 734 1797
2322 735 1791
2512 739 1797
2625 723 1735
2131 776 1794
2306 785 1793
2486 793 1793
2579 777 1718
2115 821 1797
2283 833 1790
2468 850 1796
2538 830 1705
2095 863 1797
2263 882 1792
2448 906 1798
1910 675 1295
2075 906 1798
2246 932 1796
2417 957 1793
1878 714 1286
2056 948 1799
2220 979 1794
2383 1006 1786
1847 753 1278
2030 987 1795
2193 1024 1791
2355 1058 1784
1820 792 1273
2010 1029 1798
2168 1070 1791
2314 1104 1774
2332 1082 1652
1989 1071 1800
2143 1117 1793
2272 1148 1764
2295 1131 1646
1965 1111 1800
2115 1161 1792
2236 1194 1758
2252 1177 1638
1937 1148 1797
2092 1209 1796
2204 1241 1756
2211 1223 1631
1915 1189 1800
2062 1252 1794
2159 1281 1745
2170 1268 1624
1888 1226 1798
2032 1295 1794
2129 1330 1747
2135 1316 1623
1861 1264 1797
2004 1339 1796
2085 1369 1738
2092 1359 1617
1837 1304 1801
1974 1381 1797
2045 1410 1732
2062 1410 1622
1808 1339 1799
1936 1418 1791
2013 1457 1736
2018 1452 1617
1779 1375 1798
1904 1459 1792
1978 1501 1736
1981 1498 1618
1750 1411 1798
1870 1498 1791
1940 1542 1735
1945 1544 1620
1721 1446 1799
1838 1539 1794
1905 1586 1737
1907 1589 1622
1687 1478 1795
1804 1577 1794
1870 1631 1741
1867 1632 1624
1659 1514 1797
1766 1613 1791
1832 1671 1742
1833 1681 1631
1629 1549 1799
1729 1649 1791
1799 1717 1749
1794 1725 1636
1597 1582 1798
1697 1690 1796
1761 1760 1753
1754 1768 1640
1566 1616 1799
1656 1722 1792
1724 1803 1758
1715 1814 1647
1532 1646 1798
1619 1758 1794
1693 1851 1770
1679 1862 1658
1497 1676 1795
1581 1793 1795
1651 1890 1773
1639 1907 1666
1465 1709 1798
1539 1824 1793
1613 1932 1781
1601 1954 1677
1427 1736 1795
1500 1856 1794
1574 1975 1789
1564 2003 1690
1395 1768 1797
1459 1888 1794
1532 2014 1794
1520 2045 1698
1359 1798 1797
1416 1917 1793
1484 2046 1794
1484 2098 1716
1323 1827 1797
1376 1949 1795
1436 2076 1794
1441 2143 1729
1284 1851 1794
1334 1977 1795
1388 2107 1795
1396 2186 1740
1247 1879 1795
1291 2006 1796
1336 2132 1792
1362 2248 1767
1210 1906 1795
1246 2031 1794
1289 2163 1796
1316 2294 1782
1173 1934 1797
1203 2059 1796
1238 2188 1795
1265 2330 1791
1135 1961 1798
1158 2084 1796
1185 2211 1793
1210 2361 1797
1095 1984 1796
1111 2107 1794
1134 2235 1794
1148 2376 1791
1054 2007 1795
1067 2132 1796
1084 2260 1796
1087 2392 1787
1014 2031 1795
1020 2154 1796
1029 2277 1793
1030 2416 1791
972 2051 1793
973 2174 1795
977 2299 1794
970 2433 1791
930 2071 1792
927 2197 1797
923 2317 1794
912 2454 1794
893 2102 1800
879 2215 1796
871 2336 1795
850 2466 1793
850 2122 1799
831 2235 1797
818 2356 1798
791 2481 1794
807 2143 1800
782 2251 1796
762 2365 1793
729 2488 1791
764 2161 1799
734 2269 1797
708 2380 1794
670 2503 1794
719 2177 1797
685 2284 1797
653 2391 1793
609 2511 1793
675 2194 1796
636 2299 1797
600 2407 1797
548 2517 1793
631 2216 1800
585 2312 1797
544 2414 1795
488 2523 1793
585 2228 1797
535 2323 1795
490 2426 1796
427 2527 1793
539 2241 1795
485 2336 1796
434 2434 1797
367 2532 1795
495 2264 1802
434 2346 1796
379 2440 1797
307 2533 1795
449 2277 1802
384 2355 1796
324 2445 1797
247 2532 1795
401 2286 1799
334 2370 1801
269 2451 1798
187 2533 1797
354 2296 1797
282 2373 1799
213 2455 1799
127 2525 1793
306 2309 1799
231 2380 1799
157 2450 1795
68 2523 1795
258 2316 1796
178 2381 1795
102 2454 1798
9 2512 1792
210 2325 1796
127 2391 1800
47 2449 1795
-48 2510 1796
161 2331 1795
75 2386 1794
-7 2452 1799
-107 2499 1794
113 2336 1792
23 2391 1797
-62 2444 1796
-164 2493 1797
64 2350 1799
-27 2395 1799
-117 2438 1795
-222 2477 1795
14 2357 1800
-80 2388 1794
-172 2434 1797
-279 2466 1796
-35 2358 1797
-132 2393 1799
-225 2422 1793
-334 2448 1793
-85 2366 1801
-184 2389 1798
-280 2416 1795
-386 2406 1774
-135 2365 1798
-236 2379 1793
-333 2408 1796
-435 2363 1753
-185 2362 1795
-288 2383 1800
-386 2392 1792
-482 2317 1732
-236 2366 1797
-339 2373 1796
-435 2355 1774
-531 2284 1721
-287 2364 1797
-390 2360 1792
-482 2319 1757
-577 2243 1705
-338 2357 1793
-443 2353 1793
-527 2279 1737
-622 2206 1693
-390 2359 1796
-488 2315 1771
-572 2240 1718
-665 2168 1680
-440 2351 1793
-532 2276 1749
-617 2211 1708
-707 2127 1664
-485 2316 1770
-576 2243 1732
-656 2164 1684
-750 2095 1658
-530 2283 1750
-620 2211 1717
-701 2136 1676
-796 2073 1658
-573 2249 1729
-660 2172 1696
-742 2101 1663
-893 2174 1761
-615 2214 1708
-701 2135 1679
-783 2070 1654
-953 2178 1786
-658 2182 1691
-741 2102 1664
-873 2160 1744
-1003 2157 1792
-696 2142 1667
-782 2070 1651
-942 2189 1785
-1048 2123 1790
-735 2106 1648
-864 2145 1725
-994 2172 1792
-1093 2092 1788
-774 2072 1631
-936 2184 1771
-1041 2147 1791
-1138 2063 1790
-850 2132 1689
-997 2189 1793
-1089 2123 1794
-1182 2031 1792
-925 2179 1739
-1044 2167 1791
-1131 2090 1789
-1224 1998 1791
-1004 2229 1792
-1092 2143 1791
-1176 2060 1787
-1268 1967 1794
-1051 2204 1786
-1138 2116 1788
-1218 2027 1784
-1307 1929 1792
-1101 2183 1785
-1187 2095 1791
-1263 2000 1786
-1346 1892 1791
-1151 2164 1785
-1232 2067 1789
-1305 1968 1785
-1387 1861 1795
-1202 2145 1787
-1277 2041 1789
-1349 1939 1787
-845 1081 1064
-1251 2121 1786
-1322 2012 1788
-1390 1907 1787
-857 1047 1052
-1301 2099 1788
-1368 1984 1789
-834 1092 1042
-932 1088 1117
-1352 2076 1790
-1410 1952 1786
-854 1067 1038
-1077 1202 1261
-1395 2042 1783
-1458 1926 1791
-873 1043 1033
-1249 1332 1431
-1446 2020 1787
-850 1073 1015
-1002 1144 1157
-1496 1524 1678
-1494 1991 1787
-865 1043 1004
-1175 1283 1325
-1623 1582 1787
-848 1080 984
-969 1116 1095
-1359 1419 1498
-1607 1498 1736
-858 1043 966
-1153 1271 1271
-1593 1590 1718
-1350 1202 1432
-950 1103 1040
-1298 1368 1396
-1644 1569 1736
-1084 923 1131
-1093 1213 1164
-1578 1590 1658
-1440 1315 1491
-1012 823 1039
-1268 1346 1316
-1643 1584 1688
-1268 1107 1289
-979 761 990
-1509 1531 1527
-1518 1399 1526
-1018 849 1016
-902 669 899
-1635 1587 1616
-1280 1128 1261
-1006 802 987
-724 513 712
-1049 973 1013
-1034 871 998
-933 710 900
-672 454 653
-1054 934 996
-1005 808 952
-721 524 685
-668 430 641
-1050 888 970
-960 738 894
-677 469 634
-623 381 591
-1008 815 913
-740 543 678
-681 450 629
-586 341 550
-984 759 874
-679 474 611
-643 404 586
-567 314 527
0 0 0
-684 456 607
-599 358 538
-561 294 516
-686 481 588
-652 413 569
-582 331 517
-575 285 524
-691 461 582
-614 370 529
-586 316 515
-559 263 506
-646 410 535
-618 354 525
-594 303 516
-538 238 483
-634 382 517
-633 344 531
-564 273 486
-525 219 468
-660 378 531
-598 307 496
-546 249 466
-502 196 444
-620 336 492
-569 277 466
-531 228 449
-490 179 431
-592 303 463
-549 252 445
0 0 0
-475 162 416
-568 275 439
-532 230 427
-501 189 417
0 0 0
-546 249 417
0 0 0
0 0 0
-451 132 391
-531 227 401
-497 188 392
-467 153 383
0 0 0
-513 206 383
0 0 0
0 0 0
-429 106 369
-494 185 366
-472 155 366
-446 124 362
0 0 0
-480 167 352
0 0 0
0 0 0
-409 82 349
0 0 0
-444 123 339
-427 99 343
0 0 0
-450 133 324
0 0 0
0 0 0
-392 61 333
0 0 0
-420 96 318
-409 75 326
0 0 0
-429 105 304
0 0 0
0 0 0
-379 42 322
0 0 0
-398 72 298
-391 54 310
0 0 0
-409 81 287
0 0 0
0 0 0
-360 25 305
0 0 0
-384 52 286
-375 35 296
0 0 0
-386 57 268
0 0 0
0 0 0
-344 9 292
0 0 0
-362 32 268
-359 18 284
0 0 0
-372 37 258
0 0 0
0 0 0
-331 -5 282
0 0 0
-352 15 260
-346 2 273
0 0 0
-349 19 240
0 0 0
0 0 0
-320 -18 274
0 0 0
-337 0 249
-332 -12 263
0 0 0
-338 2 232
0 0 0
0 0 0
-308 -31 266
0 0 0
-325 -15 240
-325 -27 259
0 0 0
-325 -13 224
0 0 0
0 0 0
-301 -43 261
0 0 0
-312 -29 232
-313 -40 251
0 0 0
-311 -27 215
0 0 0
0 0 0
-289 -54 253
0 0 0
-305 -42 228
-307 -53 248
0 0 0
-305 -41 212
0 0 0
0 0 0
-279 -65 247
0 0 0
-292 -55 221
-294 -64 240
0 0 0
-297 -54 208
0 0 0
0 0 0
-273 -76 245
0 0 0
-285 -67 218
-281 -75 232
0 0 0
-281 -65 199
0 0 0
0 0 0
-263 -85 240
0 0 0
-276 -78 213
-275 -86 231
0 0 0
-270 -77 194
0 0 0
0 0 0
-254 -94 235
0 0 0
-264 -88 208
-264 -96 225
0 0 0
-263 -88 192
0 0 0
0 0 0
-248 -104 234
0 0 0
-255 -99 204
-259 -108 226
0 0 0
-253 -99 189
0 0 0
0 0 0
-242 -114 233
0 0 0
-245 -108 201
-251 -117 223
0 0 0
-242 -108 185
0 0 0
0 0 0
-236 -124 232
0 0 0
-239 -119 200
-243 -127 221
0 0 0
-239 -121 187
0 0 0
0 0 0
-230 -133 231
0 0 0
-230 -128 198
-237 -138 221
0 0 0
-233 -133 188
0 0 0
0 0 0
-224 -143 232
0 0 0
-222 -138 197
-230 -148 221
0 0 0
-218 -139 182
0 0 0
0 0 0
-216 -151 230
0 0 0
-218 -149 200
-221 -156 219
0 0 0
-213 -150 184
0 0 0
0 0 0
-207 -158 228
0 0 0
-203 -154 193
-213 -165 219
0 0 0
-205 -160 184
0 0 0
0 0 0
-199 -166 226
0 0 0
-199 -166 197
-206 -175 220
0 0 0
-196 -169 184
0 0 0
0 0 0
-189 -171 223
0 0 0
-191 -175 198
-198 -184 220
0 0 0
-188 -178 185
0 0 0
0 0 0
-182 -180 224
0 0 0
-186 -186 201
-191 -195 222
0 0 0
-179 -187 186
0 0 0
0 0 0
0 0 0
0 0 0
-176 -193 200
-182 -203 223
0 0 0
-169 -194 186
0 0 0
0 0 0
0 0 0
0 0 0
-166 -201 201
-172 -210 222
0 0 0
-162 -206 190
0 0 0
0 0 0
0 0 0
0 0 0
-160 -213 205
-165 -220 225
0 0 0
-153 -215 193
0 0 0
0 0 0
0 0 0
0 0 0
-151 -222 208
-150 -220 218
0 0 0
-142 -222 194
0 0 0
0 0 0
0 0 0
0 0 0
-143 -234 213
0 0 0
0 0 0
-136 -237 201
0 0 0
0 0 0
0 0 0
0 0 0
-134 -244 217
0 0 0
0 0 0
-126 -247 206
0 0 0
0 0 0
0 0 0
0 0 0
0 0 0
0 0 0
0 0 0
-116 -258 211
0 0 0
0 0 0
0 0 0
0 0 0
0 0 0
0 0 0
0 0 0
0 0 0
0 0 0
0 0 0
0 0 0
0 0 0
0 0 0
0 0 0
0 0 0
0 0 0
0 0 0
0 0 0
0 0 0
0 0 0
0 0 0
0 0 0
0 0 0
0 0 0
0 0 0
0 0 0
0 0 0
0 0 0
0 0 0
0 0 0
0 0 0
0 0 0
0 0 0
0 0 0
0 0 0
0 0 0
0 0 0
0 0 0
0 0 0
0 0 0
0 0 0
0 0 0
0 0 0
0 0 0
-59 -326 265
0 0 0
0 0 0
-45 -338 266
0 0 0
0 0 0
0 0 0
0 0 0
-45 -340 276
0 0 0
0 0 0
0 0 0
0 0 0
0 0 0
0 0 0
0 0 0
0 0 0
0 0 0
0 0 0
0 0 0
0 0 0
0 0 0
0 0 0
0 0 0
0 0 0
0 0 0
0 0 0
0 0 0
0 0 0
0 0 0
0 0 0
0 0 0
0 0 0
0 0 0
0 0 0
0 0 0
0 0 0
0 0 0
0 0 0
0 0 0
0 0 0
0 0 0
0 0 0
0 0 0
0 0 0
0 0 0
0 0 0
0 0 0
0 0 0
0 0 0
0 0 0
0 0 0
0 0 0
0 0 0
0 0 0
0 0 0
44 -309 259
0 0 0
0 0 0
0 0 0
0 0 0
0 0 0
0 0 0
0 0 0
0 0 0
0 0 0
0 0 0
0 0 0
0 0 0
0 0 0
0 0 0
0 0 0
0 0 0
0 0 0
0 0 0
0 0 0
0 0 0
0 0 0
0 0 0
0 0 0
0 0 0
0 0 0
0 0 0
0 0 0
0 0 0
0 0 0
0 0 0
0 0 0
0 0 0
0 0 0
0 0 0
0 0 0
0 0 0
0 0 0
0 0 0
0 0 0
0 0 0
0 0 0
0 0 0
0 0 0
0 0 0
0 0 0
0 0 0
0 0 0
0 0 0
0 0 0
0 0 0
0 0 0
0 0 0
0 0 0
0 0 0
0 0 0
0 0 0
0 0 0
0 0 0
0 0 0
0 0 0
0 0 0
0 0 0
0 0 0
0 0 0
0 0 0
0 0 0
0 0 0
0 0 0
0 0 0
0 0 0
0 0 0
0 0 0
0 0 0
0 0 0
0 0 0
0 0 0
0 0 0
0 0 0
0 0 0
0 0 0
0 0 0
0 0 0
0 0 0
0 0 0
0 0 0
0 0 0
0 0 0
0 0 0
0 0 0
0 0 0
0 0 0
0 0 0
0 0 0
0 0 0
1221 -1341 1650
0 0 0
0 0 0
0 0 0
1251 -1311 1656
1190 -1367 1597
0 0 0
0 0 0
1284 -1286 1667
1222 -1341 1602
0 0 0
0 0 0
1318 -1260 1680
1254 -1315 1608
1195 -1359 1551
0 0 0
1347 -1231 1689
1283 -1286 1612
1224 -1330 1550
0 0 0
1376 -1201 1697
1315 -1260 1620
1258 -1306 1556
1207 -1361 1498
1411 -1176 1714
1348 -1234 1630
1285 -1276 1555
1231 -1327 1489
1442 -1147 1725
1379 -1206 1637
1315 -1248 1559
1261 -1299 1489
1474 -1119 1740
1411 -1180 1648
1346 -1221 1563
1294 -1273 1491
1503 -1088 1752
1446 -1154 1661
1380 -1196 1572
1328 -1249 1496
1538 -1061 1771
1475 -1124 1669
1412 -1170 1580
1354 -1217 1494
1574 -1035 1792
1509 -1098 1683
1442 -1141 1586
1387 -1191 1499
1601 -1002 1804
1538 -1066 1692
1479 -1117 1599
1426 -1170 1511
1621 -964 1808
1570 -1037 1705
1515 -1091 1613
1459 -1142 1516
1637 -925 1810
1602 -1008 1719
1547 -1062 1622
1493 -1115 1525
1652 -885 1811
1639 -980 1738
1581 -1034 1634
1523 -1084 1529
1665 -845 1811
1674 -951 1757
1614 -1004 1646
1558 -1057 1538
1676 -804 1808
1709 -921 1775
1648 -975 1659
1592 -1028 1548
1691 -766 1813
1742 -889 1792
1681 -944 1672
1632 -1002 1563
1700 -725 1811
1762 -850 1797
1719 -916 1691
1662 -968 1570
1705 -684 1806
1784 -813 1804
1754 -884 1706
1700 -939 1584
1718 -645 1811
1796 -770 1802
1792 -853 1725
1732 -906 1594
1722 -604 1806
1810 -729 1803
1828 -820 1743
1770 -874 1609
1730 -564 1807
1824 -688 1805
1864 -786 1761
1806 -841 1623
1737 -525 1808
1835 -646 1805
1903 -753 1783
1847 -810 1643
1744 -486 1810
1845 -604 1805
1933 -715 1798
1888 -776 1663
1749 -447 1810
1857 -563 1807
1960 -675 1810
1926 -740 1679
1751 -407 1808
1863 -520 1805
1971 -630 1808
1968 -705 1701
1757 -368 1810
1868 -477 1802
1986 -586 1811
2013 -669 1727
1755 -329 1806
1880 -436 1808
1993 -539 1807
2058 -632 1752
1760 -291 1810
1883 -393 1804
2000 -493 1804
2108 -594 1782
1762 -252 1811
1887 -351 1804
2008 -447 1804
2140 -550 1798
1757 -213 1804
1888 -309 1802
2017 -402 1805
2153 -501 1799
1758 -175 1807
1893 -267 1803
2022 -356 1803
2166 -451 1800
1760 -137 1810
1894 -224 1802
2029 -310 1805
2175 -401 1800
1756 -100 1807
1899 -183 1806
2033 -264 1803
2184 -351 1801
1754 -62 1807
1896 -141 1802
2037 -218 1804
2198 -301 1806
1752 -25 1809
1898 -99 1804
2042 -172 1806
2198 -249 1801
1750 11 1811
1898 -57 1806
2042 -126 1805
2202 -198 1801
1748 48 1813
1892 -16 1802
2038 -79 1800
2206 -147 1801
1740 84 1809
1890 24 1803
2038 -34 1801
2206 -95 1800
1729 120 1805
1885 66 1802
2038 12 1802
2207 -44 1800
1726 156 1808
1883 106 1804
2035 57 1802
2207 7 1800
1717 192 1806
1875 147 1802
2033 103 1803
2206 58 1801
1711 227 1806
1874 188 1806
2024 148 1800
2201 109 1800
1704 263 1808
1859 228 1798
2020 194 1801
2200 161 1802
1698 298 1810
1850 267 1798
2013 239 1801
2187 211 1796
1688 332 1809
1845 308 1801
2007 284 1803
2180 262 1797
1679 367 1810
1832 346 1798
1999 329 1803
2174 313 1798
1669 401 1810
1828 387 1804
1989 373 1803
2165 363 1799
1658 435 1809
1816 426 1803
1979 418 1804
2149 413 1795
1646 468 1809
1802 464 1800
1962 461 1799
2142 463 1799
1635 501 1810
1792 503 1802
1953 505 1802
2128 513 1798
1623 534 1810
1779 541 1803
1937 548 1801
2109 561 1794
1612 567 1811
1765 578 1802
1922 590 1800
2098 611 1798
1599 600 1812
1747 615 1799
1909 634 1802
2079 658 1796
1580 630 1805
1734 652 1801
1888 674 1797
2060 706 1796
1570 663 1810
1715 688 1798
1871 716 1798
2043 754 1798
1554 694 1809
1700 724 1798
1854 758 1799
2024 801 1799
1539 725 1808
1687 762 1804
1838 800 1803
1999 846 1797
1521 755 1805
1668 797 1803
1815 839 1800
1981 894 1801
1506 786 1806
1644 830 1797
1794 879 1800
1953 937 1797
1487 815 1803
1628 866 1799
1773 918 1800
1918 976 1787
1472 846 1806
1612 902 1804
1748 956 1798
1894 1021 1790
1453 874 1803
1585 932 1797
1724 994 1798
1867 1064 1790
1435 903 1803
1567 967 1800
1703 1033 1802
1837 1104 1788
1423 937 1812
1549 1003 1806
1676 1069 1799
1811 1147 1792
1404 965 1811
1520 1031 1798
1650 1105 1799
1781 1187 1791
1378 989 1803
1500 1065 1802
1624 1142 1800
1748 1225 1789
1365 1022 1811
1480 1099 1805
1596 1176 1800
1720 1268 1794
1344 1049 1810
1451 1126 1799
1569 1212 1802
1686 1304 1793
1323 1077 1810
1426 1157 1800
1534 1241 1795
1652 1341 1793
1302 1103 1809
1401 1187 1800
1509 1278 1800
1619 1379 1794
1280 1130 1809
1374 1216 1799
1476 1307 1796
1581 1411 1792
1258 1156 1808
1349 1246 1800
1448 1342 1801
1545 1447 1793
1239 1186 1813
1322 1274 1800
1415 1371 1798
1509 1480 1794
1214 1209 1810
1293 1301 1800
1383 1402 1799
1471 1513 1794
1188 1232 1806
1266 1329 1800
1347 1428 1796
1431 1542 1793
1166 1259 1809
1238 1357 1801
1314 1458 1797
1393 1574 1794
1142 1284 1808
1207 1381 1799
1282 1487 1799
1353 1603 1794
1115 1306 1805
1179 1408 1800
1247 1514 1799
1311 1629 1792
1092 1332 1808
1148 1432 1799
1211 1539 1798
1272 1659 1796
1065 1354 1806
1118 1457 1801
1176 1565 1799
1230 1684 1795
1037 1375 1803
1088 1483 1803
1139 1590 1799
1184 1704 1791
1013 1401 1806
1054 1503 1800
1102 1613 1798
1144 1731 1794
985 1422 1804
1021 1525 1798
1064 1635 1798
1101 1755 1795
957 1443 1802
989 1546 1798
1026 1657 1798
1055 1772 1791
929 1464 1802
956 1569 1799
989 1678 1798
1012 1793 1792
901 1485 1802
922 1588 1797
950 1699 1799
969 1815 1795
870 1503 1798
890 1612 1802
912 1719 1800
923 1830 1793
844 1529 1805
857 1632 1803
870 1735 1797
880 1852 1797
816 1551 1808
821 1650 1802
833 1756 1801
834 1868 1798
781 1560 1796
786 1666 1801
792 1772 1801
786 1875 1791
754 1587 1804
751 1683 1800
751 1785 1798
741 1891 1793
723 1604 1803
715 1700 1800
711 1802 1801
695 1902 1793
691 1622 1802
679 1716 1800
670 1815 1800
649 1914 1794
660 1639 1803
642 1730 1799
627 1823 1795
603 1925 1795
627 1655 1801
605 1744 1799
587 1840 1800
557 1935 1797
594 1670 1799
568 1758 1799
546 1852 1801
510 1940 1795
561 1685 1799
531 1773 1801
502 1856 1796
464 1948 1796
528 1701 1800
493 1785 1801
461 1866 1797
417 1951 1794
493 1712 1795
455 1795 1800
419 1875 1798
371 1956 1795
459 1728 1797
416 1805 1799
377 1883 1798
324 1953 1790
424 1742 1798
377 1813 1797
334 1890 1799
278 1958 1793
390 1757 1800
339 1826 1801
292 1897 1800
232 1958 1792
354 1770 1800
300 1831 1798
249 1898 1798
187 1962 1796
318 1781 1800
261 1839 1798
207 1904 1800
141 1959 1796
282 1790 1797
222 1848 1800
164 1905 1799
95 1954 1794
245 1801 1798
182 1853 1799
122 1908 1799
50 1950 1793
208 1811 1799
142 1857 1799
79 1909 1801
5 1948 1796
170 1817 1796
102 1868 1805
37 1909 1801
-39 1940 1794
133 1827 1797
62 1867 1801
-5 1902 1795
-83 1931 1792
95 1837 1800
22 1872 1803
-47 1903 1799
-127 1923 1792
57 1841 1797
-17 1875 1804
-89 1901 1800
-171 1915 1792
18 1853 1803
-58 1872 1800
-131 1892 1795
-214 1907 1794
-20 1857 1801
-98 1874 1802
-173 1891 1799
-258 1899 1797
-60 1863 1803
-139 1870 1800
-215 1883 1797
-300 1886 1796
-99 1860 1796
-179 1867 1798
-257 1881 1802
-343 1875 1798
-139 1866 1800
-220 1867 1801
-298 1870 1798
-383 1858 1795
-179 1866 1798
-261 1864 1801
-339 1861 1798
-424 1841 1792
-219 1867 1798
-301 1859 1800
-379 1850 1797
-465 1829 1796
-260 1871 1801
-341 1852 1798
-421 1844 1801
-505 1812 1795
-300 1865 1795
-382 1848 1799
-461 1830 1799
-545 1796 1796
-341 1866 1798
-423 1843 1801
-498 1810 1791
-584 1779 1797
-382 1864 1798
-462 1831 1798
-538 1799 1793
-623 1761 1798
-422 1858 1795
-502 1821 1797
-578 1786 1794
-660 1741 1798
-463 1851 1793
-544 1817 1801
-617 1770 1792
-698 1722 1799
-505 1850 1796
-582 1799 1794
-656 1755 1793
-732 1694 1792
-547 1845 1798
-623 1791 1798
-694 1740 1795
-768 1672 1793
-588 1836 1796
-661 1777 1796
-731 1721 1793
-805 1652 1795
-630 1830 1798
-700 1763 1795
-770 1705 1796
-839 1628 1794
-671 1819 1795
-740 1750 1796
-806 1685 1794
-874 1606 1796
-713 1809 1796
-780 1737 1798
-841 1662 1791
-907 1581 1796
-752 1793 1791
-818 1719 1796
-878 1645 1794
-937 1552 1792
-792 1778 1788
-857 1704 1798
-914 1624 1794
-970 1529 1794
-835 1770 1793
-895 1688 1799
-948 1601 1793
-1002 1503 1795
-877 1759 1796
-931 1665 1795
-980 1576 1790
-1032 1475 1793
-916 1739 1791
-969 1648 1796
-1018 1558 1796
-1061 1448 1793
-957 1725 1793
-1006 1627 1796
-1050 1532 1794
-1086 1414 1786
-998 1709 1793
-1040 1603 1792
-1082 1507 1793
-853 1061 1367
-1037 1689 1792
-1079 1586 1798
-1113 1480 1791
-870 1034 1360
-1077 1670 1792
-1112 1560 1793
-856 1087 1340
-1071 1218 1638
-1117 1650 1792
-1147 1535 1792
-858 1042 1308
-1196 1300 1788
-1155 1628 1790
-844 1079 1280
-1081 1254 1605
-1226 1275 1795
-1198 1611 1796
-852 1042 1256
-1208 1341 1751
-1252 1246 1798
-846 1087 1229
-917 1072 1316
-1257 1335 1780
-1275 1214 1796
-854 1047 1203
-1166 1303 1629
-1295 1316 1794
-1298 1183 1796
-913 1071 1250
-1298 1387 1768
-1324 1287 1795
-1291 1125 1756
-1121 1255 1491
-1348 1378 1793
-1352 1258 1796
-1136 946 1520
-1278 1368 1654
-1383 1353 1798
-1350 1202 1760
-1028 819 1354
-1410 1444 1780
-1415 1324 1799
-1180 1004 1510
-946 721 1229
-1458 1427 1795
-1383 1238 1722
-1062 864 1335
-870 633 1114
-1492 1395 1793
-1207 1033 1473
-975 759 1205
-810 563 1024
-1369 1224 1609
-1080 883 1293
-893 664 1086
-702 465 876
-1210 1034 1392
-988 772 1160
-832 590 997
-664 419 819
-1081 882 1218
-909 678 1049
-741 502 875
-624 376 762
-984 766 1086
-843 600 957
-675 436 786
-592 339 715
-905 672 980
-746 507 833
-640 393 735
-562 306 671
-813 576 864
-682 441 750
-603 353 685
-531 274 629
-710 479 742
-646 397 700
-573 318 643
-511 250 600
-669 429 687
-600 351 641
-545 287 604
-490 227 571
-635 387 642
-570 316 601
-517 258 568
-482 210 556
-588 340 585
-543 286 565
-498 235 541
-463 190 531
-560 307 550
-516 257 530
-485 216 522
-476 184 542
-544 282 526
-513 241 521
-485 203 518
-483 175 547
-540 265 516
-518 229 521
-494 194 523
-473 160 533
-553 255 522
-515 214 513
0 0 0
-458 144 513
-527 229 491
-499 195 492
-470 161 489
-447 130 499
-517 210 477
0 0 0
0 0 0
-436 117 484
-500 190 456
-476 161 461
-449 132 462
0 0 0
-482 170 435
0 0 0
0 0 0
0 0 0
-470 154 421
-450 130 430
-430 107 438
0 0 0
-455 138 404
0 0 0
0 0 0
0 0 0
-445 123 392
-429 103 405
-409 82 413
0 0 0
0 0 0
0 0 0
0 0 0
0 0 0
-423 96 368
-412 80 385
-398 62 399
0 0 0
0 0 0
0 0 0
0 0 0
0 0 0
-407 73 350
-396 58 367
-380 42 379
0 0 0
0 0 0
0 0 0
0 0 0
0 0 0
-385 50 328
-376 38 346
-369 25 366
0 0 0
0 0 0
0 0 0
0 0 0
0 0 0
-367 31 311
-362 20 333
-350 8 348
0 0 0
0 0 0
0 0 0
0 0 0
0 0 0
-353 13 298
-345 3 316
-340 -6 338
0 0 0
0 0 0
0 0 0
0 0 0
0 0 0
-347 -3 293
-334 -11 306
-328 -21 327
0 0 0
0 0 0
0 0 0
0 0 0
0 0 0
-329 -18 278
-322 -25 296
-314 -34 314
0 0 0
0 0 0
0 0 0
0 0 0
0 0 0
-314 -32 267
-309 -39 286
-308 -47 310
0 0 0
0 0 0
0 0 0
0 0 0
0 0 0
-303 -46 259
-302 -52 282
-295 -58 300
0 0 0
0 0 0
0 0 0
0 0 0
0 0 0
-292 -58 252
-293 -64 276
-287 -70 295
0 0 0
0 0 0
0 0 0
0 0 0
0 0 0
-286 -71 250
-284 -76 270
-276 -80 287
0 0 0
0 0 0
0 0 0
0 0 0
0 0 0
-270 -81 240
-269 -85 260
-270 -91 285
0 0 0
0 0 0
0 0 0
0 0 0
0 0 0
-260 -92 235
-263 -97 258
-262 -102 282
0 0 0
0 0 0
0 0 0
0 0 0
0 0 0
-258 -105 238
-253 -107 254
-249 -110 273
0 0 0
0 0 0
0 0 0
0 0 0
0 0 0
-250 -116 235
-246 -117 252
-244 -120 273
0 0 0
0 0 0
0 0 0
0 0 0
0 0 0
-239 -125 231
-237 -126 249
-235 -129 269
0 0 0
0 0 0
0 0 0
0 0 0
0 0 0
-235 -138 234
-227 -135 245
-227 -138 267
0 0 0
0 0 0
0 0 0
0 0 0
0 0 0
-222 -145 229
-221 -146 247
-218 -146 264
0 0 0
0 0 0
0 0 0
0 0 0
0 0 0
-214 -154 229
-213 -155 246
-211 -155 264
0 0 0
0 0 0
0 0 0
0 0 0
0 0 0
-207 -165 230
-208 -166 249
0 0 0
0 0 0
0 0 0
0 0 0
0 0 0
0 0 0
-198 -173 230
0 0 0
0 0 0
0 0 0
0 0 0
0 0 0
0 0 0
0 0 0
-187 -181 228
0 0 0
0 0 0
0 0 0
0 0 0
0 0 0
0 0 0
0 0 0
0 0 0
0 0 0
0 0 0
0 0 0
0 0 0
0 0 0
0 0 0
0 0 0
0 0 0
0 0 0
0 0 0
0 0 0
0 0 0
0 0 0
0 0 0
0 0 0
0 0 0
0 0 0
0 0 0
0 0 0
0 0 0
0 0 0
0 0 0
0 0 0
0 0 0
-132 -185 216
0 0 0
0 0 0
0 0 0
0 0 0
0 0 0
0 0 0
0 0 0
0 0 0
0 0 0
0 0 0
0 0 0
0 0 0
0 0 0
0 0 0
0 0 0
0 0 0
0 0 0
0 0 0
0 0 0
0 0 0
0 0 0
0 0 0
0 0 0
0 0 0
0 0 0
0 0 0
0 0 0
0 0 0
0 0 0
0 0 0
0 0 0
0 0 0
0 0 0
0 0 0
0 0 0
0 0 0
0 0 0
0 0 0
0 0 0
0 0 0
0 0 0
0 0 0
0 0 0
0 0 0
0 0 0
0 0 0
0 0 0
0 0 0
0 0 0
0 0 0
0 0 0
0 0 0
0 0 0
0 0 0
0 0 0
0 0 0
0 0 0
0 0 0
0 0 0
0 0 0
0 0 0
0 0 0
0 0 0
0 0 0
0 0 0
0 0 0
0 0 0
0 0 0
0 0 0
0 0 0
0 0 0
0 0 0
0 0 0
0 0 0
0 0 0
0 0 0
0 0 0
0 0 0
0 0 0
0 0 0
0 0 0
0 0 0
0 0 0
0 0 0
0 0 0
0 0 0
0 0 0
0 0 0
0 0 0
0 0 0
0 0 0
0 0 0
0 0 0
0 0 0
0 0 0
0 0 0
0 0 0
0 0 0
0 0 0
0 0 0
0 0 0
0 0 0
0 0 0
0 0 0
0 0 0
0 0 0
0 0 0
0 0 0
0 0 0
0 0 0
0 0 0
0 0 0
0 0 0
0 0 0
0 0 0
0 0 0
0 0 0
0 0 0
0 0 0
0 0 0
0 0 0
0 0 0
0 0 0
0 0 0
0 0 0
0 0 0
65 -464 473
50 -460 469
0 0 0
0 0 0
79 -481 494
0 0 0
0 0 0
0 0 0
94 -501 520
74 -477 492
56 -457 471
0 0 0
109 -512 536
0 0 0
0 0 0
50 -449 462
0 0 0
102 -509 531
82 -484 503
0 0 0
0 0 0
118 -527 554
0 0 0
74 -478 493
0 0 0
0 0 0
111 -516 541
89 -497 514
0 0 0
0 0 0
0 0 0
103 -513 532
0 0 0
0 0 0
0 0 0
0 0 0
0 0 0
0 0 0
0 0 0
0 0 0
0 0 0
0 0 0
0 0 0
0 0 0
0 0 0
0 0 0
0 0 0
0 0 0
0 0 0
0 0 0
0 0 0
0 0 0
0 0 0
0 0 0
0 0 0
0 0 0
0 0 0
0 0 0
0 0 0
0 0 0
0 0 0
0 0 0
0 0 0
0 0 0
0 0 0
0 0 0
0 0 0
0 0 0
0 0 0
0 0 0
0 0 0
0 0 0
0 0 0
0 0 0
0 0 0
0 0 0
0 0 0
0 0 0
0 0 0
0 0 0
0 0 0
0 0 0
0 0 0
0 0 0
0 0 0
0 0 0
0 0 0
0 0 0
0 0 0
0 0 0
0 0 0
0 0 0
0 0 0
0 0 0
0 0 0
0 0 0
0 0 0
0 0 0
0 0 0
0 0 0
0 0 0
0 0 0
0 0 0
0 0 0
0 0 0
0 0 0
0 0 0
0 0 0
1092 -1161 1814
0 0 0
0 0 0
0 0 0
1115 -1134 1818
0 0 0
0 0 0
0 0 0
1134 -1104 1817
1147 -1210 1809
1163 -1317 1818
0 0 0
1154 -1074 1818
1176 -1188 1817
1188 -1287 1813
0 0 0
1165 -1037 1806
1199 -1158 1816
1215 -1259 1812
1207 -1341 1766
1185 -1009 1809
1220 -1127 1813
1243 -1232 1813
1236 -1313 1763
1200 -977 1807
1242 -1098 1814
1271 -1205 1815
1265 -1284 1760
1217 -948 1808
1265 -1069 1816
1294 -1173 1810
1301 -1262 1768
1233 -917 1808
1285 -1039 1816
1323 -1146 1816
1333 -1236 1771
1248 -887 1808
1303 -1006 1813
1347 -1116 1815
1363 -1207 1771
1262 -856 1809
1322 -975 1813
1371 -1085 1816
1398 -1183 1780
1276 -826 1810
1340 -944 1813
1393 -1053 1814
1429 -1155 1784
1287 -794 1808
1357 -912 1812
1415 -1021 1814
1460 -1126 1788
1297 -762 1805
1373 -880 1811
1437 -989 1814
1490 -1096 1793
1310 -732 1807
1391 -849 1813
1457 -956 1813
1527 -1070 1805
1321 -701 1807
1408 -817 1814
1478 -923 1814
1550 -1035 1803
1331 -670 1808
1421 -784 1813
1497 -889 1813
1582 -1005 1812
1338 -638 1804
1434 -750 1811
1517 -856 1815
1603 -968 1808
1349 -608 1807
1448 -718 1812
1535 -821 1815
1628 -933 1811
1357 -577 1808
1458 -683 1808
1552 -786 1814
1647 -894 1807
1365 -546 1808
1467 -649 1805
1570 -752 1816
1669 -857 1808
1370 -515 1805
1480 -617 1807
1584 -716 1815
1688 -819 1807
1378 -485 1807
1492 -584 1809
1599 -680 1815
1709 -781 1809
1383 -454 1807
1502 -550 1810
1614 -644 1816
1726 -742 1807
1387 -423 1805
1511 -517 1809
1627 -608 1816
1743 -702 1807
1393 -393 1807
1520 -483 1811
1637 -570 1814
1762 -663 1808
1397 -362 1807
1523 -448 1805
1651 -534 1816
1775 -622 1807
1402 -333 1809
1534 -416 1809
1663 -498 1818
1786 -580 1803
1399 -301 1801
1540 -382 1809
1670 -460 1815
1803 -540 1806
1408 -272 1810
1543 -347 1806
1682 -422 1818
1815 -498 1806
1405 -241 1803
1550 -313 1809
1688 -384 1816
1825 -456 1805
1405 -211 1802
1555 -280 1810
1693 -346 1814
1836 -414 1805
1409 -182 1805
1556 -245 1807
1703 -308 1817
1845 -372 1805
1407 -152 1803
1560 -212 1808
1710 -271 1819
1853 -330 1804
1408 -123 1803
1562 -178 1808
1710 -232 1814
1861 -287 1805
1408 -94 1805
1563 -144 1807
1714 -194 1814
1867 -244 1805
1403 -64 1800
1567 -110 1811
1720 -155 1818
1872 -200 1805
1406 -35 1805
1567 -76 1810
1718 -117 1814
1876 -157 1805
1405 -7 1807
1563 -42 1807
1722 -78 1816
1875 -114 1802
1401 21 1804
1568 -9 1813
1721 -40 1815
1880 -71 1805
1398 50 1804
1562 23 1809
1715 -2 1809
1876 -27 1800
1399 78 1809
1559 57 1807
1715 35 1810
1877 15 1801
1391 106 1804
1556 90 1808
1712 74 1810
1875 59 1801
1389 135 1807
1553 124 1809
1709 112 1809
1875 103 1803
1383 163 1804
1549 157 1809
1707 150 1811
1872 146 1804
1378 191 1804
1545 190 1810
1702 188 1811
1867 189 1804
1373 218 1805
1540 222 1811
1691 225 1806
1860 231 1802
1371 246 1809
1534 255 1811
1691 263 1812
1854 275 1804
1363 274 1807
1528 288 1812
1678 299 1806
1845 317 1802
1356 301 1806
1521 321 1812
1672 337 1808
1837 360 1804
1350 329 1808
1510 352 1810
1665 374 1811
1833 404 1810
1342 355 1806
1505 385 1813
1652 410 1808
1815 444 1804
1335 382 1807
1495 417 1813
1640 446 1806
1805 486 1805
1327 409 1807
1473 444 1798
1631 483 1808
1789 526 1803
1316 435 1803
1474 479 1811
1619 518 1807
1776 567 1804
1309 462 1806
1465 511 1814
1607 555 1809
1762 609 1805
1300 489 1806
1452 541 1812
1594 590 1810
1744 648 1804
1289 514 1804
1438 571 1810
1577 624 1808
1727 688 1804
1279 540 1804
1427 602 1812
1564 660 1810
1710 728 1806
1269 567 1805
1403 628 1799
1548 693 1809
1690 765 1805
1259 592 1804
1390 657 1799
1532 728 1811
1666 801 1800
1248 618 1805
1385 691 1812
1514 761 1810
1643 838 1798
1235 643 1803
1361 716 1800
1497 795 1812
1625 877 1803
1224 668 1804
1353 749 1810
1476 826 1809
1599 911 1799
1216 696 1810
1340 779 1814
1456 858 1808
1580 950 1805
1199 719 1805
1322 807 1812
1436 890 1809
1556 984 1805
1185 743 1802
1303 834 1809
1416 921 1809
1526 1016 1800
1174 770 1807
1288 863 1813
1397 953 1813
1505 1052 1806
1159 793 1804
1269 890 1812
1374 983 1812
1475 1084 1803
1146 819 1807
1251 918 1814
1348 1011 1808
1447 1115 1802
1131 843 1806
1229 943 1810
1324 1040 1809
1418 1147 1802
1114 866 1803
1210 970 1811
1303 1070 1812
1388 1176 1801
1099 890 1803
1190 995 1809
1274 1095 1806
1359 1206 1802
1082 913 1802
1168 1020 1808
1250 1123 1807
1329 1236 1803
1068 939 1806
1139 1038 1796
1224 1150 1807
1298 1264 1803
1050 962 1805
1127 1072 1811
1197 1176 1808
1267 1292 1804
1033 985 1804
1103 1095 1809
1171 1202 1809
1233 1318 1803
1014 1007 1803
1080 1118 1808
1143 1227 1808
1201 1345 1805
994 1028 1800
1057 1143 1810
1115 1252 1809
1167 1368 1803
976 1051 1800
1034 1166 1810
1086 1274 1807
1132 1390 1802
961 1077 1806
1010 1189 1811
1059 1299 1810
1099 1415 1804
940 1098 1805
984 1210 1808
1029 1322 1811
1063 1435 1802
920 1120 1805
961 1234 1812
996 1340 1806
1026 1455 1800
898 1140 1802
934 1254 1809
969 1366 1812
990 1475 1800
879 1163 1805
909 1276 1811
935 1382 1807
956 1497 1804
854 1181 1799
882 1295 1810
904 1400 1806
918 1513 1801
835 1204 1803
855 1314 1808
873 1421 1807
881 1529 1800
811 1223 1801
829 1336 1812
840 1437 1805
844 1546 1801
787 1242 1798
800 1353 1809
810 1459 1811
807 1563 1803
766 1266 1804
771 1370 1808
775 1472 1806
770 1578 1804
742 1285 1802
744 1390 1811
742 1489 1808
731 1590 1802
