ply
format ascii 1.0
element vertex 3840
property float x
property float y
property float z
end_header
0 0 0
0 0 0
0 0 0
-202 -151 50
-194 -178 45
-202 -176 48
-203 -168 50
0 0 0
0 0 0
0 0 0
0 0 0
-196 -161 50
-186 -188 45
-196 -187 49
-195 -178 50
0 0 0
0 0 0
0 0 0
0 0 0
-189 -170 49
-180 -199 46
-187 -197 49
-192 -192 51
0 0 0
0 0 0
0 0 0
0 0 0
-181 -179 49
-170 -208 47
-178 -206 49
-183 -201 50
0 0 0
0 0 0
0 0 0
0 0 0
-173 -187 48
-160 -215 47
-168 -214 49
-173 -209 50
0 0 0
0 0 0
0 0 0
0 0 0
-170 -202 49
-154 -229 49
-159 -224 49
-165 -219 50
0 0 0
0 0 0
0 0 0
0 0 0
-161 -209 49
-145 -239 50
-150 -233 50
-156 -228 50
0 0 0
0 0 0
0 0 0
0 0 0
-153 -220 49
-135 -248 51
-140 -241 50
-147 -238 51
0 0 0
0 0 0
0 0 0
0 0 0
-146 -231 49
-123 -255 52
-133 -255 52
-137 -246 51
0 0 0
0 0 0
0 0 0
0 0 0
-136 -239 49
-114 -266 53
-124 -268 53
-125 -252 51
0 0 0
0 0 0
0 0 0
0 0 0
-126 -248 49
-103 -278 55
-113 -278 54
-118 -269 52
0 0 0
0 0 0
0 0 0
0 0 0
-117 -260 49
-94 -292 57
-101 -285 55
-108 -280 53
0 0 0
0 0 0
0 0 0
0 0 0
-106 -267 49
-82 -302 59
-90 -297 56
-98 -293 54
0 0 0
0 0 0
0 0 0
0 0 0
-97 -283 50
-70 -318 62
-79 -312 58
-86 -304 55
0 0 0
0 0 0
0 0 0
0 0 0
-86 -294 51
-57 -330 64
-69 -337 62
-75 -321 57
0 0 0
0 0 0
0 0 0
0 0 0
-76 -312 52
-45 -352 68
-54 -347 64
-62 -338 59
0 0 0
0 0 0
0 0 0
0 0 0
-62 -321 53
-29 -365 71
-39 -361 66
-48 -351 61
0 0 0
0 0 0
0 0 0
0 0 0
-50 -342 55
-13 -387 75
-24 -377 69
-33 -368 63
0 0 0
0 0 0
0 0 0
0 0 0
-35 -350 55
3 -402 79
-6 -395 72
-17 -384 65
0 0 0
0 0 0
0 0 0
0 0 0
-19 -375 58
23 -424 84
0 0 0
0 -400 68
0 0 0
0 0 0
0 0 0
0 0 0
0 0 0
46 -457 91
32 -441 81
0 0 0
0 0 0
0 0 0
0 0 0
0 0 0
16 -414 62
70 -483 98
56 -467 86
42 -451 76
0 0 0
0 0 0
0 0 0
0 0 0
38 -437 65
99 -516 106
83 -498 92
68 -484 81
0 0 0
0 0 0
0 0 0
0 0 0
64 -476 70
0 0 0
0 0 0
97 -514 87
0 0 0
0 0 0
0 0 0
0 0 0
91 -496 73
0 0 0
0 0 0
0 0 0
0 0 0
0 0 0
0 0 0
0 0 0
125 -537 78
0 0 0
0 0 0
0 0 0
0 0 0
0 0 0
0 0 0
0 0 0
0 0 0
0 0 0
0 0 0
0 0 0
0 0 0
0 0 0
0 0 0
0 0 0
0 0 0
0 0 0
0 0 0
0 0 0
0 0 0
0 0 0
0 0 0
0 0 0
0 0 0
0 0 0
0 0 0
0 0 0
0 0 0
0 0 0
0 0 0
0 0 0
0 0 0
0 0 0
0 0 0
0 0 0
0 0 0
0 0 0
0 0 0
0 0 0
0 0 0
0 0 0
0 0 0
0 0 0
0 0 0
0 0 0
0 0 0
0 0 0
0 0 0
0 0 0
0 0 0
0 0 0
0 0 0
0 0 0
0 0 0
0 0 0
0 0 0
67 -91 23
0 0 0
91 -132 25
0 0 0
0 0 0
0 0 0
0 0 0
82 -118 18
0 0 0
0 0 0
0 0 0
0 0 0
0 0 0
0 0 0
0 0 0
87 -113 18
1412 -1601 446
1396 -1623 389
0 0 0
0 0 0
1439 -1563 444
1420 -1578 385
1401 -1598 330
0 0 0
1475 -1532 444
1459 -1550 386
1440 -1568 330
1417 -1585 268
1512 -1504 446
1494 -1516 385
1476 -1534 329
1456 -1552 267
1548 -1473 446
1529 -1484 385
1513 -1501 328
1497 -1522 266
1580 -1439 446
1570 -1455 386
1555 -1473 329
1531 -1483 265
1622 -1414 449
1607 -1424 387
1589 -1436 328
1574 -1453 265
1659 -1384 451
1639 -1388 386
1632 -1408 329
1612 -1419 264
1689 -1348 450
1681 -1360 389
1672 -1376 330
1650 -1384 264
1723 -1315 451
1717 -1327 389
1705 -1338 329
1697 -1354 265
1762 -1285 453
1751 -1290 389
1751 -1309 331
1733 -1317 264
1803 -1255 456
1794 -1261 392
1787 -1273 332
1770 -1279 264
1838 -1221 457
1828 -1224 392
1819 -1234 331
1815 -1246 265
0 0 0
0 0 0
0 0 0
0 0 0
727 -439 175
740 -449 154
742 -455 130
748 -462 105
742 -426 176
763 -440 156
760 -441 131
774 -453 107
775 -423 182
1997 -1092 402
1999 -1100 340
1990 -1102 270
2042 -1058 473
2032 -1053 404
2031 -1058 340
0 0 0
2075 -1018 474
2078 -1018 407
0 0 0
863 -425 113
2124 -986 479
0 0 0
880 -407 143
861 -399 111
0 0 0
878 -382 168
881 -383 141
905 -393 115
903 -373 199
882 -361 166
852 -348 135
844 -343 106
873 -338 190
832 -319 155
837 -319 131
828 -313 103
828 -300 178
817 -292 150
805 -286 125
793 -278 98
806 -273 171
790 -263 144
770 -253 118
766 -248 93
778 -245 164
763 -235 138
755 -229 114
742 -221 89
761 -221 159
750 -212 134
728 -202 109
733 -199 88
746 -200 154
726 -188 129
724 -183 108
728 -179 86
707 -173 145
714 -168 125
719 -165 106
0 0 0
674 -149 136
671 -142 117
0 0 0
605 -119 71
653 -130 131
0 0 0
624 -113 91
0 0 0
650 -115 129
634 -105 108
0 0 0
593 -87 68
0 0 0
0 0 0
613 -81 88
0 0 0
645 -85 126
631 -75 107
0 0 0
609 -60 70
0 0 0
0 0 0
626 -54 89
0 0 0
678 -60 131
773 -57 129
0 0 0
1157 -58 132
0 0 0
1178 -61 196
1154 -46 162
1130 -29 129
1173 -53 224
1138 -34 188
1119 -19 157
1104 -2 126
1137 -27 216
1103 -8 181
1081 6 151
1064 22 121
1107 -2 209
1079 15 177
1050 30 147
1042 47 119
1080 20 203
1058 39 173
1024 53 143
1003 69 114
1051 43 196
1027 61 167
998 75 139
974 90 111
1031 64 192
1006 82 163
974 96 135
955 112 109
1003 84 185
975 102 158
956 116 133
937 132 108
976 104 180
951 121 154
926 135 129
905 150 104
960 123 176
936 140 151
907 153 126
904 172 105
938 141 171
916 158 148
909 175 127
2114 455 247
912 157 166
915 179 147
2123 460 297
2077 499 244
903 176 164
2101 461 339
2075 501 291
2043 543 241
2121 462 384
2053 499 331
2039 542 287
2012 586 239
2075 500 375
2041 545 329
2003 583 283
1970 625 236
2040 538 368
2011 586 324
1968 622 279
1943 668 235
2021 581 364
1951 616 315
1939 663 276
1903 705 232
1979 616 356
1936 660 313
1906 701 273
1870 744 231
1952 654 351
1909 699 310
1874 738 270
1843 784 230
1919 690 345
1879 736 306
1846 778 267
0 0 0
1878 722 337
1856 775 303
1826 819 266
2113 1021 270
1854 760 333
1820 809 298
2056 979 302
2263 1159 293
1824 795 327
1975 932 325
2247 1135 333
2235 1212 294
0 0 0
2228 1113 369
2239 1196 335
2190 1256 292
0 0 0
2250 1188 374
2204 1244 333
2154 1305 292
2263 1169 408
2211 1232 370
2162 1287 330
2118 1353 292
2229 1213 402
2177 1278 367
2126 1332 328
2078 1397 291
2191 1257 397
2142 1323 363
2092 1380 327
2039 1441 291
2158 1301 392
2097 1362 358
2057 1426 326
1998 1485 291
2121 1343 386
2066 1409 356
2021 1471 324
1963 1531 291
2084 1386 381
2026 1449 352
1976 1509 322
1928 1579 292
2045 1426 376
1992 1494 350
1943 1556 321
1888 1622 293
2013 1471 371
1959 1540 348
1913 1605 321
1850 1665 293
1979 1514 367
1923 1583 345
1868 1643 319
1810 1708 294
1944 1556 363
1882 1622 342
1837 1691 319
1772 1753 295
1907 1597 359
1851 1670 340
1797 1734 318
1733 1797 296
1873 1642 355
1812 1710 338
1757 1775 317
1700 1848 299
1837 1684 351
1774 1752 335
1722 1821 317
1658 1889 300
1801 1726 347
1738 1797 334
1681 1863 317
1616 1930 301
1764 1767 343
1703 1841 332
1643 1907 317
1580 1980 304
1727 1808 339
1661 1880 330
1608 1954 318
1542 2027 306
1689 1851 336
1627 1928 329
1567 1997 318
1501 2072 308
1656 1898 333
1588 1970 327
1529 2044 318
1460 2119 311
1617 1939 330
1549 2015 326
1491 2092 319
1421 2168 314
1580 1985 327
1511 2060 325
1449 2136 320
1377 2211 316
1541 2027 323
1471 2105 324
1408 2181 321
1339 2266 320
1504 2073 321
1431 2149 323
1371 2235 323
1294 2311 323
1462 2113 318
1395 2203 324
1328 2281 324
1251 2361 327
1430 2170 317
1352 2245 323
1282 2324 325
1209 2415 331
1386 2212 314
1312 2295 323
1239 2373 327
1165 2468 335
1343 2253 311
1270 2345 323
1200 2432 330
1119 2520 340
1304 2305 309
1227 2395 323
1150 2475 331
1071 2572 344
1263 2356 307
1183 2445 323
1108 2534 334
1025 2631 350
1220 2404 305
1140 2500 324
1064 2594 338
975 2686 355
1177 2457 304
1095 2553 325
1017 2653 341
926 2747 361
1133 2510 302
1044 2599 324
967 2705 344
873 2803 366
1088 2565 301
999 2661 326
915 2759 347
821 2865 373
1037 2610 299
952 2722 328
864 2815 350
768 2927 380
992 2668 298
901 2774 329
812 2879 355
712 2993 387
943 2726 297
850 2837 331
758 2946 359
654 3058 394
893 2789 297
797 2901 333
703 3017 365
597 3145 404
840 2846 296
741 2963 335
644 3082 370
529 3185 409
786 2909 295
683 3025 337
583 3156 375
442 3111 398
732 2981 295
626 3106 341
509 3158 373
362 3042 389
673 3045 295
564 3175 344
425 3093 362
285 2975 380
615 3122 296
485 3147 336
345 3022 352
212 2914 372
551 3183 295
401 3071 324
269 2957 342
143 2867 367
467 3128 283
322 3004 313
196 2899 334
76 2807 359
384 3050 271
246 2938 302
127 2844 326
11 2743 352
306 2991 259
175 2882 293
60 2782 317
-49 2694 346
230 2924 248
106 2821 284
-2 2723 309
-109 2644 340
159 2870 239
40 2765 275
-64 2672 302
-166 2595 335
90 2803 229
-22 2712 267
-123 2629 297
-221 2549 330
24 2755 220
-84 2656 259
-180 2578 290
-275 2508 326
-39 2697 212
-143 2616 253
-235 2530 284
-327 2462 321
-100 2650 204
-199 2558 245
-289 2491 280
-378 2421 317
-159 2601 196
-255 2520 239
-341 2446 274
-426 2377 313
-217 2550 189
-309 2477 234
-391 2398 269
-473 2334 309
-273 2510 183
-362 2435 228
-441 2363 265
-520 2298 306
-326 2465 176
-411 2385 222
-488 2318 260
-563 2251 302
-378 2412 170
-461 2351 217
-534 2277 256
-606 2207 298
-429 2369 164
-509 2305 212
-580 2239 252
-649 2171 295
-479 2334 159
-554 2261 207
-624 2199 248
-694 2144 294
-524 2277 152
-600 2221 202
-668 2163 245
-735 2107 291
-573 2245 148
-642 2175 197
-709 2121 241
-775 2071 289
-619 2204 143
-686 2140 194
-754 2095 239
-842 2104 296
-663 2163 138
-732 2111 190
-799 2072 237
-930 2180 310
-707 2125 134
-773 2072 187
-894 2166 249
-4273 9423 1354
-750 2086 130
-843 2110 190
-953 2168 251
0 0 0
-799 2066 127
-933 2184 196
-4865 10408 1213
0 0 0
-898 2166 132
-2199 4831 435
-2641 5329 625
-6721 12508 1858
-2092 4724 284
-2502 5170 466
-3250 6197 733
-3725 6572 988
-2338 4957 295
-2953 5757 520
-3499 6318 754
-4438 7437 1133
-2690 5363 316
-3365 6198 561
-4214 7209 867
-5269 8398 1296
-3210 6037 353
-3987 6949 630
-4954 8047 977
-5539 8401 1314
-3891 6911 401
-5255 8682 791
-5471 8443 1036
-9009 13022 2067
-4394 7381 424
-5425 8503 778
-7809 11469 1423
-2183 3008 484
-5534 8810 503
-7115 10597 975
-2159 3019 379
-2246 2955 483
-5543 8365 475
-2146 3040 281
-2229 2970 377
-853 1072 178
-7011 10049 568
-2214 2985 278
-840 1068 137
-864 1036 175
-2200 2997 169
-849 1090 102
-860 1044 136
-988 1133 195
-841 1089 61
-856 1047 99
-964 1115 147
-1029 1129 198
-850 1048 58
-957 1116 107
-1026 1134 152
-978 1025 183
0 0 0
-1013 1126 109
-984 1038 142
-1050 1054 192
0 0 0
-985 1044 102
-1048 1056 147
-991 950 177
0 0 0
0 0 0
-982 946 134
-1026 941 179
0 0 0
0 0 0
-983 904 131
-643 564 110
0 0 0
0 0 0
-637 560 82
-1016 851 170
-107 98 5
0 0 0
-1032 865 130
-1059 849 173
0 0 0
0 0 0
-1044 835 129
-973 744 156
0 0 0
0 0 0
-957 730 116
-900 657 141
0 0 0
0 0 0
-891 648 105
-844 588 130
-109 82 4
0 0 0
-816 565 94
-789 524 120
0 0 0
0 0 0
-768 506 87
-741 468 110
0 0 0
0 0 0
-723 452 80
-691 416 101
0 0 0
0 0 0
-681 405 74
-656 375 94
0 0 0
0 0 0
-652 368 70
-631 342 89
0 0 0
0 0 0
-612 327 64
-607 312 85
0 0 0
0 0 0
-593 299 61
-580 282 80
0 0 0
0 0 0
0 0 0
0 0 0
0 0 0
0 0 0
-553 248 55
-540 234 72
0 0 0
0 0 0
0 0 0
0 0 0
0 0 0
0 0 0
-518 204 50
-506 193 66
0 0 0
0 0 0
0 0 0
0 0 0
0 0 0
-492 175 31
-494 169 46
-478 158 60
0 0 0
0 0 0
0 0 0
0 0 0
0 0 0
-463 140 29
-466 136 43
-453 128 56
0 0 0
0 0 0
0 0 0
0 0 0
0 0 0
-441 111 27
-436 105 39
-433 101 52
0 0 0
0 0 0
0 0 0
0 0 0
-414 86 12
-416 84 25
-418 81 37
-409 77 48
0 0 0
0 0 0
0 0 0
0 0 0
-394 62 11
-400 61 23
-399 58 34
-396 56 46
0 0 0
0 0 0
0 0 0
0 0 0
-373 40 11
-382 40 22
-380 38 32
-375 36 43
0 0 0
0 0 0
0 0 0
0 0 0
-360 21 10
-361 20 20
-369 19 31
-362 19 40
0 0 0
0 0 0
0 0 0
0 0 0
-342 3 10
-356 3 20
-352 2 29
-352 3 39
0 0 0
0 0 0
0 0 0
0 0 0
-331 -12 10
-349 -13 19
-345 -13 28
-340 -12 37
0 0 0
0 0 0
0 0 0
0 0 0
-312 -27 9
-322 -27 18
-331 -28 27
-326 -26 35
0 0 0
0 0 0
0 0 0
0 0 0
-303 -41 9
-306 -40 17
-320 -42 26
-315 -39 33
0 0 0
0 0 0
0 0 0
0 0 0
-289 -54 9
-300 -54 17
-304 -54 24
-302 -51 32
0 0 0
0 0 0
0 0 0
0 0 0
-282 -67 9
-292 -67 16
-297 -67 24
-294 -64 30
0 0 0
0 0 0
0 0 0
0 0 0
-267 -77 9
-281 -79 16
-283 -78 22
-288 -76 30
0 0 0
0 0 0
0 0 0
0 0 0
-259 -89 9
-268 -89 15
-272 -88 22
-271 -85 28
0 0 0
0 0 0
0 0 0
0 0 0
-254 -101 9
-262 -101 15
-265 -100 21
-263 -95 27
0 0 0
0 0 0
0 0 0
0 0 0
-247 -113 10
-255 -113 15
-259 -111 21
-254 -105 26
0 0 0
0 0 0
0 0 0
0 0 0
-237 -123 10
-248 -124 15
-251 -122 20
-247 -116 25
0 0 0
0 0 0
0 0 0
0 0 0
-231 -134 10
-239 -134 15
-242 -132 20
-239 -125 24
0 0 0
0 0 0
0 0 0
0 0 0
-223 -144 10
-232 -145 15
-236 -143 20
-233 -136 23
0 0 0
0 0 0
0 0 0
0 0 0
-212 -152 11
-222 -154 15
-229 -154 19
-227 -147 23
0 0 0
0 0 0
0 0 0
0 0 0
-209 -166 11
-214 -164 15
-221 -164 19
-219 -156 22
0 0 0
0 0 0
0 0 0
0 0 0
-194 -170 11
-206 -174 15
-214 -174 19
-211 -165 21
0 0 0
0 0 0
0 0 0
0 0 0
-191 -185 12
-198 -184 15
-199 -179 18
-204 -175 21
0 0 0
0 0 0
0 0 0
0 0 0
-182 -194 13
-192 -196 15
-197 -193 18
-196 -184 20
0 0 0
0 0 0
0 0 0
0 0 0
-173 -203 13
-183 -205 16
-187 -202 18
-186 -191 19
0 0 0
0 0 0
0 0 0
0 0 0
-165 -213 14
-172 -213 16
-173 -205 17
-178 -201 19
0 0 0
0 0 0
0 0 0
0 0 0
-154 -220 14
-164 -223 16
-170 -221 18
-170 -211 19
0 0 0
0 0 0
0 0 0
0 0 0
-145 -229 15
-153 -231 16
-159 -229 18
-160 -218 18
0 0 0
0 0 0
0 0 0
0 0 0
-135 -238 15
-144 -241 16
-149 -238 17
-152 -228 17
0 0 0
0 0 0
0 0 0
0 0 0
-125 -248 16
-134 -249 17
-141 -249 17
-142 -236 17
0 0 0
0 0 0
0 0 0
0 0 0
-114 -255 17
-125 -262 17
-129 -255 17
-133 -247 17
0 0 0
0 0 0
0 0 0
0 0 0
-106 -270 18
-116 -276 18
-122 -273 18
-123 -255 16
0 0 0
0 0 0
0 0 0
0 0 0
-94 -278 19
-104 -282 18
-112 -284 18
-113 -264 16
0 0 0
0 0 0
0 0 0
0 0 0
-85 -296 20
-93 -295 19
-100 -292 18
-106 -285 16
0 0 0
0 0 0
0 0 0
0 0 0
-73 -307 21
-83 -313 20
-88 -304 18
-94 -293 15
0 0 0
0 0 0
0 0 0
0 0 0
-60 -319 23
-68 -318 20
0 0 0
-77 -286 14
0 0 0
0 0 0
0 0 0
0 0 0
-48 -340 24
-57 -344 22
-64 -335 19
-71 -322 15
0 0 0
0 0 0
0 0 0
0 0 0
0 0 0
-42 -356 23
-50 -349 19
-58 -337 15
0 0 0
0 0 0
0 0 0
0 0 0
-17 -374 28
-27 -375 24
-35 -365 20
-40 -323 13
0 0 0
0 0 0
0 0 0
0 0 0
0 -386 30
-10 -394 25
-19 -382 20
-29 -371 15
0 0 0
0 0 0
0 0 0
0 0 0
18 -415 33
8 -414 27
-1 -405 21
-12 -388 14
0 0 0
0 0 0
0 0 0
0 0 0
40 -444 36
29 -439 29
17 -425 22
5 -408 14
0 0 0
0 0 0
0 0 0
0 0 0
64 -471 39
52 -466 31
39 -448 23
26 -432 14
0 0 0
0 0 0
0 0 0
0 0 0
94 -512 44
78 -492 33
65 -480 25
49 -460 15
0 0 0
0 0 0
0 0 0
0 0 0
121 -523 46
110 -529 36
94 -513 26
77 -496 15
0 0 0
0 0 0
0 0 0
0 0 0
0 0 0
0 0 0
122 -528 27
107 -523 15
0 0 0
0 0 0
0 0 0
0 0 0
0 0 0
0 0 0
0 0 0
0 0 0
0 0 0
0 0 0
0 0 0
0 0 0
0 0 0
0 0 0
0 0 0
0 0 0
0 0 0
0 0 0
0 0 0
0 0 0
0 0 0
0 0 0
0 0 0
0 0 0
0 0 0
0 0 0
0 0 0
0 0 0
0 0 0
0 0 0
0 0 0
0 0 0
0 0 0
0 0 0
0 0 0
0 0 0
0 0 0
0 0 0
0 0 0
0 0 0
0 0 0
0 0 0
0 0 0
0 0 0
0 0 0
0 0 0
0 0 0
0 0 0
0 0 0
0 0 0
0 0 0
0 0 0
78 -117 13
0 0 0
0 0 0
0 0 0
0 0 0
0 0 0
0 0 0
0 0 0
85 -116 13
94 -132 11
98 -144 7
0 0 0
0 0 0
0 0 0
0 0 0
0 0 0
0 0 0
0 0 0
106 -140 7
100 -138 2
0 0 0
0 0 0
0 0 0
0 0 0
1408 -1595 208
1385 -1614 148
0 0 0
0 0 0
1442 -1562 208
1421 -1582 148
1396 -1601 91
0 0 0
1480 -1533 209
1463 -1555 149
1439 -1575 91
323 -365 5
1514 -1500 210
1500 -1525 149
1475 -1540 90
0 0 0
1554 -1473 211
1536 -1492 149
1511 -1507 89
321 -330 4
1591 -1442 212
1570 -1456 149
1548 -1473 89
0 0 0
1624 -1407 213
1606 -1423 149
1591 -1445 89
341 -318 4
1660 -1376 214
1642 -1391 149
1626 -1410 88
1598 -1421 19
1697 -1344 215
1683 -1360 150
1664 -1376 88
1639 -1389 18
1732 -1311 216
1721 -1328 150
1708 -1346 88
1681 -1357 17
1773 -1281 217
1756 -1292 151
1746 -1312 87
1718 -1320 16
1811 -1248 218
1796 -1260 151
1782 -1274 87
1766 -1291 15
0 0 0
0 0 0
0 0 0
1800 -1251 14
751 -470 88
768 -488 62
777 -503 36
0 0 0
759 -452 87
770 -465 61
771 -474 35
790 -495 5
798 -452 91
797 -457 62
794 -463 35
801 -475 5
869 -467 97
849 -461 65
836 -461 36
844 -474 5
856 -436 95
853 -439 65
864 -451 37
858 -455 4
862 -415 94
873 -425 65
883 -435 37
878 -439 4
880 -401 95
907 -416 67
913 -424 37
2130 -1001 10
913 -392 97
934 -403 68
2176 -950 88
2152 -949 9
837 -338 88
843 -341 61
0 0 0
2204 -910 8
818 -309 85
834 -316 59
825 -315 32
0 0 0
807 -285 83
819 -289 57
821 -292 31
477 -170 1
766 -252 78
767 -252 53
767 -253 29
0 0 0
739 -225 74
748 -227 51
754 -229 28
480 -146 1
737 -207 73
743 -207 50
735 -205 27
0 0 0
731 -188 72
739 -188 49
741 -188 26
486 -123 1
736 -172 71
0 0 0
0 0 0
0 0 0
608 -128 58
598 -123 39
566 -116 20
506 -102 1
593 -112 56
0 0 0
0 0 0
0 0 0
0 0 0
571 -91 36
550 -86 19
526 -80 1
593 -85 55
0 0 0
0 0 0
0 0 0
0 0 0
578 -66 36
573 -62 19
552 -57 1
597 -59 54
0 0 0
0 0 0
0 0 0
0 0 0
609 -41 37
605 -38 20
754 -42 1
869 -47 78
0 0 0
0 0 0
1088 -34 2
1133 -37 101
1099 -25 66
1082 -17 35
1070 -8 2
1095 -12 96
1074 0 64
1049 7 33
1038 16 2
1062 11 93
1046 22 62
1023 31 32
1005 40 2
1042 34 90
1028 45 61
994 53 31
972 62 2
1015 55 87
1000 66 58
974 74 30
953 84 2
983 75 84
963 86 56
949 95 29
926 104 2
962 94 81
940 105 54
922 114 28
909 124 2
932 112 78
923 124 53
895 132 27
877 141 2
925 132 76
895 141 51
881 151 27
2162 402 6
895 148 73
894 162 50
2138 417 65
2126 447 6
2156 405 176
2129 436 119
2102 460 64
2086 491 6
2124 447 171
2096 479 117
2077 506 63
2051 535 7
2090 489 167
2063 520 114
2039 547 62
2015 577 7
2052 528 163
2026 560 111
2002 588 60
1980 619 7
2017 566 158
1996 601 109
1972 629 59
1945 660 8
1996 608 155
1965 640 107
1935 667 58
1914 701 8
1958 643 151
1925 675 104
1904 706 57
1884 741 9
1924 680 147
1901 716 102
1864 741 56
1846 777 9
1898 718 144
1858 748 99
1837 780 55
0 0 0
1870 755 140
1832 786 97
1879 850 56
0 0 0
1834 788 136
1873 855 99
2130 1024 64
0 0 0
0 0 0
2126 1030 112
2246 1145 68
2124 1144 14
0 0 0
2257 1157 118
2236 1206 68
2107 1200 15
2264 1156 163
2235 1209 116
2198 1251 67
2095 1261 15
2239 1206 160
2197 1254 114
2165 1300 66
2077 1317 16
2203 1251 156
2160 1298 111
2127 1345 65
2042 1364 17
2165 1293 152
2123 1343 109
2086 1389 64
1984 1395 18
2131 1338 148
2086 1387 106
2042 1429 63
1925 1423 19
2098 1382 144
2054 1434 104
2008 1476 62
1955 1518 20
2059 1423 140
2013 1474 102
1970 1519 62
1932 1575 21
2019 1463 135
1980 1519 100
1934 1563 61
1897 1623 22
1987 1508 132
1938 1559 97
1898 1609 61
1855 1665 23
1952 1551 128
1902 1603 95
1860 1652 60
1815 1708 24
1916 1593 124
1865 1645 93
1823 1697 59
1778 1755 25
1879 1635 120
1826 1685 91
1783 1739 59
1739 1800 26
1841 1676 116
1794 1734 89
1752 1789 58
1698 1842 28
1807 1720 112
1755 1775 87
1712 1831 58
1660 1888 29
1775 1766 109
1722 1822 85
1678 1881 57
1623 1937 30
1734 1805 105
1684 1865 83
1638 1924 57
1581 1980 31
1701 1852 101
1646 1909 81
1595 1964 56
1543 2028 33
1662 1892 97
1606 1951 79
1558 2012 56
1503 2076 34
1620 1930 93
1569 1997 77
1518 2056 55
1462 2122 35
1587 1979 90
1530 2041 74
1480 2105 55
1422 2171 37
1548 2022 86
1490 2085 72
1441 2153 55
1380 2220 38
1508 2064 82
1452 2134 71
1398 2198 54
1322 2242 40
1469 2110 78
1412 2180 69
1360 2251 54
1290 2310 41
1432 2158 74
1373 2230 66
1316 2299 54
1252 2370 43
1388 2199 70
1331 2276 64
1273 2347 54
1205 2418 45
1353 2254 66
1290 2327 62
1229 2396 53
1162 2475 47
1308 2294 62
1244 2371 60
1183 2446 53
1112 2519 49
1267 2345 58
1203 2426 58
1140 2500 53
1066 2577 50
1226 2397 54
1159 2477 56
1092 2551 53
1022 2643 53
1185 2454 50
1114 2530 54
1047 2611 53
970 2695 54
1139 2502 45
1068 2585 52
1000 2672 53
919 2752 57
1093 2554 41
1016 2631 50
948 2723 52
868 2817 59
1047 2608 37
970 2694 48
898 2788 52
813 2874 61
1000 2667 32
923 2759 46
844 2842 52
757 2936 64
951 2723 28
869 2811 43
791 2906 52
703 3014 66
902 2785 23
817 2873 41
736 2975 52
642 3073 69
848 2836 18
762 2936 39
677 3036 52
580 3141 72
795 2900 13
706 3005 36
618 3109 52
510 3174 74
738 2959 8
647 3070 34
556 3184 52
424 3097 73
682 3031 3
588 3146 31
473 3132 50
342 3017 72
624 3101 -1
512 3142 28
390 3057 48
266 2960 72
561 3167 -7
427 3063 24
312 2996 46
194 2898 72
474 3086 -12
348 2997 21
237 2933 44
124 2842 71
393 3029 -17
271 2936 17
165 2868 42
57 2786 71
315 2959 -21
199 2865 14
96 2810 41
-6 2729 71
240 2884 -26
130 2803 11
31 2763 39
-68 2675 71
170 2837 -30
63 2749 8
-31 2701 38
-127 2628 71
101 2769 -34
0 2694 5
-93 2659 36
-185 2583 70
36 2712 -38
-61 2649 2
-150 2599 35
-240 2532 70
-25 2659 -41
-120 2597 0
-207 2552 33
-294 2490 70
-86 2612 -45
-177 2549 -1
-262 2510 32
-347 2452 70
-144 2562 -48
-232 2499 -4
-314 2458 31
-396 2402 70
-200 2516 -51
-285 2455 -6
-365 2413 30
-446 2367 70
-255 2474 -55
-338 2414 -8
-413 2362 28
-493 2324 70
-308 2427 -58
-387 2370 -10
-465 2338 27
-536 2270 70
-359 2382 -60
-443 2364 -13
-512 2297 26
-582 2233 70
-415 2373 -64
-492 2322 -15
-558 2256 25
-626 2197 70
-466 2341 -67
-537 2277 -16
-604 2219 24
-669 2160 70
-513 2295 -70
-583 2235 -18
-649 2185 24
-712 2124 70
-560 2254 -72
-628 2196 -20
-692 2146 22
-754 2089 70
-606 2216 -75
-670 2153 -22
-733 2107 22
-797 2059 70
-650 2173 -77
-715 2123 -24
-776 2077 21
-889 2153 75
-697 2143 -80
-757 2084 -25
-846 2113 21
-955 2171 77
-736 2094 -82
-806 2068 -27
-931 2177 21
-2297 4913 177
-782 2068 -85
-903 2166 -31
-2177 4782 45
-2812 5674 209
-866 2135 -91
-2118 4763 -73
0 0 0
-2948 5623 211
-942 2174 -97
-2330 4924 -81
-2872 5608 50
-3404 6149 235
-2202 4763 -223
-2851 5680 -100
-3149 5812 51
-4148 7110 277
-4893 9960 -486
-3020 5680 -107
-3989 6976 59
-4996 8130 322
-3018 5792 -294
0 0 0
-4727 7838 64
-5464 8459 342
-3508 6357 -336
0 0 0
-5492 8650 69
-6604 9730 401
-4142 7101 -391
-5274 8432 -188
-5587 8369 65
-2155 3026 127
-4983 8089 -463
-5534 8404 -198
-6520 9293 69
-2223 2977 128
-5479 8438 -503
-6485 9359 -233
-2199 2986 21
-847 1082 47
-6469 9462 -585
-2186 3002 -78
-840 1087 7
-848 1034 46
-2170 3015 -194
-2253 2948 -81
-844 1042 6
0 0 0
-2237 2956 -197
0 0 0
0 0 0
0 0 0
-840 1056 -73
0 0 0
0 0 0
0 0 0
0 0 0
0 0 0
0 0 0
-98 99 4
0 0 0
0 0 0
0 0 0
0 0 0
0 0 0
0 0 0
0 0 0
-98 91 4
0 0 0
0 0 0
0 0 0
0 0 0
0 0 0
0 0 0
0 0 0
-91 77 4
0 0 0
0 0 0
0 0 0
0 0 0
0 0 0
0 0 0
0 0 0
0 0 0
0 0 0
0 0 0
0 0 0
0 0 0
0 0 0
0 0 0
0 0 0
0 0 0
0 0 0
0 0 0
0 0 0
0 0 0
0 0 0
0 0 0
0 0 0
0 0 0
0 0 0
0 0 0
0 0 0
0 0 0
0 0 0
0 0 0
0 0 0
0 0 0
0 0 0
0 0 0
0 0 0
0 0 0
0 0 0
0 0 0
0 0 0
0 0 0
0 0 0
0 0 0
0 0 0
0 0 0
0 0 0
0 0 0
0 0 0
0 0 0
0 0 0
0 0 0
0 0 0
0 0 0
0 0 0
0 0 0
0 0 0
0 0 0
0 0 0
0 0 0
0 0 0
0 0 0
0 0 0
0 0 0
0 0 0
0 0 0
0 0 0
0 0 0
0 0 0
0 0 0
0 0 0
0 0 0
0 0 0
0 0 0
0 0 0
0 0 0
0 0 0
0 0 0
0 0 0
0 0 0
0 0 0
0 0 0
0 0 0
0 0 0
0 0 0
0 0 0
0 0 0
-421 99 -15
0 0 0
-413 88 12
0 0 0
0 0 0
-405 81 -2
0 0 0
0 0 0
-398 74 -15
0 0 0
-396 66 11
0 0 0
0 0 0
-389 59 -2
0 0 0
0 0 0
-385 53 -14
0 0 0
-380 45 10
0 0 0
0 0 0
-369 38 -2
0 0 0
0 0 0
-366 33 -14
0 0 0
-365 27 9
-365 26 -26
0 0 0
-361 21 -2
0 0 0
0 0 0
-355 15 -13
0 0 0
-352 10 9
-353 8 -25
0 0 0
-340 4 -2
0 0 0
0 0 0
-334 -1 -12
0 0 0
-334 -4 8
-339 -8 -23
0 0 0
-323 -10 -2
0 0 0
0 0 0
-322 -16 -12
0 0 0
-323 -19 7
-319 -23 -22
0 0 0
-317 -25 -2
0 0 0
0 0 0
-310 -31 -12
0 0 0
-304 -31 6
-309 -38 -21
0 0 0
-302 -38 -2
0 0 0
0 0 0
-296 -43 -11
0 0 0
-284 -42 5
-294 -50 -20
0 0 0
-290 -50 -3
0 0 0
0 0 0
-284 -56 -11
0 0 0
-273 -53 5
-288 -64 -20
0 0 0
-283 -62 -3
0 0 0
0 0 0
-277 -68 -11
0 0 0
-269 -65 4
-280 -77 -19
0 0 0
-268 -72 -3
0 0 0
0 0 0
-265 -79 -10
0 0 0
-249 -72 4
-272 -89 -18
0 0 0
-264 -85 -3
0 0 0
0 0 0
-252 -88 -10
0 0 0
-246 -83 3
-257 -98 -17
0 0 0
-254 -95 -3
0 0 0
0 0 0
-247 -100 -10
0 0 0
-241 -94 3
-249 -109 -17
0 0 0
-245 -104 -3
0 0 0
0 0 0
-238 -110 -10
0 0 0
-232 -103 2
-242 -121 -16
0 0 0
-240 -116 -3
0 0 0
0 0 0
-233 -121 -9
0 0 0
-226 -113 2
-234 -131 -16
0 0 0
-234 -127 -4
0 0 0
0 0 0
-227 -132 -9
0 0 0
-222 -124 1
-225 -141 -15
0 0 0
-228 -137 -4
0 0 0
0 0 0
-220 -142 -9
0 0 0
-215 -133 1
-218 -152 -15
0 0 0
-216 -144 -4
0 0 0
0 0 0
-211 -151 -9
0 0 0
-208 -142 0
-211 -162 -14
0 0 0
-212 -156 -4
0 0 0
0 0 0
-202 -160 -9
0 0 0
-201 -151 0
-202 -172 -14
0 0 0
-207 -168 -4
0 0 0
0 0 0
-195 -170 -9
0 0 0
-194 -160 0
-193 -181 -13
0 0 0
-198 -176 -4
0 0 0
0 0 0
-188 -180 -9
0 0 0
-186 -169 0
-185 -191 -13
0 0 0
-187 -183 -4
0 0 0
0 0 0
-179 -189 -8
0 0 0
-181 -179 -1
-175 -200 -12
0 0 0
-179 -193 -5
0 0 0
0 0 0
-171 -198 -8
0 0 0
-172 -187 -1
-167 -210 -12
0 0 0
-170 -201 -5
0 0 0
0 0 0
-162 -206 -8
0 0 0
-164 -195 -2
-157 -218 -11
0 0 0
-163 -211 -5
0 0 0
0 0 0
-152 -214 -8
0 0 0
-157 -206 -2
-149 -230 -11
0 0 0
-154 -220 -5
0 0 0
0 0 0
-144 -224 -8
0 0 0
-148 -213 -3
-143 -245 -11
0 0 0
-144 -228 -5
0 0 0
0 0 0
-133 -231 -8
0 0 0
-143 -227 -4
-131 -252 -10
0 0 0
-133 -234 -6
0 0 0
0 0 0
-127 -245 -8
0 0 0
-135 -239 -4
-121 -262 -9
0 0 0
-126 -247 -6
0 0 0
0 0 0
-117 -255 -8
0 0 0
-124 -245 -5
-109 -269 -9
0 0 0
-118 -261 -6
0 0 0
0 0 0
-105 -262 -7
0 0 0
-114 -254 -5
-98 -279 -8
0 0 0
-106 -267 -6
0 0 0
0 0 0
-94 -269 -7
0 0 0
-104 -262 -6
-90 -299 -8
0 0 0
-95 -277 -7
0 0 0
0 0 0
-87 -293 -8
0 0 0
-95 -276 -7
-76 -307 -7
0 0 0
-86 -293 -7
0 0 0
0 0 0
-76 -310 -8
0 0 0
-86 -293 -8
-61 -306 -6
0 0 0
0 0 0
0 0 0
0 0 0
-63 -319 -7
0 0 0
-74 -305 -9
0 0 0
0 0 0
-63 -325 -8
0 0 0
0 0 0
-50 -337 -7
0 0 0
-62 -320 -10
-37 -359 -6
0 0 0
-49 -336 -9
0 0 0
0 0 0
0 0 0
0 0 0
-49 -333 -11
-21 -369 -5
0 0 0
-35 -354 -9
0 0 0
0 0 0
-20 -367 -7
0 0 0
-35 -350 -12
-4 -392 -5
0 0 0
-20 -374 -10
0 0 0
0 0 0
-3 -390 -8
0 0 0
0 0 0
0 0 0
0 0 0
-2 -394 -11
0 0 0
0 0 0
0 0 0
0 0 0
-2 -388 -15
36 -445 -3
0 0 0
16 -414 -11
0 0 0
0 0 0
36 -437 -8
0 0 0
16 -410 -17
62 -480 -2
0 0 0
38 -443 -13
0 0 0
0 0 0
61 -466 -8
0 0 0
37 -438 -19
89 -506 -1
0 0 0
62 -470 -14
0 0 0
0 0 0
90 -504 -8
0 0 0
62 -471 -22
0 0 0
0 0 0
91 -505 -15
0 0 0
0 0 0
0 0 0
0 0 0
0 0 0
0 0 0
0 0 0
119 -519 -16
0 0 0
0 0 0
0 0 0
0 0 0
0 0 0
0 0 0
0 0 0
0 0 0
0 0 0
0 0 0
0 0 0
0 0 0
0 0 0
0 0 0
0 0 0
0 0 0
0 0 0
0 0 0
0 0 0
0 0 0
0 0 0
0 0 0
0 0 0
0 0 0
0 0 0
0 0 0
0 0 0
0 0 0
0 0 0
0 0 0
0 0 0
0 0 0
0 0 0
0 0 0
0 0 0
0 0 0
0 0 0
0 0 0
0 0 0
0 0 0
0 0 0
0 0 0
0 0 0
0 0 0
0 0 0
0 0 0
0 0 0
0 0 0
0 0 0
0 0 0
0 0 0
0 0 0
0 0 0
0 0 0
0 0 0
0 0 0
0 0 0
0 0 0
0 0 0
0 0 0
0 0 0
0 0 0
0 0 0
92 -135 -5
0 0 0
0 0 0
0 0 0
0 0 0
0 0 0
0 0 0
0 0 0
0 0 0
0 0 0
1367 -1627 37
0 0 0
0 0 0
98 -129 -10
1399 -1590 39
0 0 0
0 0 0
0 0 0
1433 -1555 40
0 0 0
0 0 0
0 0 0
0 0 0
0 0 0
0 0 0
0 0 0
0 0 0
0 0 0
0 0 0
0 0 0
1547 -1467 44
0 0 0
0 0 0
0 0 0
1586 -1438 46
0 0 0
0 0 0
0 0 0
1623 -1406 47
0 0 0
0 0 0
0 0 0
1666 -1379 48
0 0 0
0 0 0
0 0 0
1701 -1345 49
1674 -1353 -15
0 0 0
0 0 0
1735 -1311 51
1712 -1319 -15
0 0 0
0 0 0
1776 -1281 52
1750 -1287 -14
0 0 0
0 0 0
1814 -1247 53
1793 -1257 -14
0 0 0
0 0 0
0 0 0
0 0 0
0 0 0
0 0 0
773 -482 22
0 0 0
0 0 0
0 0 0
789 -467 23
0 0 0
0 0 0
0 0 0
836 -470 24
0 0 0
0 0 0
0 0 0
848 -453 24
0 0 0
0 0 0
0 0 0
870 -440 25
0 0 0
0 0 0
0 0 0
911 -436 26
2084 -1009 -14
0 0 0
0 0 0
2138 -963 61
2128 -971 -14
0 0 0
0 0 0
2183 -926 62
0 0 0
0 0 0
0 0 0
0 0 0
0 0 0
0 0 0
0 0 0
828 -308 23
0 0 0
0 0 0
0 0 0
812 -282 23
0 0 0
0 0 0
0 0 0
750 -242 21
0 0 0
0 0 0
0 0 0
0 0 0
0 0 0
0 0 0
0 0 0
0 0 0
0 0 0
0 0 0
0 0 0
0 0 0
0 0 0
0 0 0
0 0 0
0 0 0
0 0 0
0 0 0
0 0 0
0 0 0
0 0 0
0 0 0
0 0 0
0 0 0
0 0 0
0 0 0
0 0 0
0 0 0
0 0 0
0 0 0
0 0 0
0 0 0
0 0 0
0 0 0
0 0 0
0 0 0
0 0 0
0 0 0
0 0 0
0 0 0
0 0 0
0 0 0
0 0 0
0 0 0
0 0 0
0 0 0
1091 -61 -83
1113 -51 27
0 0 0
1074 -39 -43
1066 -34 -81
1086 -26 26
1074 -19 -8
1053 -14 -42
1037 -8 -78
1060 -2 25
1041 5 -8
1021 10 -41
1005 16 -76
1038 21 24
1014 28 -8
991 33 -40
984 39 -74
1008 42 22
996 50 -9
959 54 -39
951 61 -72
984 63 21
962 70 -9
941 75 -38
922 81 -69
961 83 20
947 91 -9
922 95 -37
903 101 -68
936 102 19
915 109 -9
891 113 -36
871 119 -66
919 121 18
882 125 -9
863 130 -35
857 138 -65
886 137 17
871 144 -9
2176 382 -91
2160 403 -164
883 156 17
2165 410 -24
2134 426 -90
2124 449 -162
2134 427 39
2123 452 -25
2105 472 -89
2087 494 -159
2097 468 37
2081 493 -25
2068 515 -88
2052 538 -157
2069 510 35
2055 537 -26
2031 556 -87
2019 581 -155
2037 551 33
2019 576 -26
1998 597 -87
1980 622 -152
2001 589 31
1987 617 -27
1968 639 -86
1945 663 -150
1974 629 29
1950 655 -28
1930 677 -86
1917 705 -148
1937 665 27
1927 696 -29
1899 716 -85
1880 743 -146
1913 704 25
1894 733 -29
1857 750 -84
1849 782 -145
1886 743 23
1851 766 -30
1828 788 -84
0 0 0
1853 778 21
1818 800 -31
0 0 0
0 0 0
1819 811 19
0 0 0
0 0 0
2245 1146 -179
0 0 0
0 0 0
2273 1175 -109
2114 1144 -169
0 0 0
2257 1185 -44
2080 1138 -101
2059 1178 -166
2249 1189 16
2095 1161 -42
2063 1192 -102
2040 1233 -166
2114 1179 13
2076 1214 -44
2041 1243 -102
2013 1283 -165
2097 1232 10
2063 1269 -45
2027 1301 -103
1976 1326 -163
2083 1286 7
2036 1317 -47
1977 1334 -103
1932 1365 -161
2062 1337 5
1995 1357 -48
1932 1371 -102
1868 1389 -157
2017 1374 2
1945 1390 -49
1883 1403 -102
1968 1537 -168
1960 1401 0
1889 1415 -50
1959 1533 -108
1931 1583 -166
1895 1419 -3
1954 1535 -55
1926 1580 -108
1892 1629 -165
1959 1536 -6
1919 1580 -56
1887 1623 -108
1853 1674 -164
1928 1583 -10
1887 1627 -58
1846 1665 -109
1813 1717 -162
1886 1621 -13
1845 1666 -60
1813 1714 -109
1774 1762 -161
1850 1663 -16
1806 1707 -61
1775 1756 -110
1731 1802 -159
1816 1707 -19
1775 1756 -63
1737 1802 -110
1552 1694 -145
1778 1749 -23
1739 1800 -65
1697 1843 -110
1510 1730 -144
1747 1796 -27
1704 1847 -67
1665 1894 -111
1513 1818 -147
1712 1842 -30
1663 1888 -69
1623 1938 -112
1490 1880 -147
1671 1881 -34
1623 1930 -71
1583 1982 -113
1539 2039 -155
1632 1923 -37
1584 1974 -73
1544 2028 -113
1360 1893 -140
1595 1967 -41
1548 2020 -76
1475 2033 -112
1308 1914 -138
1560 2015 -45
1507 2062 -78
1335 1932 -105
1268 1953 -137
1517 2053 -49
1350 1941 -74
1288 1960 -105
1225 1988 -136
1477 2098 -53
1307 1973 -76
1234 1978 -105
1179 2018 -135
1319 1965 -53
1245 1978 -77
1190 2009 -105
1163 2105 -137
1266 1982 -56
1206 2017 -79
1163 2074 -107
1112 2130 -135
1223 2014 -60
1156 2037 -81
1135 2136 -109
1070 2171 -134
1175 2038 -63
1123 2089 -84
1083 2158 -109
1032 2224 -135
1131 2067 -67
1107 2178 -88
1060 2242 -113
1020 2341 -138
1103 2132 -72
1079 2249 -92
1043 2343 -117
1005 2462 -142
1077 2203 -78
1047 2318 -96
1007 2415 -119
1010 2655 -150
1063 2304 -84
1013 2388 -100
1025 2629 -129
957 2704 -150
1030 2374 -90
1039 2615 -111
979 2694 -132
910 2771 -150
1058 2597 -102
993 2673 -115
931 2755 -134
854 2825 -150
1012 2657 -108
943 2733 -119
878 2812 -136
801 2891 -150
962 2712 -115
892 2789 -123
822 2866 -138
745 2957 -151
910 2763 -121
838 2847 -127
767 2933 -141
685 3022 -151
858 2823 -127
784 2915 -132
709 2998 -143
627 3096 -152
804 2885 -134
728 2976 -137
651 3066 -146
564 3168 -152
750 2950 -141
669 3040 -142
592 3146 -150
477 3095 -146
692 3013 -149
612 3121 -147
516 3140 -149
390 2990 -138
636 3090 -157
544 3162 -152
424 3014 -143
312 2930 -133
572 3143 -164
459 3092 -150
345 2954 -140
239 2870 -128
473 2992 -161
370 2958 -146
270 2892 -137
168 2808 -123
360 2673 -148
281 2772 -139
199 2834 -134
102 2754 -119
294 2627 -149
227 2870 -146
131 2771 -131
37 2693 -114
229 2593 -151
159 2855 -147
66 2714 -129
-24 2644 -110
166 2546 -152
90 2790 -146
2 2660 -127
-83 2595 -106
107 2550 -157
25 2731 -146
-57 2618 -125
-141 2548 -103
47 2506 -158
-37 2676 -145
-116 2566 -123
-197 2503 -100
-11 2564 -166
-98 2624 -145
-173 2514 -121
-253 2466 -97
-71 2568 -171
-156 2575 -144
-228 2475 -120
-304 2413 -93
-128 2513 -171
-212 2529 -144
-280 2428 -118
-354 2369 -90
-185 2484 -174
-265 2472 -143
-331 2376 -116
-410 2370 -89
-240 2450 -176
-318 2431 -144
-381 2340 -115
-462 2342 -87
-258 2120 -156
-369 2385 -143
-441 2362 -117
-509 2302 -84
-301 2072 -156
-424 2375 -145
-487 2311 -115
-554 2259 -82
-347 2046 -158
-467 2304 -144
-536 2277 -114
-600 2222 -79
-387 2002 -159
-510 2247 -143
-581 2234 -113
-642 2178 -77
-429 1968 -160
-533 2121 -137
-625 2194 -112
-686 2144 -75
-470 1935 -161
-576 2082 -138
-669 2158 -111
-729 2109 -73
-517 1929 -165
-617 2044 -138
-712 2121 -111
-771 2077 -71
0 0 0
-663 2025 -139
-755 2088 -110
-836 2102 -71
0 0 0
-741 2096 -147
-804 2072 -111
-928 2186 -74
0 0 0
-783 2061 -148
-899 2168 -117
-2155 4764 -160
0 0 0
-877 2154 -158
-2116 4785 -262
0 0 0
0 0 0
-943 2170 -162
0 0 0
-2871 5647 -187
0 0 0
0 0 0
0 0 0
-3123 5807 -191
0 0 0
0 0 0
0 0 0
-3818 6727 -221
0 0 0
-3061 5876 -471
0 0 0
-4499 7524 -246
0 0 0
-3584 6503 -534
-4304 7308 -432
-5415 8600 -280
0 0 0
-4240 7284 -613
-5168 8326 -501
-5556 8393 -273
0 0 0
0 0 0
-5496 8413 -515
-6478 9319 -302
0 0 0
0 0 0
-6486 9446 -589
-2184 2994 -97
0 0 0
0 0 0
-2169 3006 -191
-2255 2947 -95
0 0 0
0 0 0
-2238 2956 -192
0 0 0
0 0 0
0 0 0
0 0 0
0 0 0
0 0 0
-847 1073 -105
0 0 0
0 0 0
0 0 0
0 0 0
0 0 0
0 0 0
0 0 0
0 0 0
0 0 0
0 0 0
0 0 0
0 0 0
0 0 0
0 0 0
0 0 0
0 0 0
0 0 0
0 0 0
0 0 0
0 0 0
0 0 0
0 0 0
0 0 0
0 0 0
0 0 0
0 0 0
0 0 0
0 0 0
0 0 0
0 0 0
0 0 0
0 0 0
0 0 0
0 0 0
0 0 0
0 0 0
0 0 0
0 0 0
0 0 0
0 0 0
0 0 0
0 0 0
0 0 0
0 0 0
0 0 0
0 0 0
0 0 0
0 0 0
0 0 0
0 0 0
0 0 0
0 0 0
0 0 0
0 0 0
0 0 0
0 0 0
0 0 0
0 0 0
0 0 0
0 0 0
0 0 0
0 0 0
0 0 0
0 0 0
0 0 0
0 0 0
0 0 0
0 0 0
0 0 0
0 0 0
0 0 0
0 0 0
0 0 0
0 0 0
0 0 0
0 0 0
0 0 0
0 0 0
0 0 0
0 0 0
0 0 0
0 0 0
0 0 0
0 0 0
0 0 0
0 0 0
0 0 0
0 0 0
0 0 0
0 0 0
0 0 0
0 0 0
0 0 0
0 0 0
0 0 0
0 0 0
0 0 0
0 0 0
0 0 0
0 0 0
0 0 0
0 0 0
0 0 0
0 0 0
0 0 0
0 0 0
0 0 0
0 0 0
0 0 0
0 0 0
0 0 0
0 0 0
0 0 0
0 0 0
0 0 0
0 0 0
0 0 0
0 0 0
0 0 0
0 0 0
0 0 0
0 0 0
0 0 0
0 0 0
0 0 0
0 0 0
0 0 0
0 0 0
0 0 0
0 0 0
0 0 0
0 0 0
0 0 0
0 0 0
0 0 0
0 0 0
0 0 0
0 0 0
0 0 0
0 0 0
0 0 0
0 0 0
0 0 0
0 0 0
0 0 0
0 0 0
0 0 0
0 0 0
0 0 0
0 0 0
0 0 0
0 0 0
0 0 0
0 0 0
0 0 0
0 0 0
0 0 0
0 0 0
0 0 0
0 0 0
0 0 0
0 0 0
0 0 0
0 0 0
0 0 0
0 0 0
0 0 0
0 0 0
0 0 0
0 0 0
0 0 0
0 0 0
0 0 0
0 0 0
0 0 0
0 0 0
0 0 0
0 0 0
0 0 0
0 0 0
0 0 0
0 0 0
0 0 0
0 0 0
0 0 0
0 0 0
0 0 0
0 0 0
0 0 0
0 0 0
0 0 0
0 0 0
0 0 0
0 0 0
0 0 0
0 0 0
0 0 0
0 0 0
0 0 0
0 0 0
0 0 0
0 0 0
0 0 0
0 0 0
0 0 0
0 0 0
0 0 0
0 0 0
0 0 0
0 0 0
0 0 0
0 0 0
0 0 0
0 0 0
0 0 0
0 0 0
0 0 0
0 0 0
0 0 0
0 0 0
0 0 0
0 0 0
0 0 0
0 0 0
0 0 0
0 0 0
0 0 0
0 0 0
0 0 0
0 0 0
0 0 0
0 0 0
0 0 0
0 0 0
0 0 0
0 0 0
0 0 0
0 0 0
0 0 0
0 0 0
0 0 0
0 0 0
0 0 0
0 0 0
0 0 0
0 0 0
0 0 0
0 0 0
0 0 0
0 0 0
0 0 0
0 0 0
0 0 0
0 0 0
0 0 0
0 0 0
0 0 0
0 0 0
0 0 0
0 0 0
0 0 0
0 0 0
0 0 0
0 0 0
0 0 0
0 0 0
0 0 0
0 0 0
0 0 0
0 0 0
0 0 0
0 0 0
0 0 0
0 0 0
0 0 0
0 0 0
0 0 0
0 0 0
0 0 0
0 0 0
0 0 0
0 0 0
0 0 0
0 0 0
0 0 0
0 0 0
0 0 0
0 0 0
0 0 0
0 0 0
0 0 0
0 0 0
0 0 0
0 0 0
0 0 0
0 0 0
0 0 0
0 0 0
0 0 0
0 0 0
0 0 0
0 0 0
0 0 0
0 0 0
0 0 0
0 0 0
0 0 0
0 0 0
0 0 0
0 0 0
0 0 0
0 0 0
0 0 0
0 0 0
0 0 0
0 0 0
0 0 0
0 0 0
0 0 0
0 0 0
0 0 0
0 0 0
0 0 0
0 0 0
0 0 0
0 0 0
0 0 0
0 0 0
0 0 0
0 0 0
0 0 0
0 0 0
0 0 0
0 0 0
0 0 0
0 0 0
0 0 0
0 0 0
0 0 0
0 0 0
0 0 0
0 0 0
0 0 0
0 0 0
0 0 0
0 0 0
0 0 0
0 0 0
0 0 0
0 0 0
0 0 0
0 0 0
0 0 0
0 0 0
0 0 0
0 0 0
0 0 0
0 0 0
0 0 0
0 0 0
0 0 0
0 0 0
0 0 0
0 0 0
0 0 0
0 0 0
0 0 0
0 0 0
0 0 0
0 0 0
0 0 0
0 0 0
0 0 0
0 0 0
0 0 0
0 0 0
0 0 0
0 0 0
0 0 0
0 0 0
0 0 0
0 0 0
0 0 0
0 0 0
0 0 0
0 0 0
0 0 0
0 0 0
0 0 0
0 0 0
0 0 0
0 0 0
0 0 0
0 0 0
0 0 0
0 0 0
0 0 0
0 0 0
0 0 0
0 0 0
0 0 0
0 0 0
0 0 0
0 0 0
0 0 0
0 0 0
0 0 0
0 0 0
0 0 0
0 0 0
0 0 0
0 0 0
0 0 0
0 0 0
0 0 0
0 0 0
0 0 0
0 0 0
0 0 0
0 0 0
0 0 0
0 0 0
0 0 0
0 0 0
0 0 0
0 0 0
0 0 0
0 0 0
0 0 0
0 0 0
0 0 0
0 0 0
0 0 0
0 0 0
0 0 0
0 0 0
0 0 0
0 0 0
0 0 0
0 0 0
0 0 0
0 0 0
0 0 0
0 0 0
0 0 0
0 0 0
0 0 0
0 0 0
0 0 0
0 0 0
0 0 0
0 0 0
0 0 0
0 0 0
0 0 0
0 0 0
0 0 0
0 0 0
0 0 0
0 0 0
0 0 0
0 0 0
0 0 0
0 0 0
0 0 0
0 0 0
0 0 0
0 0 0
0 0 0
0 0 0
0 0 0
0 0 0
0 0 0
0 0 0
0 0 0
0 0 0
0 0 0
0 0 0
0 0 0
0 0 0
0 0 0
0 0 0
0 0 0
0 0 0
0 0 0
0 0 0
0 0 0
0 0 0
0 0 0
0 0 0
0 0 0
0 0 0
0 0 0
0 0 0
0 0 0
0 0 0
0 0 0
0 0 0
0 0 0
0 0 0
0 0 0
0 0 0
0 0 0
0 0 0
0 0 0
0 0 0
0 0 0
0 0 0
0 0 0
0 0 0
0 0 0
0 0 0
0 0 0
0 0 0
0 0 0
0 0 0
0 0 0
0 0 0
0 0 0
0 0 0
0 0 0
0 0 0
0 0 0
0 0 0
0 0 0
0 0 0
0 0 0
0 0 0
0 0 0
0 0 0
0 0 0
0 0 0
0 0 0
0 0 0
0 0 0
0 0 0
0 0 0
0 0 0
0 0 0
0 0 0
0 0 0
0 0 0
0 0 0
0 0 0
0 0 0
0 0 0
0 0 0
0 0 0
0 0 0
0 0 0
0 0 0
0 0 0
0 0 0
0 0 0
0 0 0
0 0 0
0 0 0
0 0 0
0 0 0
0 0 0
0 0 0
0 0 0
0 0 0
0 0 0
0 0 0
0 0 0
0 0 0
0 0 0
0 0 0
0 0 0
0 0 0
0 0 0
0 0 0
0 0 0
0 0 0
0 0 0
0 0 0
0 0 0
1729 -1248 -35
0 0 0
0 0 0
0 0 0
1808 -1244 -35
0 0 0
0 0 0
0 0 0
0 0 0
0 0 0
0 0 0
0 0 0
0 0 0
0 0 0
0 0 0
0 0 0
0 0 0
0 0 0
0 0 0
0 0 0
0 0 0
0 0 0
0 0 0
0 0 0
0 0 0
0 0 0
0 0 0
0 0 0
0 0 0
0 0 0
0 0 0
0 0 0
2094 -1000 -24
0 0 0
0 0 0
0 0 0
2122 -956 -23
0 0 0
0 0 0
0 0 0
0 0 0
0 0 0
0 0 0
0 0 0
0 0 0
0 0 0
0 0 0
0 0 0
0 0 0
0 0 0
0 0 0
0 0 0
0 0 0
0 0 0
0 0 0
0 0 0
0 0 0
0 0 0
0 0 0
0 0 0
0 0 0
0 0 0
0 0 0
0 0 0
0 0 0
0 0 0
0 0 0
0 0 0
0 0 0
0 0 0
0 0 0
0 0 0
0 0 0
0 0 0
0 0 0
0 0 0
0 0 0
0 0 0
0 0 0
0 0 0
0 0 0
0 0 0
0 0 0
0 0 0
0 0 0
0 0 0
0 0 0
0 0 0
0 0 0
0 0 0
0 0 0
0 0 0
0 0 0
0 0 0
0 0 0
0 0 0
0 0 0
0 0 0
0 0 0
0 0 0
0 0 0
0 0 0
0 0 0
0 0 0
0 0 0
0 0 0
0 0 0
0 0 0
0 0 0
0 0 0
0 0 0
0 0 0
0 0 0
0 0 0
0 0 0
0 0 0
0 0 0
0 0 0
0 0 0
0 0 0
0 0 0
0 0 0
0 0 0
0 0 0
0 0 0
0 0 0
0 0 0
0 0 0
0 0 0
0 0 0
0 0 0
0 0 0
0 0 0
0 0 0
0 0 0
0 0 0
0 0 0
0 0 0
0 0 0
0 0 0
0 0 0
0 0 0
0 0 0
0 0 0
0 0 0
0 0 0
2137 425 -155
2126 447 -236
0 0 0
2124 453 -82
2098 469 -153
2087 491 -232
2093 471 -10
2077 494 -80
2063 513 -151
2045 534 -228
2073 516 -10
2050 538 -80
2027 554 -149
2013 578 -226
2034 555 -11
2021 579 -80
1998 597 -148
1985 621 -223
1999 592 -11
1984 617 -79
1967 637 -146
1942 658 -220
1972 633 -12
1947 654 -78
1930 675 -144
1918 702 -218
1936 669 -13
1922 695 -78
1897 714 -143
1879 739 -215
1915 710 -14
1893 734 -78
1854 748 -141
1845 778 -212
1878 745 -14
1848 766 -77
1828 788 -140
0 0 0
1835 775 -15
1817 803 -77
0 0 0
0 0 0
1815 815 -16
0 0 0
0 0 0
0 0 0
0 0 0
0 0 0
2271 1173 -179
2198 1184 -260
0 0 0
2257 1187 -101
2070 1131 -165
1818 1036 -217
2238 1190 -25
2078 1153 -95
2049 1182 -166
1803 1086 -217
2102 1178 -26
2065 1210 -96
2031 1237 -166
1734 1102 -211
2080 1229 -28
2042 1260 -97
2002 1284 -166
1725 1155 -212
2069 1285 -29
2016 1308 -98
1960 1323 -165
1740 1226 -216
2040 1331 -31
1976 1346 -98
1920 1361 -164
1860 1377 -234
1997 1367 -33
1928 1379 -98
1875 1395 -163
1964 1527 -250
1946 1397 -34
1871 1404 -97
1962 1532 -173
1931 1577 -249
1883 1417 -36
1951 1535 -104
1927 1579 -173
1891 1622 -247
1957 1543 -40
1925 1588 -106
1886 1621 -173
1850 1665 -245
1922 1586 -42
1881 1625 -106
1851 1668 -173
1816 1714 -245
1882 1626 -44
1849 1673 -107
1818 1716 -173
1774 1754 -243
1845 1667 -47
1811 1713 -108
1780 1759 -173
1579 1638 -220
1814 1714 -49
1774 1757 -110
1738 1800 -173
1536 1670 -218
1780 1759 -52
1739 1804 -111
1559 1692 -159
1496 1706 -216
1742 1801 -54
1701 1847 -112
1503 1710 -157
1464 1753 -216
1707 1847 -57
1662 1891 -114
1506 1796 -161
1423 1789 -214
1666 1885 -60
1620 1930 -115
1470 1838 -162
1396 1843 -215
1625 1925 -63
1589 1983 -117
1460 1914 -165
1358 1884 -214
