ply
format ascii 1.0
element vertex 4800
property float x
property float y
property float z
end_header
0 0 0
-135 -224 68
-149 -231 72
-153 -220 70
-133 -251 73
0 0 0
0 0 0
0 0 0
0 0 0
-129 -240 71
-140 -242 73
-144 -229 70
-121 -258 74
0 0 0
0 0 0
0 0 0
0 0 0
-119 -247 71
-134 -258 75
-135 -240 71
-110 -265 75
0 0 0
0 0 0
0 0 0
0 0 0
-110 -259 73
-122 -265 75
-125 -248 70
-100 -278 78
0 0 0
0 0 0
0 0 0
0 0 0
-99 -266 74
-113 -277 77
-117 -261 72
-92 -296 82
0 0 0
0 0 0
0 0 0
0 0 0
-90 -281 77
-102 -287 78
-109 -277 74
-79 -303 83
0 0 0
0 0 0
0 0 0
0 0 0
-80 -298 80
-92 -305 81
-97 -283 74
-67 -316 86
0 0 0
0 0 0
0 0 0
0 0 0
-68 -307 82
-79 -314 82
-87 -300 76
-55 -332 90
0 0 0
0 0 0
0 0 0
0 0 0
-56 -326 86
-68 -332 85
-75 -313 78
-42 -352 96
0 0 0
0 0 0
0 0 0
0 0 0
-44 -347 91
-54 -345 87
-63 -331 80
-27 -366 99
0 0 0
0 0 0
0 0 0
0 0 0
-28 -357 93
-39 -360 90
-49 -345 82
-11 -381 104
0 0 0
0 0 0
0 0 0
0 0 0
-13 -381 99
-23 -373 93
-35 -364 86
6 -404 110
0 0 0
0 0 0
0 0 0
0 0 0
4 -393 102
-6 -391 96
-18 -376 87
26 -433 119
0 0 0
0 0 0
0 0 0
0 0 0
23 -420 109
11 -412 101
0 -399 92
48 -455 126
0 0 0
0 0 0
0 0 0
0 0 0
45 -443 116
32 -436 107
18 -420 96
70 -467 131
0 0 0
0 0 0
0 0 0
0 0 0
71 -479 126
56 -466 114
40 -434 98
101 -514 145
0 0 0
0 0 0
0 0 0
0 0 0
99 -511 135
84 -502 123
67 -480 108
0 0 0
0 0 0
0 0 0
0 0 0
0 0 0
0 0 0
0 0 0
96 -513 115
0 0 0
0 0 0
0 0 0
0 0 0
0 0 0
0 0 0
0 0 0
0 0 0
0 0 0
0 0 0
0 0 0
0 0 0
0 0 0
0 0 0
0 0 0
0 0 0
0 0 0
0 0 0
0 0 0
0 0 0
0 0 0
0 0 0
0 0 0
0 0 0
0 0 0
0 0 0
0 0 0
0 0 0
0 0 0
0 0 0
0 0 0
0 0 0
0 0 0
0 0 0
0 0 0
0 0 0
0 0 0
0 0 0
0 0 0
0 0 0
0 0 0
0 0 0
0 0 0
0 0 0
0 0 0
0 0 0
0 0 0
0 0 0
0 0 0
0 0 0
0 0 0
0 0 0
0 0 0
0 0 0
0 0 0
0 0 0
0 0 0
0 0 0
0 0 0
0 0 0
0 0 0
68 -99 31
0 0 0
0 0 0
0 0 0
0 0 0
0 0 0
0 0 0
0 0 0
69 -92 29
0 0 0
0 0 0
0 0 0
0 0 0
0 0 0
0 0 0
0 0 0
0 0 0
0 0 0
0 0 0
1412 -1606 606
1385 -1607 544
0 0 0
0 0 0
1437 -1565 602
1420 -1575 543
1411 -1602 491
0 0 0
1473 -1536 603
1461 -1551 545
1444 -1565 490
1425 -1579 428
1507 -1506 604
1496 -1518 544
1484 -1536 490
1463 -1546 427
1539 -1473 603
1532 -1487 545
1521 -1503 489
1501 -1512 426
1577 -1444 605
1570 -1457 546
1556 -1467 488
1546 -1483 427
1613 -1414 607
1604 -1422 545
1591 -1432 488
1586 -1449 427
1650 -1385 609
1647 -1396 548
1634 -1404 489
1620 -1411 426
1684 -1354 610
1683 -1363 550
1671 -1371 490
1661 -1379 426
1724 -1325 613
1715 -1327 550
1710 -1338 491
1695 -1341 426
1757 -1291 614
1758 -1299 553
1742 -1299 491
1738 -1308 427
1796 -1262 618
1794 -1265 555
1785 -1269 494
1781 -1275 429
1838 -1233 622
1828 -1227 555
1828 -1235 496
1824 -1240 431
1863 -1192 621
1864 -1193 557
1863 -1197 497
1855 -1197 430
1921 -1171 630
1916 -1166 563
1910 -1166 501
1907 -1168 435
1947 -1132 631
1952 -1130 566
1946 -1128 502
1948 -1129 437
1985 -1097 634
1989 -1093 569
1990 -1093 506
1993 -1092 440
2026 -1064 638
2028 -1056 572
2033 -1057 510
2039 -1055 443
2075 -1033 645
2080 -1025 579
2078 -1019 514
2078 -1012 445
2109 -993 647
2121 -986 582
2122 -980 518
2133 -976 451
0 0 0
2168 -950 588
2170 -942 523
0 0 0
2200 -924 660
2209 -911 593
0 0 0
924 -371 190
2248 -888 667
2256 -872 598
930 -354 219
920 -344 187
0 0 0
0 0 0
901 -319 210
850 -295 171
789 -273 229
802 -269 208
826 -271 190
815 -261 163
785 -253 226
800 -249 205
803 -243 183
791 -232 156
788 -235 224
792 -227 202
788 -219 178
778 -208 152
786 -217 222
788 -207 199
775 -196 174
758 -184 147
793 -200 222
773 -185 194
736 -169 164
719 -156 139
784 -180 217
720 -156 179
709 -145 157
681 -131 131
721 -150 198
700 -135 173
668 -121 147
656 -110 125
695 -129 190
686 -117 168
0 0 0
0 0 0
686 -112 186
0 0 0
667 -89 145
654 -77 124
687 -97 185
675 -84 163
0 0 0
661 -62 125
688 -82 184
0 0 0
682 -59 147
695 -49 131
704 -69 187
712 -56 171
0 0 0
1105 -52 208
725 -55 192
1132 -65 270
1112 -46 238
1086 -25 204
1136 -62 299
1113 -39 265
1083 -20 231
1061 0 199
1109 -36 290
1079 -13 256
1058 5 225
1031 25 193
1077 -12 280
1061 10 250
1032 29 219
1007 48 189
1053 10 273
1036 33 244
1011 51 214
979 70 184
1023 31 264
999 53 235
979 72 207
948 90 178
1007 52 259
983 74 230
966 93 205
935 112 176
990 73 254
963 95 225
935 112 198
904 130 171
966 92 247
944 114 221
917 132 194
890 150 169
945 111 241
918 132 214
894 150 190
2141 414 408
921 129 234
894 149 209
2149 411 458
2114 461 405
901 146 229
2164 410 507
2116 454 452
2077 504 400
2146 394 544
2116 450 495
2084 497 447
2043 547 396
2130 439 540
2089 493 490
2047 539 440
2010 590 392
2100 480 532
2052 533 482
2013 580 435
1969 629 387
2070 522 524
2016 573 475
1973 618 428
1938 670 384
2016 555 510
1988 614 469
1950 661 425
1900 708 380
1991 595 504
1952 650 462
1908 696 419
1873 748 378
1966 633 498
1921 687 456
1879 733 415
1842 786 376
1932 669 490
1885 722 450
1849 771 412
0 0 0
1910 708 485
1861 762 446
1820 809 408
0 0 0
1878 743 478
1827 796 440
0 0 0
2263 1163 478
1842 776 470
0 0 0
2238 1121 511
2229 1213 477
1813 811 464
0 0 0
2249 1193 518
2193 1261 476
0 0 0
2262 1172 555
2211 1237 515
2156 1307 475
0 0 0
2228 1218 551
2177 1284 513
2113 1349 472
2261 1195 585
2190 1262 547
2134 1326 509
2079 1397 472
2217 1234 577
2152 1306 542
2097 1371 506
2038 1441 471
2175 1275 569
2117 1351 538
2062 1417 504
2000 1487 471
2146 1322 565
2076 1392 533
2026 1462 502
1965 1533 471
2105 1363 557
2042 1436 529
1987 1505 500
1927 1577 471
2071 1404 552
2007 1479 526
1951 1548 499
1888 1620 472
2035 1447 547
1974 1524 524
1913 1591 497
1851 1665 472
1999 1489 542
1935 1566 521
1875 1633 496
1814 1709 473
1962 1530 537
1900 1609 518
1839 1678 495
1775 1753 474
1928 1574 533
1865 1654 516
1799 1719 494
1738 1799 476
1893 1617 529
1825 1693 513
1761 1763 493
1699 1842 478
1855 1657 524
1790 1737 511
1732 1814 496
1662 1887 480
1821 1700 521
1753 1779 510
1689 1852 495
1622 1932 482
1786 1743 517
1717 1823 508
1650 1894 494
1584 1977 485
1746 1781 513
1679 1866 507
1618 1946 497
1543 2020 487
1712 1827 510
1646 1915 507
1579 1991 498
1507 2072 491
1676 1871 508
1602 1952 504
1537 2031 498
1465 2115 494
1640 1916 505
1565 1996 504
1500 2080 500
1425 2162 498
1602 1958 503
1527 2041 504
1463 2129 503
1386 2213 503
1563 2000 500
1487 2085 503
1421 2172 504
1345 2262 507
1522 2041 497
1452 2137 505
1382 2223 507
1301 2306 511
1489 2093 497
1408 2178 504
1338 2265 509
1259 2358 516
1450 2140 495
1370 2227 505
1298 2319 512
1215 2408 522
1407 2180 493
1328 2274 506
1256 2369 516
1170 2458 527
1368 2230 492
1286 2323 507
1212 2418 519
1125 2511 533
1329 2281 492
1246 2375 510
1168 2470 523
1083 2575 542
1284 2324 490
1204 2430 512
1121 2519 527
1032 2622 548
1245 2379 491
1160 2481 514
1073 2568 530
985 2680 556
1203 2432 491
1112 2527 516
1033 2640 539
937 2741 564
1154 2474 490
1071 2593 521
983 2691 544
884 2795 572
1112 2532 492
1022 2643 523
931 2741 548
833 2856 581
1070 2596 494
973 2699 527
881 2804 555
779 2920 591
1021 2647 495
922 2753 530
827 2860 561
724 2984 601
970 2701 495
871 2812 534
775 2931 570
666 3050 612
920 2758 497
817 2870 538
720 2996 578
607 3117 623
869 2820 499
766 2944 545
662 3060 586
546 3184 635
817 2883 502
709 3003 550
602 3130 595
464 3136 623
761 2944 504
650 3070 556
538 3184 601
383 3067 609
704 3011 508
592 3149 564
453 3118 585
305 2996 593
646 3081 512
521 3176 563
372 3046 568
231 2935 580
585 3152 516
436 3104 546
295 2983 554
162 2879 569
511 3165 511
356 3032 528
222 2925 541
94 2820 558
427 3096 493
278 2968 513
152 2866 528
29 2753 544
345 3025 475
205 2905 498
84 2818 517
-31 2706 535
267 2953 458
135 2850 485
19 2752 503
-91 2662 527
194 2901 444
67 2784 470
-42 2698 492
-148 2610 518
123 2841 430
3 2733 459
-102 2647 482
-204 2564 510
55 2779 416
-58 2687 448
-160 2602 473
-258 2523 503
-9 2727 404
-118 2635 437
-215 2552 464
-310 2479 496
-72 2673 392
-176 2583 427
-269 2504 455
-361 2437 489
-132 2623 381
-232 2540 418
-323 2469 448
-410 2398 483
-191 2579 372
-287 2497 409
-373 2420 440
-458 2356 477
-248 2532 362
-339 2451 400
-423 2385 434
-503 2313 470
-302 2478 351
-392 2412 393
-471 2343 427
-550 2279 466
-355 2437 343
-441 2367 385
-514 2284 417
-594 2239 461
-409 2399 335
-487 2317 376
-562 2255 413
-635 2195 455
-458 2350 327
-537 2286 371
-606 2216 407
-678 2158 450
-508 2315 320
-581 2239 363
-649 2174 401
-719 2123 446
-554 2263 312
-625 2197 357
-692 2140 397
-760 2088 442
-598 2212 303
-669 2159 351
-735 2107 392
-805 2068 441
-644 2175 297
-714 2128 346
-777 2073 388
-901 2170 467
-691 2143 292
-755 2087 340
-852 2123 400
-959 2170 471
-733 2101 286
-808 2080 340
-932 2178 413
-6939 14801 3250
-779 2072 282
-907 2182 358
-4297 9433 1803
-7226 14563 3231
-862 2136 291
-4212 9494 1567
-7086 14661 2826
-7502 14304 3207
-940 2178 296
-6971 14772 2451
-7379 14412 2800
-6663 12047 2733
-4339 9415 1284
-5254 10491 1751
-7663 14160 2777
-6923 11881 2728
0 0 0
-7571 14267 2396
-6887 12060 2389
-7124 11624 2702
0 0 0
-7846 13987 2367
-6853 11390 2281
-5447 8461 1993
-3564 6460 889
-6455 10901 1859
-5435 8581 1737
-8869 13129 3137
-4155 7121 985
-5166 8272 1423
-5592 8398 1720
-2150 3034 735
-4953 8033 1118
-5533 8416 1462
-9067 12961 2689
-2211 2979 733
-5491 8443 1182
-9005 13015 2285
-839 1143 240
-847 1089 272
-7848 11451 1616
-2184 3003 533
-854 1109 236
-850 1045 265
-2174 3012 429
-2252 2949 530
-852 1056 228
-910 1069 276
-2244 2957 425
-853 1065 194
-891 1054 232
-1035 1163 306
-840 1053 153
-896 1066 197
-1030 1163 260
-1022 1098 294
-879 1048 154
-1019 1155 216
-1018 1097 250
-981 1008 275
-948 1076 160
-1016 1099 209
-990 1019 236
-1059 1041 290
-1015 1097 165
-1005 1037 201
-1054 1037 245
-999 940 268
-1024 1054 162
-1046 1029 203
-990 931 224
-1057 951 277
-1003 984 153
-1068 1003 202
-998 896 221
-651 560 167
-1047 978 155
-1035 926 190
-638 547 138
-1042 857 262
-633 563 91
-651 556 117
-1059 866 224
-1018 801 251
-1009 854 142
-1067 868 187
-1002 782 207
-939 705 227
-1068 859 146
-987 765 169
-921 685 187
-878 629 208
-971 744 129
-908 669 152
-861 611 171
-822 562 191
-885 644 115
-846 593 138
-802 542 156
-770 502 176
-830 573 105
-793 529 127
-748 480 143
-721 448 162
-763 500 95
-726 459 114
-705 430 132
-678 400 150
-716 444 87
-683 410 105
-658 381 122
-651 365 142
-675 396 80
-651 370 98
-636 349 115
-624 332 134
-636 353 74
-623 335 93
-607 315 108
0 0 0
-605 316 69
-596 303 87
-586 288 103
-576 275 120
0 0 0
-570 272 82
0 0 0
0 0 0
-559 258 62
-556 250 79
-549 239 94
-537 227 109
-536 232 59
0 0 0
0 0 0
0 0 0
0 0 0
-508 200 70
-515 197 86
-503 187 100
-502 188 54
0 0 0
0 0 0
0 0 0
0 0 0
-480 163 65
-488 161 80
-478 154 93
-472 151 49
0 0 0
0 0 0
0 0 0
0 0 0
-449 129 59
-458 128 73
-451 124 86
-450 120 46
0 0 0
0 0 0
0 0 0
0 0 0
-424 100 55
-434 100 68
-426 97 79
-422 90 43
0 0 0
0 0 0
0 0 0
0 0 0
-401 75 51
-417 76 64
-409 74 75
-400 65 40
0 0 0
0 0 0
0 0 0
0 0 0
-385 53 48
-396 54 60
-389 53 70
-378 43 37
0 0 0
0 0 0
0 0 0
0 0 0
-369 33 46
-380 34 57
-375 34 67
-370 24 36
0 0 0
0 0 0
0 0 0
0 0 0
-359 15 44
-365 16 54
-367 17 64
-357 5 35
0 0 0
0 0 0
0 0 0
0 0 0
-338 -1 41
-353 0 52
-352 1 61
-341 -11 34
0 0 0
0 0 0
0 0 0
0 0 0
-324 -16 40
-334 -16 49
-338 -14 58
-319 -26 32
0 0 0
0 0 0
0 0 0
0 0 0
-315 -31 39
-326 -30 47
-325 -27 55
-311 -40 31
0 0 0
0 0 0
0 0 0
0 0 0
-304 -44 37
-310 -43 45
-312 -40 53
-300 -54 30
0 0 0
0 0 0
0 0 0
0 0 0
-286 -56 35
-306 -57 44
-303 -53 51
-288 -67 30
0 0 0
0 0 0
0 0 0
0 0 0
-275 -67 34
-291 -69 42
-294 -65 49
-281 -79 30
0 0 0
0 0 0
0 0 0
0 0 0
-270 -80 34
-286 -81 42
-287 -77 48
-273 -92 29
0 0 0
0 0 0
0 0 0
0 0 0
-262 -91 33
-274 -92 40
-269 -86 45
-255 -100 28
0 0 0
0 0 0
0 0 0
0 0 0
-249 -100 32
-265 -103 39
-259 -95 43
-250 -112 28
0 0 0
0 0 0
0 0 0
0 0 0
-243 -111 32
-259 -114 39
-253 -106 42
-240 -122 28
0 0 0
0 0 0
0 0 0
0 0 0
-234 -121 32
-249 -124 38
-245 -116 41
-234 -134 29
0 0 0
0 0 0
0 0 0
0 0 0
-228 -132 32
-242 -135 38
-242 -128 41
-227 -144 29
0 0 0
0 0 0
0 0 0
0 0 0
-221 -143 32
-236 -146 37
-234 -138 40
-219 -155 29
0 0 0
0 0 0
0 0 0
0 0 0
-213 -152 32
-228 -156 37
-226 -147 39
-210 -164 29
0 0 0
0 0 0
0 0 0
0 0 0
-204 -160 31
-215 -162 36
-217 -156 38
-202 -174 30
0 0 0
0 0 0
0 0 0
0 0 0
-198 -172 32
-208 -172 35
-211 -166 38
-196 -186 30
0 0 0
0 0 0
0 0 0
0 0 0
-191 -182 32
-199 -182 35
-205 -177 38
-187 -195 31
0 0 0
0 0 0
0 0 0
0 0 0
-183 -191 32
-191 -191 35
-196 -186 37
-177 -203 31
0 0 0
0 0 0
0 0 0
0 0 0
-173 -199 32
-187 -205 36
-186 -193 36
-167 -212 31
0 0 0
0 0 0
0 0 0
0 0 0
-164 -207 32
-178 -214 35
-180 -205 36
-159 -223 32
0 0 0
0 0 0
0 0 0
0 0 0
-155 -216 33
-167 -222 35
-171 -213 35
-149 -231 33
0 0 0
0 0 0
0 0 0
0 0 0
-146 -225 33
-159 -232 35
-161 -221 35
-137 -237 33
0 0 0
0 0 0
0 0 0
0 0 0
-135 -232 33
-149 -241 35
-153 -232 35
-133 -257 36
0 0 0
0 0 0
0 0 0
0 0 0
-129 -247 34
-138 -249 35
-142 -239 34
-122 -265 36
0 0 0
0 0 0
0 0 0
0 0 0
-121 -260 35
-128 -258 35
-131 -245 33
-110 -273 37
0 0 0
0 0 0
0 0 0
0 0 0
-109 -268 36
-119 -271 36
-124 -259 34
-101 -288 39
0 0 0
0 0 0
0 0 0
0 0 0
-97 -274 36
-110 -287 37
-115 -272 34
-90 -300 41
0 0 0
0 0 0
0 0 0
0 0 0
-88 -291 38
-98 -295 37
-104 -282 34
-77 -308 42
0 0 0
0 0 0
0 0 0
0 0 0
-78 -310 40
-88 -311 38
-93 -296 34
-65 -326 44
0 0 0
0 0 0
0 0 0
0 0 0
-67 -326 42
-76 -324 39
-83 -312 35
-52 -343 47
0 0 0
0 0 0
0 0 0
0 0 0
-53 -340 43
-63 -342 41
-70 -325 35
-38 -364 50
0 0 0
0 0 0
0 0 0
0 0 0
-38 -347 44
-49 -357 42
-57 -340 36
-21 -364 50
0 0 0
0 0 0
0 0 0
0 0 0
0 0 0
-32 -358 41
-43 -357 37
0 0 0
0 0 0
0 0 0
0 0 0
0 0 0
-6 -388 49
0 0 0
-27 -365 36
13 -417 59
0 0 0
0 0 0
0 0 0
0 0 0
11 -409 52
0 -413 47
-10 -385 38
34 -446 64
0 0 0
0 0 0
0 0 0
0 0 0
32 -436 56
20 -431 49
7 -415 40
58 -471 68
0 0 0
0 0 0
0 0 0
0 0 0
55 -463 59
43 -459 52
28 -435 41
85 -501 74
0 0 0
0 0 0
0 0 0
0 0 0
83 -496 64
68 -484 54
53 -470 43
115 -531 80
0 0 0
0 0 0
0 0 0
0 0 0
113 -527 69
99 -522 59
80 -499 45
0 0 0
0 0 0
0 0 0
0 0 0
0 0 0
0 0 0
0 0 0
111 -531 48
0 0 0
0 0 0
0 0 0
0 0 0
0 0 0
0 0 0
0 0 0
0 0 0
0 0 0
0 0 0
0 0 0
0 0 0
0 0 0
0 0 0
0 0 0
0 0 0
0 0 0
0 0 0
0 0 0
0 0 0
0 0 0
0 0 0
0 0 0
0 0 0
0 0 0
0 0 0
0 0 0
0 0 0
0 0 0
0 0 0
0 0 0
0 0 0
0 0 0
0 0 0
0 0 0
0 0 0
0 0 0
0 0 0
0 0 0
0 0 0
0 0 0
0 0 0
0 0 0
0 0 0
0 0 0
0 0 0
0 0 0
0 0 0
0 0 0
0 0 0
0 0 0
0 0 0
0 0 0
0 0 0
0 0 0
0 0 0
0 0 0
0 0 0
0 0 0
0 0 0
0 0 0
86 -120 19
97 -140 17
92 -138 12
0 0 0
0 0 0
0 0 0
0 0 0
0 0 0
0 0 0
106 -139 18
102 -139 12
0 0 0
0 0 0
0 0 0
0 0 0
1418 -1594 332
1388 -1603 272
0 0 0
0 0 0
1448 -1557 331
1432 -1581 273
1413 -1604 217
1386 -1625 153
1486 -1531 333
1469 -1549 273
1444 -1565 216
1421 -1588 152
1523 -1500 334
1503 -1515 273
1481 -1532 215
1461 -1556 151
1556 -1468 334
1538 -1482 272
1523 -1505 215
1498 -1519 149
1594 -1438 335
1576 -1451 273
1562 -1472 215
1535 -1485 148
1629 -1405 336
1611 -1417 273
1598 -1438 214
1577 -1453 148
1663 -1372 336
1654 -1389 274
1638 -1406 214
1619 -1422 147
1707 -1346 339
1689 -1356 275
1672 -1369 214
1657 -1387 147
1739 -1312 340
1724 -1321 275
1715 -1339 214
1693 -1350 146
1774 -1278 341
1763 -1289 276
1749 -1301 214
1734 -1316 146
1812 -1246 342
1802 -1255 277
1792 -1269 215
1774 -1280 145
1844 -1209 343
1835 -1217 277
1828 -1232 214
1814 -1244 145
1887 -1179 345
1864 -1177 277
1830 -1173 211
1852 -1205 145
1929 -1148 348
1921 -1153 280
1916 -1166 217
1895 -1169 145
1969 -1114 350
1957 -1116 281
1955 -1129 217
1943 -1136 146
2007 -1079 352
2002 -1083 284
1993 -1090 218
0 0 0
2052 -1046 355
2047 -1048 286
0 0 0
907 -473 65
2089 -1007 356
0 0 0
909 -443 96
908 -446 64
0 0 0
914 -417 124
911 -418 95
923 -427 64
930 -399 154
922 -396 123
922 -398 95
947 -410 65
914 -369 150
919 -370 121
960 -388 97
977 -396 66
893 -338 145
876 -330 114
863 -326 86
859 -324 57
848 -300 136
839 -295 108
840 -295 83
841 -294 55
817 -269 130
820 -267 104
819 -266 80
822 -266 53
795 -243 125
788 -237 99
779 -233 75
780 -232 50
781 -220 121
767 -212 96
762 -209 73
762 -207 48
758 -196 116
755 -191 93
756 -189 71
759 -186 48
736 -173 112
748 -171 92
748 -168 70
759 -167 47
736 -156 111
741 -152 90
624 -125 58
593 -116 37
0 0 0
617 -112 74
597 -105 55
584 -99 36
637 -106 94
610 -97 73
0 0 0
0 0 0
0 0 0
0 0 0
592 -76 53
593 -72 36
624 -77 91
619 -70 73
0 0 0
0 0 0
0 0 0
0 0 0
610 -50 54
606 -44 37
645 -51 92
648 -44 75
0 0 0
0 0 0
0 0 0
0 0 0
1021 -37 91
1069 -27 65
1104 -39 156
1082 -24 124
1049 -13 93
1036 -1 62
1068 -14 150
1051 0 120
1026 10 90
1010 23 61
1049 8 146
1032 22 117
1000 33 88
987 46 60
1016 30 140
999 44 113
969 55 85
951 67 58
1001 50 137
972 64 109
951 75 83
940 88 57
976 71 133
942 83 105
934 96 81
891 105 54
947 89 128
938 105 104
901 113 78
886 127 54
932 109 125
909 122 101
886 133 77
874 146 54
911 127 122
891 140 98
885 154 77
2154 415 133
884 143 118
2170 393 240
2147 425 187
2116 460 132
2155 397 286
2140 438 236
2101 467 183
2070 501 130
2130 440 282
2104 479 232
2069 510 181
2047 547 130
2094 480 276
2065 519 227
2042 553 179
2008 589 129
2064 521 270
2042 563 224
1997 592 175
1975 631 128
2026 559 264
1998 600 219
1967 633 173
1940 672 127
1998 599 259
1959 637 214
1934 672 171
1906 711 126
1970 638 255
1937 678 212
1908 713 169
1872 750 125
1939 675 250
1903 714 209
1863 745 166
1833 784 124
1900 708 244
1863 747 204
1838 785 165
0 0 0
1877 747 240
1837 785 202
1876 853 169
0 0 0
1853 785 237
1845 839 203
2131 1030 193
2269 1169 161
1826 822 233
2091 1008 230
2261 1158 207
2224 1215 160
2024 965 257
2250 1149 248
2237 1212 206
2194 1266 161
2242 1130 285
2239 1207 248
2199 1258 205
2158 1315 161
2245 1193 285
2205 1254 245
2162 1303 203
2111 1355 161
2213 1240 280
2164 1296 242
2125 1349 202
2076 1403 161
2177 1283 275
2126 1339 239
2090 1396 201
2040 1451 162
2137 1324 270
2095 1388 236
2050 1439 199
2002 1496 162
2105 1370 266
2055 1428 233
2004 1477 197
1964 1542 163
2070 1414 261
2016 1470 230
1971 1524 196
1929 1590 164
2032 1454 257
1979 1512 227
1931 1565 195
1885 1629 164
1998 1498 253
1946 1558 225
1899 1613 195
1852 1679 165
1965 1542 249
1908 1599 223
1859 1656 194
1810 1720 166
1923 1580 244
1872 1644 220
1823 1701 193
1771 1765 167
1888 1623 240
1834 1686 218
1787 1746 193
1731 1808 168
1858 1671 237
1797 1729 216
1750 1792 192
1689 1849 169
1814 1705 232
1764 1776 214
1709 1832 192
1653 1897 171
1783 1752 228
1728 1820 212
1677 1882 192
1616 1946 173
1750 1798 225
1690 1863 210
1639 1927 192
1574 1988 174
1710 1838 221
1649 1902 208
1598 1970 192
1533 2033 175
1672 1880 217
1617 1954 207
1556 2012 191
1496 2083 178
1633 1921 213
1572 1991 204
1517 2058 191
1455 2130 180
1599 1968 210
1536 2037 203
1477 2104 191
1418 2183 182
1560 2012 207
1499 2086 202
1440 2153 192
1376 2231 185
1520 2053 203
1458 2128 200
1400 2203 193
1328 2271 186
1482 2098 200
1417 2175 199
1360 2253 194
1285 2319 189
1443 2145 197
1380 2226 198
1315 2297 194
1243 2373 192
1405 2193 194
1335 2268 196
1274 2350 195
1200 2428 195
1365 2240 191
1297 2323 196
1227 2394 195
1156 2481 198
1322 2286 187
1249 2363 194
1182 2443 196
1110 2536 201
1282 2335 184
1207 2415 193
1139 2498 197
1061 2587 204
1238 2382 181
1166 2471 193
1093 2553 198
1015 2648 208
1196 2435 178
1122 2526 192
1046 2607 200
965 2703 212
1151 2484 175
1074 2576 191
1003 2676 202
915 2764 216
1106 2536 172
1025 2625 190
951 2728 203
862 2819 220
1062 2596 170
978 2687 190
898 2781 205
810 2888 225
1010 2638 166
929 2745 190
848 2848 207
753 2946 229
966 2707 164
879 2806 190
792 2904 209
697 3016 234
915 2760 161
826 2866 189
738 2968 211
639 3087 240
863 2819 158
771 2924 189
681 3041 214
579 3160 246
811 2880 156
715 2992 189
621 3103 216
504 3165 246
756 2945 153
658 3064 189
560 3182 220
421 3099 241
701 3014 151
599 3133 190
479 3141 215
340 3027 236
642 3082 148
532 3187 189
396 3069 208
264 2961 231
581 3157 145
447 3114 180
316 2995 201
192 2902 227
507 3164 140
365 3043 173
241 2935 196
122 2845 223
423 3088 131
288 2982 166
170 2884 191
56 2784 219
342 3019 122
215 2923 159
101 2816 185
-7 2733 216
266 2960 115
143 2855 152
36 2766 181
-69 2685 213
193 2901 107
76 2802 147
-27 2711 176
-127 2630 210
123 2850 101
11 2740 141
-87 2661 172
-185 2583 207
55 2782 94
-51 2690 136
-146 2611 168
-240 2537 204
-9 2725 87
-111 2638 130
-203 2567 165
-293 2492 202
-71 2675 82
-169 2590 126
-257 2516 161
-345 2449 200
-131 2629 76
-225 2545 121
-310 2472 157
-395 2408 198
-189 2576 71
-280 2501 117
-362 2430 154
-443 2362 195
-245 2529 66
-333 2455 113
-411 2384 151
-492 2326 194
-301 2495 61
-384 2411 109
-459 2339 148
-535 2275 191
-353 2441 56
-434 2368 105
-508 2305 146
-581 2239 189
-404 2398 52
-483 2329 102
-552 2256 142
-625 2204 188
-455 2360 48
-528 2283 98
-598 2224 140
-666 2159 186
-501 2305 44
-574 2240 95
-643 2188 138
-708 2124 185
-549 2267 40
-620 2204 92
-686 2148 136
-752 2097 184
-595 2225 36
-662 2160 88
-730 2118 134
-795 2066 183
-640 2184 32
-708 2131 86
-771 2079 132
-884 2152 193
-686 2151 29
-751 2097 83
-835 2104 134
-951 2174 197
-728 2110 26
-795 2065 81
-922 2174 139
-2284 4912 451
-770 2071 23
-891 2163 84
-2155 4773 306
-2575 5226 486
-845 2117 20
-953 2168 83
-2385 4975 320
-3006 5768 543
-932 2181 18
-2308 4932 186
-2913 5735 371
-3415 6207 592
-2184 4790 34
-2823 5685 212
-3258 6063 394
-4064 7010 678
-2768 5708 34
-2988 5677 209
-3906 6885 451
-4982 8161 800
-2890 5616 26
-3422 6149 223
-4428 7404 488
-5432 8466 842
-3275 6003 20
-4288 7298 262
-5509 8746 580
-7141 10598 1070
0 0 0
0 0 0
-5555 8386 561
-2150 3040 311
-4820 7914 7
-5496 8422 296
-7096 10192 688
-2210 2981 310
-5474 8517 -2
-6741 9816 341
-2192 2999 204
-847 1090 115
-6400 9454 -14
-2170 3007 103
-2253 2938 202
-852 1047 112
-2159 3029 -8
-2243 2959 101
-848 1055 73
-921 1081 118
-2224 2966 -12
-842 1059 35
0 0 0
-1039 1166 130
0 0 0
0 0 0
0 0 0
-1002 1075 122
0 0 0
0 0 0
0 0 0
-1051 1078 125
0 0 0
0 0 0
0 0 0
-1017 997 118
0 0 0
0 0 0
0 0 0
0 0 0
0 0 0
0 0 0
0 0 0
0 0 0
0 0 0
-110 104 3
0 0 0
0 0 0
0 0 0
0 0 0
0 0 0
0 0 0
0 0 0
0 0 0
0 0 0
-1074 839 112
0 0 0
0 0 0
0 0 0
0 0 0
0 0 0
0 0 0
0 0 0
-859 612 86
0 0 0
0 0 0
0 0 0
-802 544 79
0 0 0
0 0 0
0 0 0
-747 483 72
0 0 0
0 0 0
0 0 0
-711 438 67
0 0 0
0 0 0
0 0 0
-665 389 62
0 0 0
0 0 0
0 0 0
-643 357 59
0 0 0
0 0 0
0 0 0
-610 321 55
0 0 0
0 0 0
0 0 0
-592 295 52
0 0 0
0 0 0
0 0 0
-570 268 49
0 0 0
0 0 0
0 0 0
0 0 0
0 0 0
0 0 0
0 0 0
-528 220 44
0 0 0
0 0 0
0 0 0
0 0 0
0 0 0
0 0 0
0 0 0
-493 180 40
0 0 0
0 0 0
0 0 0
0 0 0
0 0 0
0 0 0
0 0 0
-467 147 37
0 0 0
0 0 0
0 0 0
0 0 0
0 0 0
0 0 0
0 0 0
-436 116 34
0 0 0
0 0 0
-432 110 19
0 0 0
0 0 0
-412 99 5
0 0 0
-422 93 32
-426 96 -8
0 0 0
-412 85 17
0 0 0
0 0 0
-396 75 4
0 0 0
-399 69 29
-398 69 -7
0 0 0
-397 62 16
0 0 0
0 0 0
-378 53 4
0 0 0
-386 49 28
-384 48 -7
0 0 0
-377 42 15
0 0 0
0 0 0
-364 34 4
0 0 0
-368 30 26
-368 27 -7
0 0 0
-362 23 14
0 0 0
0 0 0
-346 16 3
0 0 0
-353 13 24
-351 9 -6
0 0 0
-345 6 13
0 0 0
0 0 0
-337 0 3
0 0 0
-338 -2 22
-337 -7 -6
0 0 0
-335 -9 12
0 0 0
0 0 0
-310 -14 3
0 0 0
-328 -16 21
-326 -23 -5
0 0 0
-323 -23 12
0 0 0
0 0 0
-295 -28 2
0 0 0
-316 -30 20
-306 -37 -5
0 0 0
-309 -37 11
0 0 0
0 0 0
-276 -39 2
0 0 0
-310 -43 19
-295 -50 -4
0 0 0
-300 -50 10
0 0 0
0 0 0
-269 -51 2
0 0 0
-297 -55 18
-288 -64 -4
0 0 0
-291 -62 10
0 0 0
0 0 0
-264 -64 2
0 0 0
-283 -66 17
-280 -76 -4
0 0 0
-286 -75 9
0 0 0
0 0 0
-260 -76 2
0 0 0
-273 -77 16
-267 -87 -3
0 0 0
-276 -86 9
0 0 0
0 0 0
-254 -87 2
0 0 0
-267 -88 15
-262 -100 -3
0 0 0
-259 -94 8
0 0 0
0 0 0
-242 -96 2
0 0 0
-263 -100 15
-252 -110 -3
0 0 0
-254 -106 8
0 0 0
0 0 0
-237 -108 2
0 0 0
-255 -110 14
-247 -122 -2
0 0 0
-247 -117 8
0 0 0
0 0 0
-226 -116 2
0 0 0
-236 -115 13
-236 -132 -2
0 0 0
-239 -127 8
0 0 0
0 0 0
-220 -127 2
0 0 0
-231 -126 12
-229 -143 -1
0 0 0
-230 -136 7
0 0 0
0 0 0
-207 -132 2
0 0 0
-225 -136 12
-220 -153 -1
0 0 0
-223 -147 7
0 0 0
0 0 0
-200 -142 2
0 0 0
-215 -143 11
-211 -162 -1
0 0 0
-216 -157 7
0 0 0
0 0 0
-200 -157 2
0 0 0
-208 -153 10
-205 -174 0
0 0 0
-207 -166 7
0 0 0
0 0 0
-193 -166 3
0 0 0
-201 -162 10
-194 -181 0
0 0 0
-199 -175 6
0 0 0
0 0 0
-186 -176 3
0 0 0
-193 -171 9
-182 -187 0
0 0 0
-192 -185 6
0 0 0
0 0 0
-183 -191 3
0 0 0
-185 -180 9
-176 -200 0
0 0 0
-182 -193 6
0 0 0
0 0 0
-172 -197 3
0 0 0
-177 -188 8
-169 -211 1
0 0 0
-174 -203 6
0 0 0
0 0 0
-162 -205 3
0 0 0
-170 -198 8
-158 -219 1
0 0 0
-167 -213 6
0 0 0
0 0 0
-154 -215 3
0 0 0
-159 -203 7
-148 -226 2
0 0 0
-157 -220 5
0 0 0
0 0 0
-145 -223 4
0 0 0
-149 -211 6
-139 -237 2
0 0 0
-146 -227 5
0 0 0
0 0 0
-134 -230 4
0 0 0
-142 -221 6
-130 -248 3
0 0 0
-137 -236 5
0 0 0
0 0 0
-126 -240 4
0 0 0
-139 -239 6
-118 -254 4
0 0 0
-126 -243 5
0 0 0
0 0 0
-115 -248 4
0 0 0
-123 -237 5
-111 -271 4
0 0 0
-116 -252 5
0 0 0
0 0 0
-109 -268 5
0 0 0
-116 -252 4
-100 -282 5
0 0 0
-109 -269 5
0 0 0
0 0 0
-97 -275 5
0 0 0
-105 -257 4
-78 -260 5
0 0 0
-98 -279 5
0 0 0
0 0 0
-78 -258 5
0 0 0
-95 -269 3
-79 -315 7
0 0 0
-86 -285 5
0 0 0
0 0 0
-77 -307 6
0 0 0
-86 -285 3
-65 -324 8
0 0 0
-75 -299 5
0 0 0
0 0 0
-65 -320 6
0 0 0
-74 -292 2
-50 -323 8
0 0 0
-64 -316 5
0 0 0
0 0 0
-49 -316 6
0 0 0
-63 -306 2
-39 -363 10
0 0 0
-46 -303 4
0 0 0
0 0 0
-38 -353 7
0 0 0
-51 -327 1
-22 -380 12
0 0 0
-37 -349 5
0 0 0
0 0 0
-22 -371 8
0 0 0
-37 -339 0
-5 -394 13
0 0 0
-22 -372 5
0 0 0
0 0 0
-5 -392 9
0 0 0
-23 -363 0
13 -412 14
0 0 0
-5 -386 4
0 0 0
0 0 0
13 -410 9
0 0 0
-6 -382 0
34 -442 16
0 0 0
13 -407 4
0 0 0
0 0 0
34 -441 10
0 0 0
11 -396 -1
59 -475 18
0 0 0
34 -434 5
0 0 0
0 0 0
58 -468 11
0 0 0
33 -433 -2
87 -506 21
0 0 0
58 -464 5
0 0 0
0 0 0
86 -500 13
0 0 0
58 -468 -3
118 -539 23
0 0 0
85 -492 5
0 0 0
0 0 0
116 -526 14
0 0 0
85 -497 -4
0 0 0
0 0 0
119 -534 5
0 0 0
0 0 0
0 0 0
0 0 0
116 -527 -6
0 0 0
0 0 0
0 0 0
0 0 0
0 0 0
0 0 0
0 0 0
0 0 0
0 0 0
0 0 0
0 0 0
0 0 0
0 0 0
0 0 0
0 0 0
0 0 0
0 0 0
0 0 0
0 0 0
0 0 0
0 0 0
0 0 0
0 0 0
0 0 0
0 0 0
0 0 0
0 0 0
0 0 0
0 0 0
0 0 0
0 0 0
0 0 0
0 0 0
0 0 0
0 0 0
0 0 0
0 0 0
0 0 0
0 0 0
0 0 0
0 0 0
0 0 0
0 0 0
0 0 0
0 0 0
0 0 0
0 0 0
0 0 0
0 0 0
0 0 0
0 0 0
0 0 0
0 0 0
86 -130 4
0 0 0
0 0 0
90 -124 8
0 0 0
94 -140 0
0 0 0
0 0 0
98 -133 5
0 0 0
94 -138 -4
0 0 0
0 0 0
98 -133 0
0 0 0
0 0 0
0 0 0
0 0 0
102 -136 -4
1398 -1609 124
0 0 0
89 -109 0
0 0 0
1431 -1574 125
567 -641 26
0 0 0
102 -123 -4
1466 -1542 126
1452 -1570 65
327 -364 1
0 0 0
1500 -1509 126
1482 -1530 65
0 0 0
315 -346 -13
1543 -1484 128
1519 -1498 65
335 -339 1
0 0 0
1578 -1451 129
1562 -1472 66
0 0 0
326 -325 -13
1619 -1423 130
1598 -1438 66
349 -322 1
0 0 0
1653 -1389 131
1634 -1404 66
0 0 0
347 -314 -14
1690 -1357 132
1670 -1370 67
419 -352 1
0 0 0
1731 -1327 133
1711 -1339 67
0 0 0
366 -300 -14
1761 -1290 134
1749 -1306 67
758 -579 1
0 0 0
1807 -1263 136
1788 -1273 68
786 -571 1
390 -290 -15
1835 -1223 136
0 0 0
806 -558 0
0 0 0
1878 -1192 138
1860 -1200 68
841 -553 0
403 -270 -16
1919 -1159 139
886 -544 32
866 -541 0
0 0 0
1961 -1125 140
890 -518 31
878 -521 0
416 -251 -16
0 0 0
888 -491 31
894 -502 0
0 0 0
889 -459 62
887 -464 30
913 -486 0
425 -230 -16
907 -443 62
923 -456 31
916 -460 0
0 0 0
913 -421 62
952 -444 31
2120 -1004 -1
438 -210 -17
951 -414 64
963 -423 31
2150 -957 -2
0 0 0
973 -398 65
2217 -914 71
2197 -916 -2
439 -186 -17
876 -335 57
0 0 0
2243 -875 -3
0 0 0
838 -300 54
853 -307 26
0 0 0
459 -168 -17
836 -279 54
849 -284 26
478 -161 0
0 0 0
787 -243 50
795 -246 24
0 0 0
467 -146 -17
772 -220 48
768 -218 23
491 -140 -1
0 0 0
758 -198 47
721 -188 21
0 0 0
476 -124 -18
761 -181 47
674 -159 19
504 -119 -1
0 0 0
756 -162 46
0 0 0
0 0 0
496 -105 -18
586 -112 35
552 -104 15
515 -97 -1
0 0 0
577 -98 34
0 0 0
0 0 0
511 -82 -19
0 0 0
557 -79 15
542 -76 -1
0 0 0
577 -71 33
0 0 0
0 0 0
541 -60 -20
0 0 0
573 -55 15
562 -52 -2
0 0 0
598 -47 34
0 0 0
0 0 0
816 -52 -30
0 0 0
824 -42 21
846 -39 -3
941 -38 -35
938 -33 52
1059 -30 27
1035 -23 -4
1027 -16 -38
1050 -14 58
1032 -5 25
1010 0 -4
993 7 -37
1022 8 55
998 16 24
991 23 -4
967 30 -36
1002 30 54
974 38 23
940 44 -4
940 52 -35
974 51 51
958 60 22
926 65 -5
908 72 -33
943 70 49
930 79 21
901 84 -4
891 92 -33
922 88 47
908 97 20
884 103 -5
862 110 -32
903 107 46
891 116 20
852 120 -5
843 128 -31
886 124 44
871 134 19
0 0 0
2178 385 -80
871 142 43
2180 387 47
2165 409 -14
2130 430 -79
2145 400 105
2143 431 45
2118 451 -14
2102 478 -78
2126 445 102
2108 474 43
2081 495 -14
2061 520 -76
2087 484 99
2069 513 42
2050 537 -14
2032 564 -75
2057 525 96
2039 555 40
2018 579 -14
1995 605 -73
2027 565 93
2007 595 39
1978 617 -15
1958 646 -72
1991 603 90
1973 634 37
1945 657 -15
1925 687 -71
1958 642 87
1937 672 35
1915 698 -15
1892 727 -70
1929 680 84
1911 713 34
1873 733 -16
1864 768 -69
1906 719 81
1867 745 32
1848 771 -16
1815 797 -67
1878 755 79
1839 781 31
1817 808 -16
0 0 0
1839 787 75
1825 825 30
0 0 0
0 0 0
0 0 0
0 0 0
0 0 0
2256 1191 -83
0 0 0
2231 1134 33
2229 1186 -22
2086 1167 -77
2251 1148 86
2213 1189 32
2090 1176 -21
2070 1223 -77
2243 1207 83
2118 1200 29
2087 1238 -22
2055 1282 -76
2211 1252 80
2117 1263 28
2074 1295 -23
2025 1329 -75
2166 1290 76
2102 1320 26
2039 1339 -23
1974 1364 -74
2138 1339 73
2075 1369 25
1990 1375 -23
1922 1397 -72
2101 1382 69
2020 1400 22
1930 1400 -23
1871 1429 -70
2057 1421 65
1949 1418 20
1878 1432 -24
1944 1560 -73
2019 1462 62
1901 1450 18
1946 1557 -25
1911 1610 -72
1989 1508 58
1944 1555 17
1910 1600 -26
1874 1654 -71
1953 1549 55
1907 1595 15
1874 1645 -26
1835 1699 -70
1917 1591 51
1876 1643 13
1838 1691 -27
1798 1746 -69
1882 1635 48
1836 1683 11
1802 1737 -27
1756 1787 -68
1845 1676 44
1802 1732 9
1765 1783 -28
1715 1832 -67
1807 1718 40
1764 1773 7
1723 1824 -29
1677 1878 -65
1773 1764 36
1728 1818 5
1688 1872 -29
1639 1927 -65
1733 1803 33
1693 1863 3
1652 1917 -29
1598 1967 -63
1706 1854 29
1656 1908 1
1611 1960 -30
1555 2009 -62
1665 1892 25
1616 1950 0
1574 2008 -31
1520 2063 -61
1625 1933 21
1580 1997 -2
1530 2049 -31
1469 2095 -60
1588 1979 17
1537 2038 -5
1488 2093 -32
1310 1969 -54
1551 2025 13
1497 2083 -7
1421 2101 -32
1262 1997 -52
1509 2066 9
1460 2132 -9
1286 1999 -31
1222 2036 -51
1476 2114 5
1381 2117 -11
1235 2018 -31
1178 2070 -50
1437 2161 1
1257 2026 -13
1193 2056 -31
1129 2098 -49
1319 2085 -2
1216 2064 -15
1155 2102 -32
1104 2172 -49
1232 2048 -6
1175 2103 -17
1115 2148 -33
1079 2254 -48
1187 2082 -10
1137 2151 -20
1099 2242 -35
1089 2420 -50
1156 2137 -14
1110 2222 -22
1085 2350 -37
1083 2566 -51
1121 2191 -19
1094 2318 -25
1106 2545 -39
1033 2614 -50
1098 2266 -23
1120 2524 -30
1059 2599 -40
989 2682 -49
1137 2492 -30
1076 2580 -33
1008 2649 -42
937 2736 -48
1094 2549 -35
1026 2630 -36
961 2713 -43
886 2800 -47
1048 2607 -40
979 2693 -39
910 2775 -44
829 2856 -46
1003 2668 -46
927 2747 -42
857 2835 -45
774 2919 -45
952 2722 -51
878 2812 -46
803 2895 -47
720 2991 -44
904 2784 -57
822 2864 -49
748 2963 -48
661 3060 -43
849 2834 -63
770 2934 -53
691 3029 -50
600 3127 -42
796 2900 -69
714 3000 -57
631 3094 -51
526 3140 -40
741 2961 -75
655 3066 -61
570 3168 -53
441 3068 -37
683 3025 -82
596 3139 -65
482 3089 -52
360 2991 -34
625 3099 -89
520 3124 -67
401 3018 -51
285 2930 -32
563 3154 -95
434 3039 -68
323 2951 -50
212 2870 -29
476 3074 -98
356 2980 -69
249 2894 -50
143 2818 -27
394 3001 -100
280 2915 -70
178 2839 -49
75 2754 -25
317 2940 -103
208 2855 -71
110 2778 -49
11 2703 -23
243 2873 -105
138 2791 -72
44 2721 -49
-50 2646 -21
173 2824 -108
72 2742 -73
-18 2663 -48
-109 2602 -19
105 2758 -110
9 2682 -74
-78 2622 -48
-166 2555 -18
40 2694 -112
-52 2630 -75
-136 2572 -48
-221 2507 -16
-21 2649 -114
-111 2583 -76
-192 2520 -47
-276 2474 -15
-82 2606 -117
-167 2533 -77
-247 2481 -47
-327 2425 -13
-139 2550 -119
-223 2494 -79
-299 2436 -47
-377 2383 -12
-195 2506 -121
-276 2450 -80
-349 2382 -47
-431 2370 -10
-250 2467 -123
-327 2397 -80
-402 2361 -47
-481 2333 -9
-302 2414 -125
-378 2360 -82
-455 2344 -47
-525 2281 -8
-354 2376 -127
-436 2370 -84
-502 2303 -47
-572 2250 -7
-412 2382 -132
-484 2328 -85
-549 2265 -47
-616 2209 -6
-463 2347 -134
-531 2283 -86
-595 2231 -47
-659 2169 -5
-509 2296 -136
-576 2240 -87
-640 2191 -47
-702 2134 -4
-547 2219 -135
-622 2204 -88
-682 2151 -47
-743 2097 -3
-586 2159 -136
-667 2169 -89
-724 2113 -47
-785 2064 -2
-625 2102 -137
-709 2128 -90
-768 2082 -48
-869 2137 -1
-664 2056 -138
-750 2089 -91
-832 2105 -49
-944 2176 0
-731 2095 -145
-797 2066 -93
-921 2181 -52
-2219 4812 1
-777 2067 -147
-894 2166 -100
-2147 4770 -117
-2775 5674 3
-861 2136 -157
-2107 4782 -229
-2357 4931 -123
-2897 5596 5
-938 2177 -165
0 0 0
-2865 5654 -145
-3283 6003 8
0 0 0
-2839 5705 -289
-3071 5728 -150
-4059 7036 13
0 0 0
0 0 0
-7966 14068 -377
-4745 7808 17
-3037 5863 -487
0 0 0
-4525 7580 -208
-5512 8623 22
-3537 6446 -553
-4293 7294 -405
-5396 8577 -242
-6352 9458 28
0 0 0
-5152 8300 -475
-5564 8408 -243
-2139 3033 10
0 0 0
-5504 8420 -497
-6466 9296 -276
-2210 2987 11
0 0 0
-6497 9450 -575
-2189 2997 -91
-840 1084 4
-196 288 -28
-2174 3008 -189
-816 1065 -33
-843 1038 4
0 0 0
-2240 2951 -191
-851 1059 -34
0 0 0
-212 281 -29
0 0 0
0 0 0
0 0 0
0 0 0
0 0 0
0 0 0
0 0 0
0 0 0
0 0 0
0 0 0
0 0 0
0 0 0
0 0 0
0 0 0
0 0 0
0 0 0
0 0 0
0 0 0
0 0 0
0 0 0
0 0 0
0 0 0
0 0 0
0 0 0
0 0 0
0 0 0
0 0 0
0 0 0
0 0 0
0 0 0
0 0 0
0 0 0
0 0 0
0 0 0
0 0 0
0 0 0
0 0 0
0 0 0
0 0 0
0 0 0
0 0 0
0 0 0
0 0 0
0 0 0
0 0 0
0 0 0
0 0 0
-93 69 -11
0 0 0
0 0 0
0 0 0
0 0 0
0 0 0
0 0 0
0 0 0
0 0 0
0 0 0
0 0 0
0 0 0
0 0 0
0 0 0
0 0 0
0 0 0
0 0 0
0 0 0
0 0 0
0 0 0
0 0 0
0 0 0
0 0 0
0 0 0
0 0 0
0 0 0
0 0 0
0 0 0
0 0 0
0 0 0
0 0 0
0 0 0
0 0 0
0 0 0
0 0 0
0 0 0
0 0 0
0 0 0
0 0 0
0 0 0
0 0 0
0 0 0
0 0 0
0 0 0
0 0 0
0 0 0
0 0 0
0 0 0
0 0 0
0 0 0
0 0 0
0 0 0
0 0 0
0 0 0
0 0 0
0 0 0
0 0 0
0 0 0
0 0 0
0 0 0
0 0 0
0 0 0
0 0 0
0 0 0
0 0 0
0 0 0
0 0 0
0 0 0
0 0 0
0 0 0
0 0 0
0 0 0
0 0 0
0 0 0
0 0 0
0 0 0
0 0 0
0 0 0
0 0 0
0 0 0
0 0 0
0 0 0
0 0 0
0 0 0
0 0 0
0 0 0
0 0 0
0 0 0
0 0 0
0 0 0
0 0 0
0 0 0
0 0 0
0 0 0
0 0 0
0 0 0
0 0 0
0 0 0
0 0 0
0 0 0
0 0 0
0 0 0
0 0 0
0 0 0
0 0 0
0 0 0
0 0 0
0 0 0
0 0 0
0 0 0
0 0 0
0 0 0
0 0 0
0 0 0
0 0 0
0 0 0
0 0 0
0 0 0
0 0 0
0 0 0
0 0 0
0 0 0
0 0 0
0 0 0
0 0 0
0 0 0
0 0 0
0 0 0
0 0 0
0 0 0
0 0 0
0 0 0
0 0 0
0 0 0
0 0 0
0 0 0
0 0 0
0 0 0
0 0 0
0 0 0
0 0 0
0 0 0
0 0 0
0 0 0
0 0 0
0 0 0
0 0 0
0 0 0
0 0 0
0 0 0
0 0 0
0 0 0
0 0 0
0 0 0
0 0 0
0 0 0
0 0 0
0 0 0
0 0 0
0 0 0
0 0 0
0 0 0
0 0 0
0 0 0
0 0 0
0 0 0
0 0 0
0 0 0
0 0 0
0 0 0
0 0 0
0 0 0
0 0 0
0 0 0
0 0 0
0 0 0
0 0 0
0 0 0
0 0 0
0 0 0
0 0 0
0 0 0
0 0 0
0 0 0
0 0 0
0 0 0
0 0 0
0 0 0
0 0 0
0 0 0
0 0 0
0 0 0
0 0 0
0 0 0
0 0 0
0 0 0
0 0 0
0 0 0
0 0 0
0 0 0
0 0 0
0 0 0
0 0 0
0 0 0
0 0 0
0 0 0
0 0 0
0 0 0
0 0 0
0 0 0
0 0 0
0 0 0
0 0 0
0 0 0
0 0 0
0 0 0
0 0 0
0 0 0
0 0 0
0 0 0
0 0 0
0 0 0
0 0 0
0 0 0
0 0 0
0 0 0
0 0 0
0 0 0
0 0 0
0 0 0
0 0 0
0 0 0
0 0 0
0 0 0
0 0 0
0 0 0
0 0 0
0 0 0
0 0 0
0 0 0
0 0 0
0 0 0
0 0 0
0 0 0
0 0 0
0 0 0
0 0 0
0 0 0
0 0 0
0 0 0
0 0 0
0 0 0
0 0 0
0 0 0
0 0 0
0 0 0
0 0 0
0 0 0
0 0 0
0 0 0
0 0 0
0 0 0
0 0 0
0 0 0
0 0 0
0 0 0
0 0 0
0 0 0
0 0 0
0 0 0
0 0 0
0 0 0
0 0 0
0 0 0
0 0 0
0 0 0
0 0 0
0 0 0
0 0 0
0 0 0
0 0 0
0 0 0
0 0 0
0 0 0
0 0 0
0 0 0
0 0 0
0 0 0
0 0 0
0 0 0
0 0 0
0 0 0
0 0 0
0 0 0
0 0 0
0 0 0
0 0 0
0 0 0
0 0 0
0 0 0
0 0 0
0 0 0
0 0 0
0 0 0
0 0 0
0 0 0
0 0 0
0 0 0
0 0 0
0 0 0
0 0 0
0 0 0
0 0 0
0 0 0
0 0 0
0 0 0
0 0 0
0 0 0
0 0 0
0 0 0
0 0 0
0 0 0
0 0 0
0 0 0
0 0 0
0 0 0
0 0 0
0 0 0
0 0 0
0 0 0
0 0 0
0 0 0
0 0 0
0 0 0
0 0 0
0 0 0
0 0 0
0 0 0
0 0 0
0 0 0
0 0 0
0 0 0
0 0 0
0 0 0
0 0 0
0 0 0
0 0 0
0 0 0
0 0 0
0 0 0
0 0 0
0 0 0
0 0 0
0 0 0
0 0 0
0 0 0
0 0 0
0 0 0
0 0 0
0 0 0
0 0 0
0 0 0
0 0 0
0 0 0
0 0 0
0 0 0
0 0 0
0 0 0
0 0 0
0 0 0
0 0 0
0 0 0
0 0 0
0 0 0
0 0 0
0 0 0
0 0 0
0 0 0
0 0 0
0 0 0
0 0 0
0 0 0
0 0 0
0 0 0
0 0 0
0 0 0
0 0 0
0 0 0
0 0 0
0 0 0
0 0 0
0 0 0
0 0 0
0 0 0
0 0 0
0 0 0
0 0 0
0 0 0
0 0 0
0 0 0
0 0 0
0 0 0
0 0 0
0 0 0
0 0 0
0 0 0
0 0 0
0 0 0
0 0 0
0 0 0
0 0 0
0 0 0
0 0 0
0 0 0
0 0 0
0 0 0
0 0 0
0 0 0
0 0 0
0 0 0
0 0 0
0 0 0
0 0 0
0 0 0
0 0 0
0 0 0
0 0 0
0 0 0
0 0 0
0 0 0
0 0 0
0 0 0
0 0 0
0 0 0
0 0 0
0 0 0
0 0 0
0 0 0
0 0 0
0 0 0
0 0 0
0 0 0
0 0 0
0 0 0
0 0 0
0 0 0
0 0 0
0 0 0
0 0 0
0 0 0
0 0 0
0 0 0
0 0 0
0 0 0
0 0 0
0 0 0
0 0 0
0 0 0
0 0 0
0 0 0
0 0 0
0 0 0
0 0 0
0 0 0
0 0 0
0 0 0
0 0 0
0 0 0
0 0 0
0 0 0
0 0 0
0 0 0
0 0 0
0 0 0
0 0 0
0 0 0
0 0 0
0 0 0
0 0 0
0 0 0
0 0 0
0 0 0
0 0 0
0 0 0
0 0 0
0 0 0
0 0 0
0 0 0
0 0 0
0 0 0
0 0 0
0 0 0
0 0 0
0 0 0
0 0 0
0 0 0
0 0 0
0 0 0
0 0 0
0 0 0
0 0 0
0 0 0
0 0 0
0 0 0
0 0 0
0 0 0
0 0 0
0 0 0
0 0 0
0 0 0
0 0 0
0 0 0
0 0 0
0 0 0
0 0 0
0 0 0
0 0 0
0 0 0
0 0 0
0 0 0
0 0 0
0 0 0
0 0 0
0 0 0
0 0 0
0 0 0
0 0 0
0 0 0
771 -583 0
0 0 0
0 0 0
0 0 0
800 -577 1
0 0 0
0 0 0
0 0 0
816 -561 1
0 0 0
0 0 0
0 0 0
846 -554 2
0 0 0
0 0 0
0 0 0
870 -542 3
0 0 0
0 0 0
0 0 0
880 -522 3
0 0 0
0 0 0
0 0 0
885 -498 4
0 0 0
0 0 0
0 0 0
919 -491 4
0 0 0
0 0 0
0 0 0
935 -473 5
0 0 0
0 0 0
0 0 0
928 -444 5
0 0 0
0 0 0
0 0 0
0 0 0
0 0 0
0 0 0
0 0 0
2191 -930 14
0 0 0
0 0 0
0 0 0
2231 -889 15
0 0 0
0 0 0
0 0 0
0 0 0
0 0 0
0 0 0
0 0 0
0 0 0
0 0 0
0 0 0
0 0 0
0 0 0
0 0 0
0 0 0
0 0 0
0 0 0
0 0 0
0 0 0
0 0 0
0 0 0
0 0 0
0 0 0
0 0 0
0 0 0
0 0 0
0 0 0
0 0 0
0 0 0
0 0 0
0 0 0
0 0 0
0 0 0
0 0 0
0 0 0
0 0 0
0 0 0
0 0 0
0 0 0
0 0 0
0 0 0
0 0 0
0 0 0
0 0 0
0 0 0
0 0 0
0 0 0
0 0 0
0 0 0
0 0 0
0 0 0
0 0 0
0 0 0
0 0 0
0 0 0
0 0 0
0 0 0
0 0 0
0 0 0
0 0 0
0 0 0
0 0 0
0 0 0
0 0 0
0 0 0
0 0 0
0 0 0
0 0 0
0 0 0
0 0 0
0 0 0
0 0 0
0 0 0
0 0 0
0 0 0
0 0 0
0 0 0
0 0 0
0 0 0
0 0 0
0 0 0
0 0 0
0 0 0
0 0 0
0 0 0
0 0 0
0 0 0
0 0 0
0 0 0
0 0 0
0 0 0
0 0 0
0 0 0
0 0 0
0 0 0
0 0 0
0 0 0
0 0 0
0 0 0
2157 399 -210
0 0 0
2149 407 -61
2139 425 -130
2127 446 -207
2138 429 7
2125 452 -61
2103 470 -129
2081 490 -203
2097 471 6
2085 494 -61
2066 513 -127
2053 535 -201
2072 513 5
2054 537 -61
2035 556 -126
2018 578 -198
2039 553 3
2023 578 -61
1997 596 -125
1973 617 -195
2004 592 2
1983 616 -60
1963 636 -124
1946 660 -193
1972 631 1
1950 654 -60
1930 675 -123
1913 700 -190
1938 667 0
1914 691 -61
1902 715 -122
1881 740 -188
1913 707 -1
1881 729 -61
1863 751 -121
1852 780 -186
1884 745 -3
1848 765 -61
1832 789 -120
0 0 0
1839 774 -4
1818 802 -61
0 0 0
0 0 0
0 0 0
1988 931 -69
0 0 0
2248 1143 -231
0 0 0
2181 1083 -77
2268 1171 -154
2185 1178 -226
0 0 0
2259 1186 -82
2078 1135 -142
2005 1143 -209
2247 1191 -14
2089 1159 -78
2057 1187 -143
2007 1210 -211
2106 1178 -16
2068 1210 -79
2036 1240 -144
1865 1186 -198
2087 1230 -18
2054 1265 -81
2007 1287 -144
1793 1200 -192
2078 1287 -20
2026 1313 -82
1969 1328 -143
1918 1352 -208
2046 1332 -23
1984 1351 -83
1925 1364 -142
1868 1384 -205
2002 1367 -25
1941 1387 -83
1872 1393 -141
1970 1534 -218
1950 1397 -27
1875 1406 -83
1963 1534 -150
1933 1580 -217
1888 1418 -29
1956 1539 -90
1930 1582 -151
1895 1627 -216
1958 1540 -34
1922 1584 -91
1888 1623 -150
1856 1671 -214
1923 1584 -37
1886 1628 -92
1852 1669 -151
1820 1720 -213
1887 1626 -40
1846 1669 -94
1817 1715 -151
1774 1757 -211
1850 1668 -42
1814 1717 -95
1773 1753 -151
1664 1728 -201
1818 1716 -46
1774 1757 -97
1741 1804 -152
1555 1693 -191
1786 1762 -49
1735 1799 -98
1600 1736 -143
1496 1710 -188
1740 1797 -52
1700 1846 -100
1520 1730 -139
1481 1775 -189
1709 1847 -55
1663 1891 -102
1507 1799 -142
1437 1809 -188
1670 1887 -58
1625 1936 -104
1528 1912 -148
1415 1871 -189
1629 1928 -62
1585 1978 -106
1548 2030 -155
1352 1877 -185
1592 1971 -65
1551 2028 -109
1385 1908 -143
1314 1917 -184
1558 2020 -69
1501 2058 -110
1318 1908 -140
1334 2049 -192
1516 2060 -73
1334 1921 -103
1279 1948 -141
1234 1999 -183
1397 1993 -73
1292 1955 -104
1239 1985 -142
1187 2028 -181
1318 1973 -74
1240 1975 -105
1192 2013 -142
1134 2046 -178
1252 1970 -76
1199 2009 -107
1167 2080 -145
1090 2081 -177
1219 2017 -80
1171 2069 -111
1109 2088 -143
1068 2161 -180
1167 2035 -83
1148 2141 -115
1068 2130 -145
1025 2203 -180
1137 2090 -88
1095 2160 -116
1040 2199 -148
944 2163 -173
1124 2185 -95
1058 2213 -120
1023 2302 -153
935 2286 -179
1085 2233 -99
1026 2279 -124
993 2382 -157
923 2420 -186
1058 2309 -105
1006 2380 -130
983 2523 -165
961 2709 -204
1020 2368 -111
1001 2527 -139
980 2695 -175
912 2772 -205
1048 2592 -124
991 2680 -148
930 2755 -177
857 2828 -205
1008 2665 -131
941 2738 -152
881 2823 -180
803 2891 -206
957 2718 -137
888 2795 -156
824 2879 -183
743 2946 -206
906 2777 -143
835 2851 -161
768 2942 -185
597 2621 -180
852 2828 -150
782 2919 -166
692 2926 -183
526 2590 -175
801 2898 -157
721 2965 -170
621 2930 -183
466 2604 -173
746 2963 -164
651 2972 -172
497 2644 -164
404 2610 -171
675 2965 -168
601 3084 -180
432 2636 -163
341 2599 -167
628 3088 -180
457 2671 -157
368 2624 -162
278 2588 -164
481 2680 -159
387 2631 -156
304 2601 -160
216 2569 -160
411 2636 -160
324 2613 -157
240 2580 -159
153 2522 -155
346 2614 -163
259 2582 -157
177 2534 -155
96 2603 -158
281 2584 -165
195 2531 -155
117 2526 -155
37 2668 -160
216 2523 -165
135 2504 -155
61 2621 -161
-24 2660 -157
155 2489 -166
75 2479 -156
0 2644 -162
-86 2655 -155
95 2436 -166
18 2476 -158
-61 2618 -161
-145 2609 -150
37 2399 -168
-41 2588 -167
-119 2573 -158
-200 2524 -144
-17 2375 -170
-100 2566 -168
-177 2546 -157
-252 2462 -138
-73 2387 -174
-156 2515 -166
-234 2522 -156
-303 2409 -134
-131 2424 -181
-213 2486 -167
-286 2460 -152
-354 2366 -130
-189 2436 -186
-265 2433 -166
-341 2432 -151
-412 2379 -129
-247 2445 -191
-301 2264 -156
-391 2390 -149
-463 2345 -126
-262 2109 -169
-360 2299 -161
-444 2362 -148
-510 2305 -123
-307 2069 -170
-415 2302 -164
-477 2250 -142
-556 2263 -120
-350 2033 -171
-426 2083 -151
-516 2184 -139
-601 2225 -117
-391 1987 -171
-474 2069 -152
-557 2137 -136
-643 2179 -113
-433 1958 -172
-495 1949 -146
-601 2102 -135
-688 2147 -111
0 0 0
-549 1972 -150
-648 2084 -135
-731 2112 -108
0 0 0
-616 2026 -157
-701 2082 -136
-771 2072 -105
0 0 0
-677 2053 -162
-758 2090 -138
-841 2111 -107
0 0 0
0 0 0
-811 2083 -139
-930 2186 -110
0 0 0
0 0 0
-905 2175 -146
-2156 4761 -239
0 0 0
0 0 0
0 0 0
0 0 0
0 0 0
0 0 0
0 0 0
0 0 0
0 0 0
0 0 0
-2754 5505 -385
0 0 0
0 0 0
0 0 0
-3170 5982 -424
0 0 0
0 0 0
0 0 0
-3704 6617 -475
-4532 7563 -374
0 0 0
0 0 0
-4340 7345 -535
-5396 8557 -423
0 0 0
0 0 0
-5231 8404 -621
-5544 8364 -414
0 0 0
0 0 0
-5513 8417 -632
-6468 9286 -460
0 0 0
0 0 0
-6484 9413 -719
-2193 3001 -149
0 0 0
0 0 0
-2178 3011 -234
-2259 2947 -146
0 0 0
0 0 0
-2241 2952 -233
0 0 0
0 0 0
0 0 0
0 0 0
0 0 0
0 0 0
0 0 0
0 0 0
0 0 0
0 0 0
0 0 0
0 0 0
0 0 0
0 0 0
0 0 0
0 0 0
0 0 0
0 0 0
0 0 0
0 0 0
0 0 0
0 0 0
0 0 0
0 0 0
0 0 0
0 0 0
0 0 0
0 0 0
0 0 0
0 0 0
0 0 0
0 0 0
0 0 0
0 0 0
0 0 0
0 0 0
0 0 0
0 0 0
0 0 0
0 0 0
0 0 0
0 0 0
0 0 0
0 0 0
0 0 0
0 0 0
0 0 0
0 0 0
0 0 0
0 0 0
0 0 0
0 0 0
0 0 0
0 0 0
0 0 0
0 0 0
0 0 0
0 0 0
0 0 0
0 0 0
0 0 0
0 0 0
0 0 0
0 0 0
0 0 0
0 0 0
0 0 0
0 0 0
0 0 0
0 0 0
0 0 0
0 0 0
0 0 0
0 0 0
0 0 0
0 0 0
0 0 0
0 0 0
0 0 0
0 0 0
0 0 0
0 0 0
0 0 0
0 0 0
0 0 0
0 0 0
0 0 0
0 0 0
0 0 0
0 0 0
0 0 0
0 0 0
0 0 0
0 0 0
0 0 0
0 0 0
0 0 0
0 0 0
0 0 0
0 0 0
0 0 0
0 0 0
0 0 0
0 0 0
0 0 0
0 0 0
0 0 0
0 0 0
0 0 0
0 0 0
0 0 0
0 0 0
0 0 0
0 0 0
0 0 0
0 0 0
0 0 0
0 0 0
0 0 0
0 0 0
0 0 0
0 0 0
0 0 0
0 0 0
0 0 0
0 0 0
0 0 0
0 0 0
0 0 0
0 0 0
0 0 0
0 0 0
0 0 0
0 0 0
0 0 0
0 0 0
0 0 0
0 0 0
0 0 0
0 0 0
0 0 0
0 0 0
0 0 0
0 0 0
0 0 0
0 0 0
0 0 0
0 0 0
0 0 0
0 0 0
0 0 0
0 0 0
0 0 0
0 0 0
0 0 0
0 0 0
0 0 0
0 0 0
0 0 0
0 0 0
0 0 0
0 0 0
0 0 0
0 0 0
0 0 0
0 0 0
0 0 0
0 0 0
0 0 0
0 0 0
0 0 0
0 0 0
0 0 0
0 0 0
0 0 0
0 0 0
0 0 0
0 0 0
0 0 0
0 0 0
0 0 0
0 0 0
0 0 0
0 0 0
0 0 0
0 0 0
0 0 0
0 0 0
0 0 0
0 0 0
0 0 0
0 0 0
0 0 0
0 0 0
0 0 0
0 0 0
0 0 0
0 0 0
0 0 0
0 0 0
0 0 0
0 0 0
0 0 0
0 0 0
0 0 0
0 0 0
0 0 0
0 0 0
0 0 0
0 0 0
0 0 0
0 0 0
0 0 0
0 0 0
0 0 0
0 0 0
0 0 0
0 0 0
0 0 0
0 0 0
0 0 0
0 0 0
0 0 0
0 0 0
0 0 0
0 0 0
0 0 0
0 0 0
0 0 0
0 0 0
0 0 0
0 0 0
0 0 0
0 0 0
0 0 0
0 0 0
0 0 0
0 0 0
0 0 0
0 0 0
0 0 0
0 0 0
0 0 0
0 0 0
0 0 0
0 0 0
0 0 0
0 0 0
0 0 0
0 0 0
0 0 0
0 0 0
0 0 0
0 0 0
0 0 0
0 0 0
0 0 0
0 0 0
0 0 0
0 0 0
0 0 0
0 0 0
0 0 0
0 0 0
0 0 0
0 0 0
0 0 0
0 0 0
0 0 0
0 0 0
0 0 0
0 0 0
0 0 0
0 0 0
0 0 0
0 0 0
0 0 0
0 0 0
0 0 0
0 0 0
0 0 0
0 0 0
0 0 0
0 0 0
0 0 0
0 0 0
0 0 0
0 0 0
0 0 0
0 0 0
0 0 0
0 0 0
0 0 0
0 0 0
0 0 0
0 0 0
0 0 0
0 0 0
0 0 0
0 0 0
0 0 0
0 0 0
0 0 0
0 0 0
0 0 0
0 0 0
0 0 0
0 0 0
0 0 0
0 0 0
0 0 0
0 0 0
0 0 0
0 0 0
0 0 0
0 0 0
0 0 0
0 0 0
0 0 0
0 0 0
0 0 0
0 0 0
0 0 0
0 0 0
0 0 0
0 0 0
0 0 0
0 0 0
0 0 0
0 0 0
0 0 0
0 0 0
0 0 0
0 0 0
0 0 0
0 0 0
0 0 0
0 0 0
0 0 0
0 0 0
0 0 0
0 0 0
0 0 0
0 0 0
0 0 0
0 0 0
0 0 0
0 0 0
0 0 0
0 0 0
0 0 0
0 0 0
0 0 0
0 0 0
0 0 0
0 0 0
0 0 0
0 0 0
0 0 0
0 0 0
0 0 0
0 0 0
0 0 0
0 0 0
0 0 0
0 0 0
0 0 0
0 0 0
0 0 0
0 0 0
0 0 0
0 0 0
0 0 0
0 0 0
0 0 0
0 0 0
0 0 0
0 0 0
0 0 0
0 0 0
0 0 0
0 0 0
0 0 0
0 0 0
0 0 0
0 0 0
0 0 0
0 0 0
0 0 0
0 0 0
0 0 0
0 0 0
0 0 0
0 0 0
0 0 0
0 0 0
0 0 0
0 0 0
0 0 0
0 0 0
0 0 0
0 0 0
0 0 0
0 0 0
0 0 0
0 0 0
0 0 0
0 0 0
0 0 0
0 0 0
0 0 0
0 0 0
0 0 0
0 0 0
0 0 0
0 0 0
0 0 0
0 0 0
0 0 0
0 0 0
0 0 0
0 0 0
0 0 0
0 0 0
0 0 0
0 0 0
0 0 0
0 0 0
0 0 0
0 0 0
0 0 0
0 0 0
0 0 0
0 0 0
0 0 0
0 0 0
0 0 0
0 0 0
0 0 0
0 0 0
0 0 0
0 0 0
0 0 0
0 0 0
0 0 0
0 0 0
0 0 0
0 0 0
0 0 0
0 0 0
0 0 0
0 0 0
0 0 0
0 0 0
0 0 0
0 0 0
0 0 0
0 0 0
0 0 0
0 0 0
0 0 0
0 0 0
0 0 0
0 0 0
0 0 0
0 0 0
0 0 0
0 0 0
0 0 0
0 0 0
0 0 0
0 0 0
0 0 0
0 0 0
0 0 0
0 0 0
0 0 0
0 0 0
0 0 0
0 0 0
0 0 0
0 0 0
0 0 0
0 0 0
0 0 0
0 0 0
0 0 0
0 0 0
0 0 0
0 0 0
0 0 0
0 0 0
0 0 0
0 0 0
0 0 0
0 0 0
0 0 0
0 0 0
0 0 0
0 0 0
0 0 0
0 0 0
0 0 0
0 0 0
0 0 0
0 0 0
0 0 0
0 0 0
0 0 0
0 0 0
0 0 0
0 0 0
0 0 0
0 0 0
0 0 0
0 0 0
0 0 0
0 0 0
0 0 0
0 0 0
0 0 0
0 0 0
0 0 0
0 0 0
0 0 0
0 0 0
0 0 0
0 0 0
0 0 0
0 0 0
0 0 0
0 0 0
0 0 0
0 0 0
0 0 0
0 0 0
0 0 0
0 0 0
0 0 0
0 0 0
0 0 0
0 0 0
0 0 0
0 0 0
0 0 0
0 0 0
0 0 0
0 0 0
0 0 0
0 0 0
0 0 0
0 0 0
0 0 0
0 0 0
0 0 0
0 0 0
0 0 0
0 0 0
0 0 0
0 0 0
0 0 0
0 0 0
0 0 0
0 0 0
0 0 0
0 0 0
0 0 0
0 0 0
0 0 0
0 0 0
0 0 0
0 0 0
0 0 0
0 0 0
0 0 0
0 0 0
0 0 0
0 0 0
0 0 0
0 0 0
0 0 0
0 0 0
0 0 0
0 0 0
0 0 0
0 0 0
0 0 0
0 0 0
0 0 0
0 0 0
0 0 0
0 0 0
0 0 0
0 0 0
0 0 0
0 0 0
0 0 0
0 0 0
0 0 0
0 0 0
0 0 0
0 0 0
0 0 0
0 0 0
0 0 0
0 0 0
0 0 0
0 0 0
0 0 0
0 0 0
0 0 0
0 0 0
0 0 0
0 0 0
0 0 0
0 0 0
0 0 0
0 0 0
0 0 0
0 0 0
0 0 0
0 0 0
0 0 0
0 0 0
0 0 0
0 0 0
0 0 0
0 0 0
0 0 0
0 0 0
0 0 0
0 0 0
0 0 0
0 0 0
0 0 0
0 0 0
0 0 0
0 0 0
0 0 0
0 0 0
0 0 0
0 0 0
0 0 0
0 0 0
0 0 0
0 0 0
0 0 0
0 0 0
0 0 0
0 0 0
0 0 0
0 0 0
0 0 0
0 0 0
0 0 0
0 0 0
0 0 0
0 0 0
0 0 0
0 0 0
0 0 0
0 0 0
0 0 0
0 0 0
0 0 0
0 0 0
0 0 0
0 0 0
0 0 0
0 0 0
0 0 0
0 0 0
0 0 0
0 0 0
0 0 0
0 0 0
0 0 0
0 0 0
0 0 0
0 0 0
0 0 0
0 0 0
0 0 0
0 0 0
0 0 0
0 0 0
0 0 0
0 0 0
0 0 0
0 0 0
0 0 0
0 0 0
0 0 0
0 0 0
0 0 0
0 0 0
0 0 0
0 0 0
0 0 0
0 0 0
0 0 0
0 0 0
0 0 0
0 0 0
0 0 0
0 0 0
0 0 0
0 0 0
0 0 0
0 0 0
0 0 0
0 0 0
0 0 0
0 0 0
0 0 0
0 0 0
0 0 0
0 0 0
0 0 0
0 0 0
0 0 0
0 0 0
0 0 0
0 0 0
0 0 0
0 0 0
0 0 0
0 0 0
2164 399 -237
0 0 0
2147 406 -78
2148 426 -153
2125 445 -234
0 0 0
2122 453 -78
2108 471 -150
2095 493 -231
2095 472 -4
2087 495 -77
2071 513 -148
2050 534 -227
2069 515 -4
2062 539 -76
2041 557 -146
2021 579 -225
2036 554 -4
2022 578 -75
1996 595 -144
1983 619 -221
2004 594 -5
1984 616 -74
1962 635 -142
1947 660 -218
1968 631 -5
1954 656 -73
1934 676 -141
1910 698 -215
1932 667 -5
1915 692 -72
1901 716 -139
1884 741 -214
1915 710 -6
1880 729 -72
1862 751 -137
1846 778 -211
1868 740 -6
1847 765 -71
1836 791 -137
0 0 0
1838 776 -7
1814 800 -71
0 0 0
0 0 0
1827 820 -7
0 0 0
0 0 0
0 0 0
0 0 0
0 0 0
2268 1171 -173
2146 1157 -252
0 0 0
2259 1187 -92
2076 1134 -160
1824 1040 -216
